<?xml version="1.0" encoding="UTF-8" standalone="no"?>
<!-- Created with Inkscape (http://www.inkscape.org/) -->

<svg
   width="670mm"
   height="200mm"
   viewBox="0 0 670 200"
   version="1.1"
   id="svg5"
   xml:space="preserve"
   inkscape:version="1.2 (dc2aedaf03, 2022-05-15)"
   sodipodi:docname="logo-full.svg"
   xmlns:inkscape="http://www.inkscape.org/namespaces/inkscape"
   xmlns:sodipodi="http://sodipodi.sourceforge.net/DTD/sodipodi-0.dtd"
   xmlns:xlink="http://www.w3.org/1999/xlink"
   xmlns="http://www.w3.org/2000/svg"
   xmlns:svg="http://www.w3.org/2000/svg"><sodipodi:namedview
     id="namedview7"
     pagecolor="#ffffff"
     bordercolor="#999999"
     borderopacity="1"
     inkscape:showpageshadow="0"
     inkscape:pageopacity="0"
     inkscape:pagecheckerboard="0"
     inkscape:deskcolor="#d1d1d1"
     inkscape:document-units="mm"
     showgrid="false"
     inkscape:zoom="0.45254834"
     inkscape:cx="1257.3242"
     inkscape:cy="489.45048"
     inkscape:window-width="1920"
     inkscape:window-height="1060"
     inkscape:window-x="1920"
     inkscape:window-y="0"
     inkscape:window-maximized="1"
     inkscape:current-layer="layer1" /><defs
     id="defs2"><linearGradient
       inkscape:collect="always"
       id="linearGradient12215"><stop
         style="stop-color:#ea6354;stop-opacity:1;"
         offset="0"
         id="stop12211" /><stop
         style="stop-color:#ff9a00;stop-opacity:1;"
         offset="1"
         id="stop12213" /></linearGradient><linearGradient
       id="linearGradient11878"
       inkscape:swatch="gradient"><stop
         style="stop-color:#ff9a00;stop-opacity:1;"
         offset="0"
         id="stop11874" /><stop
         style="stop-color:#ff9a00;stop-opacity:0;"
         offset="1"
         id="stop11876" /></linearGradient><inkscape:perspective
       sodipodi:type="inkscape:persp3d"
       inkscape:vp_x="-177.68436 : -15.176447 : 1"
       inkscape:vp_y="0 : 1000 : 0"
       inkscape:vp_z="563.90484 : -42.378941 : 1"
       inkscape:persp3d-origin="172.31562 : -48.50978 : 1"
       id="perspective3834" /><linearGradient
       id="linearGradient3772"
       inkscape:swatch="solid"><stop
         style="stop-color:#000000;stop-opacity:1;"
         offset="0"
         id="stop3770" /></linearGradient><rect
       x="787.62122"
       y="50.62886"
       width="1433.1853"
       height="634.8075"
       id="rect1159" /><inkscape:path-effect
       effect="mirror_symmetry"
       start_point="279.26059,130.22051"
       end_point="279.26059,299.52694"
       center_point="279.26059,214.87372"
       id="path-effect1132"
       is_visible="true"
       lpeversion="1.2"
       lpesatellites=""
       mode="vertical"
       discard_orig_path="false"
       fuse_paths="true"
       oposite_fuse="false"
       split_items="false"
       split_open="false"
       link_styles="false" /><inkscape:path-effect
       effect="roughen"
       id="path-effect1130"
       is_visible="true"
       lpeversion="1.2"
       method="size"
       max_segment_size="1.23807"
       segments="2"
       displace_x="10;1"
       displace_y="10;1"
       global_randomize="1;1"
       handles="along"
       shift_nodes="true"
       fixed_displacement="false"
       spray_tool_friendly="false" /><linearGradient
       inkscape:collect="always"
       xlink:href="#linearGradient3772"
       id="linearGradient3774"
       x1="786.69836"
       y1="187.15251"
       x2="1723.9618"
       y2="187.15251"
       gradientUnits="userSpaceOnUse" /><linearGradient
       inkscape:collect="always"
       xlink:href="#linearGradient12215"
       id="linearGradient12217"
       x1="235.21494"
       y1="151.99426"
       x2="657.79749"
       y2="151.99426"
       gradientUnits="userSpaceOnUse" /></defs><g
     inkscape:label="Layer 1"
     inkscape:groupmode="layer"
     id="layer1"><path
       style="fill:url(#linearGradient12217);fill-opacity:1;stroke:none;stroke-width:3.04562;stroke-dasharray:none;stroke-opacity:1"
       d="m 248.09198,159.85294 409.70553,0.0407 -13.57915,-15.79876 H 235.21494 Z"
       id="path10734"
       inkscape:label="Underline"
       sodipodi:nodetypes="ccccc" /><g
       id="g277"
       style="display:inline"
       inkscape:label="Logo"><g
         id="layer3"
         inkscape:label="Base Rectangle"
         inkscape:highlight-color="#01fef6"><rect
           style="display:inline;fill:#2d4059;fill-opacity:1;stroke-width:0.303124"
           id="rect83"
           width="200"
           height="200"
           x="-1.7763568e-15"
           y="0"
           rx="25"
           ry="25" /></g><g
         id="layer2"
         inkscape:label="Circle"
         inkscape:highlight-color="#f0f335"><ellipse
           style="fill:#ff9a00;fill-opacity:1;stroke:none;stroke-width:16.7706;stroke-dasharray:none;stroke-dashoffset:0;stroke-opacity:1"
           id="path3136"
           cx="100"
           cy="18.59514"
           rx="15.182655"
           ry="15.182654" /><circle
           style="fill:#ff9a00;fill-opacity:1;stroke:none;stroke-width:16.7706;stroke-dasharray:none;stroke-dashoffset:0;stroke-opacity:1"
           id="circle3138"
           cx="29.619656"
           cy="139.88565"
           r="15.182655" /><circle
           style="fill:#ff9a00;fill-opacity:1;stroke:none;stroke-width:16.7706;stroke-dasharray:none;stroke-dashoffset:0;stroke-opacity:1"
           id="circle3140"
           cx="170.74466"
           cy="139.88565"
           r="15.182655" /><circle
           style="fill:none;fill-opacity:1;stroke:#ff9a00;stroke-width:10;stroke-dasharray:none;stroke-dashoffset:0;stroke-opacity:1"
           id="path3220"
           cx="100"
           cy="100"
           r="81.747154" /></g><g
         inkscape:label="V"
         id="layer1-5"
         style="display:inline"
         inkscape:highlight-color="#3b44e3"><path
           style="fill:#ea5455;fill-opacity:1;stroke:none;stroke-width:1.23275;stroke-dasharray:none;stroke-opacity:1"
           d="m 78.828125,42.46875 -28.53125,3.490234 c -4.816277,17.769234 -6.10869,53.52438 14.035156,86.017576 11.164623,19.33769 46.867189,67.34571 46.867189,67.34571 0,0 35.70256,-48.00802 46.86719,-67.34571 20.14384,-32.493196 18.85338,-68.248342 14.03711,-86.017576 L 143.57227,42.46875 c 0,0 7.07595,16.886308 6.07617,40.117188 -1.58085,23.629942 -25.75091,65.056102 -38.19141,83.705082 -0.0871,0.12894 -0.17334,0.25781 -0.25781,0.38671 -0.0845,-0.1289 -0.16874,-0.25777 -0.25586,-0.38671 C 98.502865,147.64204 74.33085,106.21588 72.75,82.585938 71.750218,59.355058 78.828125,42.46875 78.828125,42.46875 Z"
           id="path1027"
           class="UnoptimicedTransforms"
           transform="matrix(1.1751614,0,0,1.18129,-30.677876,-40.137801)"
           sodipodi:nodetypes="ccccccc" /></g></g><g
       aria-label="Valence"
       transform="matrix(0.49899217,0,0,0.49899217,-172.81355,1.4854707)"
       id="text1157"
       style="font-size:266.667px;font-family:Ubuntu;-inkscape-font-specification:Ubuntu;letter-spacing:-15.9071px;white-space:pre;shape-inside:url(#rect1159);display:inline;fill:#2d4059;stroke:#2d4059;stroke-width:6.01212"
       inkscape:label="Valence Text"><path
         d="m 959.88797,114.49357 q -10.13334,29.33337 -19.46669,54.40007 -9.06668,24.80003 -17.86669,47.20005 -8.80001,22.40003 -17.60002,42.93339 -8.53334,20.26669 -17.60002,40.26672 h -24.2667 q -9.06668,-20.00003 -17.86669,-40.26672 -8.53334,-20.53336 -17.60002,-42.93339 -8.80001,-22.40002 -18.13335,-47.20005 -9.33335,-25.0667 -19.20003,-54.40007 h 28.53337 q 14.40002,42.13338 28.2667,81.06677 13.86669,38.93338 28.53337,73.06675 14.66669,-33.86671 28.53337,-72.80009 13.86668,-39.20005 28.00003,-81.33343 z"
         id="path500" /><path
         d="m 1008.2478,281.42711 q 8.8,0 15.4666,-0.26667 6.9334,-0.53333 11.4667,-1.6 v -41.33339 q -2.6667,-1.33333 -8.8,-2.13333 -5.8667,-1.06667 -14.4,-1.06667 -5.6,0 -12.00002,0.8 -6.13334,0.8 -11.46668,3.46667 -5.06668,2.4 -8.53335,6.93334 -3.46667,4.26668 -3.46667,11.46668 0,13.33335 8.53334,18.66669 8.53335,5.06668 23.20008,5.06668 z m -2.1334,-124.26682 q 14.9334,0 25.0667,4 10.4,3.73334 16.5334,10.93335 6.4,6.93334 9.0666,16.80002 2.6667,9.60001 2.6667,21.33336 v 86.66677 q -3.2,0.53334 -9.0667,1.6 -5.6,0.80001 -12.8,1.60001 -7.2,0.8 -15.7333,1.33333 -8.2667,0.8 -16.5334,0.8 -11.73333,0 -21.60001,-2.4 -9.86668,-2.4 -17.06669,-7.46668 -7.20001,-5.33334 -11.20001,-13.86668 -4.00001,-8.53334 -4.00001,-20.53336 0,-11.46668 4.53334,-19.73336 4.80001,-8.26667 12.80002,-13.33335 8.00001,-5.06667 18.66669,-7.46667 10.66668,-2.4 22.40007,-2.4 3.7333,0 7.7333,0.53333 4,0.26667 7.4667,1.06667 3.7333,0.53333 6.4,1.06667 2.6667,0.53333 3.7333,0.8 v -6.93335 q 0,-6.13334 -1.3333,-12.00001 -1.3334,-6.13334 -4.8,-10.66668 -3.4667,-4.80001 -9.6,-7.46668 -5.8667,-2.93333 -15.4667,-2.93333 -12.2667,0 -21.60005,1.86667 -9.06667,1.6 -13.60001,3.46667 l -2.93334,-20.53336 q 4.80001,-2.13334 16.00002,-4.00001 11.20001,-2.13333 24.26668,-2.13333 z"
         id="path502" /><path
         d="m 1126.2073,301.96047 q -22.9334,-0.53334 -32.5334,-9.86668 -9.6,-9.33335 -9.6,-29.06671 V 96.626881 l 24.8001,-4.266672 V 259.02708 q 0,6.13334 1.0666,10.13335 1.0667,4 3.4667,6.4 2.4,2.40001 6.4,3.73334 4,1.06667 9.8667,1.86667 z"
         id="path504" /><path
         d="m 1133.7671,230.22704 q 0,-18.40002 5.3333,-32.00003 5.3334,-13.86669 14.1334,-22.93337 8.8,-9.06667 20.2667,-13.60001 11.4667,-4.53334 23.4667,-4.53334 28,0 42.9334,17.60002 14.9333,17.33335 14.9333,53.06673 0,1.6 0,4.26667 0,2.40001 -0.2667,4.53334 h -94.9334 q 1.6,21.60003 12.5333,32.80004 10.9334,11.20002 34.1334,11.20002 13.0667,0 21.8667,-2.13334 9.0667,-2.4 13.6,-4.53334 l 3.4667,20.80003 q -4.5333,2.4 -16,5.06667 -11.2,2.66667 -25.6,2.66667 -18.1334,0 -31.4668,-5.33334 -13.0666,-5.60001 -21.6,-15.20002 -8.5333,-9.60001 -12.8,-22.66669 -4,-13.33335 -4,-29.06671 z m 95.2001,-13.60001 q 0.2667,-16.80002 -8.5333,-27.4667 -8.5334,-10.93335 -23.7334,-10.93335 -8.5333,0 -15.2,3.46667 -6.4,3.20001 -10.9334,8.53335 -4.5333,5.33334 -7.2,12.26668 -2.4,6.93334 -3.2,14.13335 z"
         id="path506" /><path
         d="m 1274.6602,164.62696 q 8.5333,-2.13333 22.6667,-4.53333 14.1333,-2.40001 32.5334,-2.40001 16.5333,0 27.4667,4.80001 10.9333,4.53334 17.3333,13.06668 6.6667,8.26668 9.3334,20.00003 2.6666,11.73334 2.6666,25.86669 v 77.86677 h -24.8 v -72.53343 q 0,-12.80001 -1.8667,-21.86669 -1.6,-9.06668 -5.6,-14.66668 -4,-5.60001 -10.6666,-8.00001 -6.6667,-2.66667 -16.5334,-2.66667 -4,0 -8.2667,0.26666 -4.2666,0.26667 -8.2667,0.8 -3.7333,0.26667 -6.9333,0.8 -2.9333,0.53334 -4.2667,0.80001 V 299.2938 h -24.8 z"
         id="path508" /><path
         d="m 1472.0865,302.4938 q -16.8,0 -29.6,-5.33334 -12.5333,-5.33334 -21.3333,-14.93335 -8.5334,-9.60001 -12.8001,-22.6667 -4.2666,-13.33335 -4.2666,-29.33337 0,-16.00002 4.5333,-29.33336 4.8,-13.33335 13.3334,-22.93337 8.5333,-9.86667 20.8,-15.20001 12.5333,-5.60001 27.7333,-5.60001 9.3334,0 18.6667,1.6 9.3334,1.6 17.8667,5.06667 l -5.6,21.0667 q -5.6,-2.66667 -13.0667,-4.26668 -7.2,-1.6 -15.4666,-1.6 -20.8001,0 -32.0001,13.06668 -10.9333,13.06669 -10.9333,38.13338 0,11.20002 2.4,20.53336 2.6666,9.33335 8,16.00002 5.6,6.66668 14.1333,10.40001 8.5334,3.46668 20.8001,3.46668 9.8666,0 17.8666,-1.86667 8.0001,-1.86667 12.5334,-4.00001 l 3.4667,20.80003 q -2.1334,1.33333 -6.1334,2.66667 -4,1.06667 -9.0667,1.86667 -5.0666,1.06666 -10.9333,1.6 -5.6,0.8 -10.9334,0.8 z"
         id="path510" /><path
         d="m 1512.1795,230.22704 q 0,-18.40002 5.3334,-32.00003 5.3333,-13.86669 14.1333,-22.93337 8.8,-9.06667 20.2667,-13.60001 11.4667,-4.53334 23.4667,-4.53334 28.0001,0 42.9334,17.60002 14.9334,17.33335 14.9334,53.06673 0,1.6 0,4.26667 0,2.40001 -0.2667,4.53334 h -94.9335 q 1.6,21.60003 12.5334,32.80004 10.9333,11.20002 34.1334,11.20002 13.0666,0 21.8667,-2.13334 9.0666,-2.4 13.6,-4.53334 l 3.4666,20.80003 q -4.5333,2.4 -16,5.06667 -11.2,2.66667 -25.6,2.66667 -18.1334,0 -31.4667,-5.33334 -13.0667,-5.60001 -21.6,-15.20002 -8.5334,-9.60001 -12.8,-22.66669 -4.0001,-13.33335 -4.0001,-29.06671 z m 95.2002,-13.60001 q 0.2666,-16.80002 -8.5334,-27.4667 -8.5333,-10.93335 -23.7333,-10.93335 -8.5334,0 -15.2001,3.46667 -6.4,3.20001 -10.9333,8.53335 -4.5333,5.33334 -7.2,12.26668 -2.4,6.93334 -3.2,14.13335 z"
         id="path512" /></g></g></svg>
