<?xml version="1.0" encoding="UTF-8" standalone="no"?>
<!DOCTYPE svg PUBLIC "-//W3C//DTD SVG 1.1//EN"
 "http://www.w3.org/Graphics/SVG/1.1/DTD/svg11.dtd">
<!-- Generated by graphviz version 9.0.0 (0)
 -->
<!-- Pages: 1 -->
<svg width="1256pt" height="692pt"
 viewBox="0.00 0.00 1255.62 692.00" xmlns="http://www.w3.org/2000/svg" xmlns:xlink="http://www.w3.org/1999/xlink">
<g id="graph0" class="graph" transform="scale(1 1) rotate(0) translate(4 688)">
<polygon fill="white" stroke="none" points="-4,4 -4,-688 1251.62,-688 1251.62,4 -4,4"/>
<!-- 0 -->
<g id="node1" class="node">
<title>0</title>
<polygon fill="none" stroke="black" points="434,-684 339.25,-684 339.25,-648 434,-648 434,-684"/>
<text text-anchor="middle" x="386.62" y="-661.33" font-family="Times,serif" font-size="14.00">java_string</text>
</g>
<!-- 1 -->
<g id="node2" class="node">
<title>1</title>
<polygon fill="none" stroke="black" points="1247.62,-468 1075.62,-468 1075.62,-432 1247.62,-432 1247.62,-468"/>
<text text-anchor="middle" x="1161.62" y="-445.32" font-family="Times,serif" font-size="14.00">valence_advancement</text>
</g>
<!-- 2 -->
<g id="node3" class="node">
<title>2</title>
<polygon fill="none" stroke="black" points="815.88,-396 693.38,-396 693.38,-360 815.88,-360 815.88,-396"/>
<text text-anchor="middle" x="754.62" y="-373.32" font-family="Times,serif" font-size="14.00">valence_server</text>
</g>
<!-- 1&#45;&gt;2 -->
<g id="edge1" class="edge">
<title>1&#45;&gt;2</title>
<path fill="none" stroke="black" d="M1075.31,-434.15C1001.71,-421.5 897.07,-403.5 827.58,-391.55"/>
<polygon fill="black" stroke="black" points="828.26,-388.11 817.81,-389.87 827.07,-395.01 828.26,-388.11"/>
</g>
<!-- 3 -->
<g id="node4" class="node">
<title>3</title>
<polygon fill="none" stroke="black" points="742,-324 623.25,-324 623.25,-288 742,-288 742,-324"/>
<text text-anchor="middle" x="682.62" y="-301.32" font-family="Times,serif" font-size="14.00">valence_entity</text>
</g>
<!-- 2&#45;&gt;3 -->
<g id="edge2" class="edge">
<title>2&#45;&gt;3</title>
<path fill="none" stroke="black" d="M736.83,-359.7C728.35,-351.45 718.04,-341.43 708.69,-332.35"/>
<polygon fill="black" stroke="black" points="711.16,-329.86 701.55,-325.4 706.28,-334.88 711.16,-329.86"/>
</g>
<!-- 12 -->
<g id="node5" class="node">
<title>12</title>
<polygon fill="none" stroke="black" points="893.5,-324 759.75,-324 759.75,-288 893.5,-288 893.5,-324"/>
<text text-anchor="middle" x="826.62" y="-301.32" font-family="Times,serif" font-size="14.00">valence_registry</text>
</g>
<!-- 2&#45;&gt;12 -->
<g id="edge3" class="edge">
<title>2&#45;&gt;12</title>
<path fill="none" stroke="black" d="M772.42,-359.7C780.9,-351.45 791.21,-341.43 800.56,-332.35"/>
<polygon fill="black" stroke="black" points="802.97,-334.88 807.7,-325.4 798.09,-329.86 802.97,-334.88"/>
</g>
<!-- 11 -->
<g id="node6" class="node">
<title>11</title>
<polygon fill="none" stroke="black" points="849.25,-252 660,-252 660,-216 849.25,-216 849.25,-252"/>
<text text-anchor="middle" x="754.62" y="-229.32" font-family="Times,serif" font-size="14.00">valence_server_common</text>
</g>
<!-- 3&#45;&gt;11 -->
<g id="edge4" class="edge">
<title>3&#45;&gt;11</title>
<path fill="none" stroke="black" d="M700.42,-287.7C708.9,-279.45 719.21,-269.43 728.56,-260.35"/>
<polygon fill="black" stroke="black" points="730.97,-262.88 735.7,-253.4 726.09,-257.86 730.97,-262.88"/>
</g>
<!-- 12&#45;&gt;11 -->
<g id="edge12" class="edge">
<title>12&#45;&gt;11</title>
<path fill="none" stroke="black" d="M808.83,-287.7C800.35,-279.45 790.04,-269.43 780.69,-260.35"/>
<polygon fill="black" stroke="black" points="783.16,-257.86 773.55,-253.4 778.28,-262.88 783.16,-257.86"/>
</g>
<!-- 7 -->
<g id="node10" class="node">
<title>7</title>
<polygon fill="none" stroke="black" points="672.25,-180 537,-180 537,-144 672.25,-144 672.25,-180"/>
<text text-anchor="middle" x="604.62" y="-157.32" font-family="Times,serif" font-size="14.00">valence_protocol</text>
</g>
<!-- 11&#45;&gt;7 -->
<g id="edge11" class="edge">
<title>11&#45;&gt;7</title>
<path fill="none" stroke="black" d="M717.16,-215.52C697.49,-206.34 673.17,-194.99 652.19,-185.2"/>
<polygon fill="black" stroke="black" points="653.79,-182.08 643.24,-181.02 650.82,-188.42 653.79,-182.08"/>
</g>
<!-- 4 -->
<g id="node7" class="node">
<title>4</title>
<polygon fill="none" stroke="black" points="533.38,-36 419.88,-36 419.88,0 533.38,0 533.38,-36"/>
<text text-anchor="middle" x="476.62" y="-13.32" font-family="Times,serif" font-size="14.00">valence_math</text>
</g>
<!-- 5 -->
<g id="node8" class="node">
<title>5</title>
<polygon fill="none" stroke="black" points="784,-36 683.25,-36 683.25,0 784,0 784,-36"/>
<text text-anchor="middle" x="733.62" y="-13.32" font-family="Times,serif" font-size="14.00">valence_nbt</text>
</g>
<!-- 6 -->
<g id="node9" class="node">
<title>6</title>
<polygon fill="none" stroke="black" points="665.38,-36 551.88,-36 551.88,0 665.38,0 665.38,-36"/>
<text text-anchor="middle" x="608.62" y="-13.32" font-family="Times,serif" font-size="14.00">valence_ident</text>
</g>
<!-- 8 -->
<g id="node11" class="node">
<title>8</title>
<polygon fill="none" stroke="black" points="607.38,-108 457.88,-108 457.88,-72 607.38,-72 607.38,-108"/>
<text text-anchor="middle" x="532.62" y="-85.33" font-family="Times,serif" font-size="14.00">valence_generated</text>
</g>
<!-- 7&#45;&gt;8 -->
<g id="edge5" class="edge">
<title>7&#45;&gt;8</title>
<path fill="none" stroke="black" d="M586.83,-143.7C578.35,-135.45 568.04,-125.43 558.69,-116.35"/>
<polygon fill="black" stroke="black" points="561.16,-113.86 551.55,-109.4 556.28,-118.88 561.16,-113.86"/>
</g>
<!-- 10 -->
<g id="node12" class="node">
<title>10</title>
<polygon fill="none" stroke="black" points="730.25,-108 625,-108 625,-72 730.25,-72 730.25,-108"/>
<text text-anchor="middle" x="677.62" y="-85.33" font-family="Times,serif" font-size="14.00">valence_text</text>
</g>
<!-- 7&#45;&gt;10 -->
<g id="edge6" class="edge">
<title>7&#45;&gt;10</title>
<path fill="none" stroke="black" d="M622.67,-143.7C631.36,-135.37 641.94,-125.22 651.48,-116.07"/>
<polygon fill="black" stroke="black" points="653.65,-118.84 658.44,-109.39 648.8,-113.79 653.65,-118.84"/>
</g>
<!-- 8&#45;&gt;4 -->
<g id="edge7" class="edge">
<title>8&#45;&gt;4</title>
<path fill="none" stroke="black" d="M518.78,-71.7C512.34,-63.64 504.54,-53.89 497.41,-44.98"/>
<polygon fill="black" stroke="black" points="500.23,-42.91 491.25,-37.29 494.77,-47.28 500.23,-42.91"/>
</g>
<!-- 8&#45;&gt;6 -->
<g id="edge8" class="edge">
<title>8&#45;&gt;6</title>
<path fill="none" stroke="black" d="M551.41,-71.7C560.45,-63.37 571.47,-53.22 581.41,-44.07"/>
<polygon fill="black" stroke="black" points="583.69,-46.72 588.68,-37.37 578.95,-41.57 583.69,-46.72"/>
</g>
<!-- 10&#45;&gt;5 -->
<g id="edge9" class="edge">
<title>10&#45;&gt;5</title>
<path fill="none" stroke="black" d="M691.47,-71.7C697.91,-63.64 705.71,-53.89 712.84,-44.98"/>
<polygon fill="black" stroke="black" points="715.48,-47.28 719,-37.29 710.02,-42.91 715.48,-47.28"/>
</g>
<!-- 10&#45;&gt;6 -->
<g id="edge10" class="edge">
<title>10&#45;&gt;6</title>
<path fill="none" stroke="black" d="M660.57,-71.7C652.38,-63.39 642.41,-53.28 633.41,-44.14"/>
<polygon fill="black" stroke="black" points="636.06,-41.85 626.55,-37.18 631.07,-46.76 636.06,-41.85"/>
</g>
<!-- 9 -->
<g id="node13" class="node">
<title>9</title>
<polygon fill="none" stroke="black" points="863.12,-684 712.12,-684 712.12,-648 863.12,-648 863.12,-684"/>
<text text-anchor="middle" x="787.62" y="-661.33" font-family="Times,serif" font-size="14.00">valence_build_utils</text>
</g>
<!-- 13 -->
<g id="node14" class="node">
<title>13</title>
<polygon fill="none" stroke="black" points="111.25,-468 0,-468 0,-432 111.25,-432 111.25,-468"/>
<text text-anchor="middle" x="55.62" y="-445.32" font-family="Times,serif" font-size="14.00">valence_anvil</text>
</g>
<!-- 13&#45;&gt;2 -->
<g id="edge13" class="edge">
<title>13&#45;&gt;2</title>
<path fill="none" stroke="black" stroke-dasharray="1,5" d="M111.51,-433.73C114.58,-433.1 117.64,-432.51 120.62,-432 321.86,-397.54 563.03,-385.21 681.55,-381.02"/>
<polygon fill="black" stroke="black" points="681.59,-384.52 691.47,-380.68 681.35,-377.53 681.59,-384.52"/>
</g>
<!-- 14 -->
<g id="node15" class="node">
<title>14</title>
<polygon fill="none" stroke="black" points="269.5,-468 129.75,-468 129.75,-432 269.5,-432 269.5,-468"/>
<text text-anchor="middle" x="199.62" y="-445.32" font-family="Times,serif" font-size="14.00">valence_boss_bar</text>
</g>
<!-- 14&#45;&gt;2 -->
<g id="edge14" class="edge">
<title>14&#45;&gt;2</title>
<path fill="none" stroke="black" d="M269.72,-433.36C272.38,-432.88 275.03,-432.43 277.62,-432 419.9,-408.66 587.76,-392.66 681.63,-384.74"/>
<polygon fill="black" stroke="black" points="681.8,-388.23 691.47,-383.91 681.21,-381.26 681.8,-388.23"/>
</g>
<!-- 15 -->
<g id="node16" class="node">
<title>15</title>
<polygon fill="none" stroke="black" points="495.38,-540 387.88,-540 387.88,-504 495.38,-504 495.38,-540"/>
<text text-anchor="middle" x="441.62" y="-517.33" font-family="Times,serif" font-size="14.00">valence_chat</text>
</g>
<!-- 16 -->
<g id="node17" class="node">
<title>16</title>
<polygon fill="none" stroke="black" points="726.38,-468 618.88,-468 618.88,-432 726.38,-432 726.38,-468"/>
<text text-anchor="middle" x="672.62" y="-445.32" font-family="Times,serif" font-size="14.00">valence_lang</text>
</g>
<!-- 15&#45;&gt;16 -->
<g id="edge15" class="edge">
<title>15&#45;&gt;16</title>
<path fill="none" stroke="black" d="M495.78,-504.59C529.26,-494.44 572.42,-481.37 607.72,-470.67"/>
<polygon fill="black" stroke="black" points="608.4,-474.12 616.96,-467.87 606.37,-467.42 608.4,-474.12"/>
</g>
<!-- 17 -->
<g id="node18" class="node">
<title>17</title>
<polygon fill="none" stroke="black" points="601.12,-468 450.12,-468 450.12,-432 601.12,-432 601.12,-468"/>
<text text-anchor="middle" x="525.62" y="-445.32" font-family="Times,serif" font-size="14.00">valence_player_list</text>
</g>
<!-- 15&#45;&gt;17 -->
<g id="edge16" class="edge">
<title>15&#45;&gt;17</title>
<path fill="none" stroke="black" d="M462.39,-503.7C472.59,-495.2 485.05,-484.81 496.21,-475.51"/>
<polygon fill="black" stroke="black" points="498.2,-478.41 503.65,-469.32 493.72,-473.03 498.2,-478.41"/>
</g>
<!-- 17&#45;&gt;2 -->
<g id="edge17" class="edge">
<title>17&#45;&gt;2</title>
<path fill="none" stroke="black" d="M582.82,-431.52C614.36,-421.88 653.72,-409.84 686.8,-399.73"/>
<polygon fill="black" stroke="black" points="687.77,-403.09 696.31,-396.82 685.73,-396.4 687.77,-403.09"/>
</g>
<!-- 18 -->
<g id="node19" class="node">
<title>18</title>
<polygon fill="none" stroke="black" points="432.12,-468 287.12,-468 287.12,-432 432.12,-432 432.12,-468"/>
<text text-anchor="middle" x="359.62" y="-445.32" font-family="Times,serif" font-size="14.00">valence_inventory</text>
</g>
<!-- 18&#45;&gt;2 -->
<g id="edge18" class="edge">
<title>18&#45;&gt;2</title>
<path fill="none" stroke="black" d="M432.46,-433.57C435.21,-433.03 437.94,-432.51 440.62,-432 523.13,-416.39 618.26,-400.64 681.99,-390.42"/>
<polygon fill="black" stroke="black" points="682.31,-393.92 691.63,-388.88 681.2,-387 682.31,-393.92"/>
</g>
<!-- 19 -->
<g id="node20" class="node">
<title>19</title>
<polygon fill="none" stroke="black" points="648.25,-540 513,-540 513,-504 648.25,-504 648.25,-540"/>
<text text-anchor="middle" x="580.62" y="-517.33" font-family="Times,serif" font-size="14.00">valence_network</text>
</g>
<!-- 19&#45;&gt;2 -->
<g id="edge19" class="edge">
<title>19&#45;&gt;2</title>
<path fill="none" stroke="black" d="M648.65,-504.83C684.49,-494.97 723.5,-481.67 735.62,-468 750.15,-451.64 754.52,-426.94 755.47,-407.71"/>
<polygon fill="black" stroke="black" points="758.97,-407.86 755.65,-397.8 751.97,-407.73 758.97,-407.86"/>
</g>
<!-- 19&#45;&gt;16 -->
<g id="edge20" class="edge">
<title>19&#45;&gt;16</title>
<path fill="none" stroke="black" d="M603.37,-503.7C614.65,-495.11 628.46,-484.61 640.77,-475.24"/>
<polygon fill="black" stroke="black" points="642.78,-478.1 648.62,-469.26 638.54,-472.53 642.78,-478.1"/>
</g>
<!-- 20 -->
<g id="node21" class="node">
<title>20</title>
<polygon fill="none" stroke="black" points="822.75,-540 666.5,-540 666.5,-504 822.75,-504 822.75,-540"/>
<text text-anchor="middle" x="744.62" y="-517.33" font-family="Times,serif" font-size="14.00">valence_scoreboard</text>
</g>
<!-- 20&#45;&gt;2 -->
<g id="edge21" class="edge">
<title>20&#45;&gt;2</title>
<path fill="none" stroke="black" d="M754.83,-503.5C760.08,-493.47 765.94,-480.44 768.62,-468 772.99,-447.78 769.11,-424.7 764.34,-407.11"/>
<polygon fill="black" stroke="black" points="767.72,-406.2 761.5,-397.62 761.01,-408.2 767.72,-406.2"/>
</g>
<!-- 21 -->
<g id="node22" class="node">
<title>21</title>
<polygon fill="none" stroke="black" points="1006,-684 881.25,-684 881.25,-648 1006,-648 1006,-684"/>
<text text-anchor="middle" x="943.62" y="-661.33" font-family="Times,serif" font-size="14.00">valence_spatial</text>
</g>
<!-- 22 -->
<g id="node23" class="node">
<title>22</title>
<polygon fill="none" stroke="black" points="976.25,-540 841,-540 841,-504 976.25,-504 976.25,-540"/>
<text text-anchor="middle" x="908.62" y="-517.33" font-family="Times,serif" font-size="14.00">valence_weather</text>
</g>
<!-- 22&#45;&gt;2 -->
<g id="edge22" class="edge">
<title>22&#45;&gt;2</title>
<path fill="none" stroke="black" d="M889.74,-503.59C862.58,-478.54 812.34,-432.22 781.37,-403.66"/>
<polygon fill="black" stroke="black" points="784.02,-401.34 774.29,-397.14 779.27,-406.49 784.02,-401.34"/>
</g>
<!-- 23 -->
<g id="node24" class="node">
<title>23</title>
<polygon fill="none" stroke="black" points="1166.62,-540 994.62,-540 994.62,-504 1166.62,-504 1166.62,-540"/>
<text text-anchor="middle" x="1080.62" y="-517.33" font-family="Times,serif" font-size="14.00">valence_world_border</text>
</g>
<!-- 23&#45;&gt;2 -->
<g id="edge23" class="edge">
<title>23&#45;&gt;2</title>
<path fill="none" stroke="black" d="M1040.65,-503.59C981.3,-477.74 869.93,-429.22 805.06,-400.97"/>
<polygon fill="black" stroke="black" points="806.62,-397.83 796.06,-397.05 803.83,-404.25 806.62,-397.83"/>
</g>
<!-- 24 -->
<g id="node25" class="node">
<title>24</title>
<polygon fill="none" stroke="black" points="578.75,-684 452.5,-684 452.5,-648 578.75,-648 578.75,-684"/>
<text text-anchor="middle" x="515.62" y="-661.33" font-family="Times,serif" font-size="14.00">dump_schedule</text>
</g>
<!-- 25 -->
<g id="node26" class="node">
<title>25</title>
<polygon fill="none" stroke="black" points="615.62,-612 545.62,-612 545.62,-576 615.62,-576 615.62,-612"/>
<text text-anchor="middle" x="580.62" y="-589.33" font-family="Times,serif" font-size="14.00">valence</text>
</g>
<!-- 24&#45;&gt;25 -->
<g id="edge24" class="edge">
<title>24&#45;&gt;25</title>
<path fill="none" stroke="black" d="M531.69,-647.7C539.33,-639.47 548.6,-629.48 557.02,-620.42"/>
<polygon fill="black" stroke="black" points="559.47,-622.92 563.71,-613.21 554.34,-618.16 559.47,-622.92"/>
</g>
<!-- 25&#45;&gt;1 -->
<g id="edge25" class="edge">
<title>25&#45;&gt;1</title>
<path fill="none" stroke="black" stroke-dasharray="1,5" d="M616.04,-592.56C738.38,-590.69 1137.74,-581.41 1175.62,-540 1190.52,-523.72 1184.75,-498.35 1176.56,-478.85"/>
<polygon fill="black" stroke="black" points="1179.75,-477.42 1172.37,-469.82 1173.4,-480.37 1179.75,-477.42"/>
</g>
<!-- 25&#45;&gt;13 -->
<g id="edge26" class="edge">
<title>25&#45;&gt;13</title>
<path fill="none" stroke="black" stroke-dasharray="1,5" d="M545.37,-588.98C489.24,-582.07 376.39,-566.11 283.62,-540 220.01,-522.09 149.53,-493.09 104.02,-473.09"/>
<polygon fill="black" stroke="black" points="105.51,-469.92 94.95,-469.08 102.68,-476.33 105.51,-469.92"/>
</g>
<!-- 25&#45;&gt;14 -->
<g id="edge27" class="edge">
<title>25&#45;&gt;14</title>
<path fill="none" stroke="black" stroke-dasharray="1,5" d="M545.5,-587.7C500.96,-580.29 422.29,-564.87 358.62,-540 313.95,-522.55 266.43,-494.56 235.1,-474.63"/>
<polygon fill="black" stroke="black" points="237.1,-471.75 226.8,-469.29 233.31,-477.64 237.1,-471.75"/>
</g>
<!-- 25&#45;&gt;15 -->
<g id="edge28" class="edge">
<title>25&#45;&gt;15</title>
<path fill="none" stroke="black" stroke-dasharray="1,5" d="M545.91,-575.52C527.78,-566.39 505.39,-555.11 486.01,-545.35"/>
<polygon fill="black" stroke="black" points="487.76,-542.31 477.25,-540.94 484.61,-548.57 487.76,-542.31"/>
</g>
<!-- 25&#45;&gt;18 -->
<g id="edge29" class="edge">
<title>25&#45;&gt;18</title>
<path fill="none" stroke="black" stroke-dasharray="1,5" d="M545.46,-588.26C493.89,-580.58 401.41,-563.86 378.62,-540 363.36,-524.01 359.1,-498.9 358.38,-479.43"/>
<polygon fill="black" stroke="black" points="361.89,-479.65 358.34,-469.67 354.89,-479.69 361.89,-479.65"/>
</g>
<!-- 25&#45;&gt;19 -->
<g id="edge30" class="edge">
<title>25&#45;&gt;19</title>
<path fill="none" stroke="black" stroke-dasharray="1,5" d="M580.62,-575.7C580.62,-568.41 580.62,-559.73 580.62,-551.54"/>
<polygon fill="black" stroke="black" points="584.13,-551.62 580.63,-541.62 577.13,-551.62 584.13,-551.62"/>
</g>
<!-- 25&#45;&gt;20 -->
<g id="edge31" class="edge">
<title>25&#45;&gt;20</title>
<path fill="none" stroke="black" stroke-dasharray="1,5" d="M615.81,-577.98C638.37,-568.35 668.05,-555.68 693.23,-544.94"/>
<polygon fill="black" stroke="black" points="694.5,-548.2 702.32,-541.06 691.75,-541.76 694.5,-548.2"/>
</g>
<!-- 25&#45;&gt;22 -->
<g id="edge32" class="edge">
<title>25&#45;&gt;22</title>
<path fill="none" stroke="black" stroke-dasharray="1,5" d="M615.98,-585.64C662.5,-575.94 747.11,-558.2 829.53,-540.44"/>
<polygon fill="black" stroke="black" points="830.1,-543.9 839.13,-538.37 828.62,-537.06 830.1,-543.9"/>
</g>
<!-- 25&#45;&gt;23 -->
<g id="edge33" class="edge">
<title>25&#45;&gt;23</title>
<path fill="none" stroke="black" stroke-dasharray="1,5" d="M615.92,-588.95C684.56,-580.94 841.11,-562.09 983.12,-540.35"/>
<polygon fill="black" stroke="black" points="983.34,-543.86 992.69,-538.88 982.27,-536.94 983.34,-543.86"/>
</g>
<!-- 26 -->
<g id="node27" class="node">
<title>26</title>
<polygon fill="none" stroke="black" points="549,-252 412.25,-252 412.25,-216 549,-216 549,-252"/>
<text text-anchor="middle" x="480.62" y="-229.32" font-family="Times,serif" font-size="14.00">packet_inspector</text>
</g>
<!-- 26&#45;&gt;7 -->
<g id="edge34" class="edge">
<title>26&#45;&gt;7</title>
<path fill="none" stroke="black" d="M511.6,-215.52C527.55,-206.51 547.19,-195.42 564.31,-185.76"/>
<polygon fill="black" stroke="black" points="565.74,-188.97 572.73,-181 562.3,-182.87 565.74,-188.97"/>
</g>
<!-- 27 -->
<g id="node28" class="node">
<title>27</title>
<polygon fill="none" stroke="black" points="694.12,-684 597.12,-684 597.12,-648 694.12,-648 694.12,-684"/>
<text text-anchor="middle" x="645.62" y="-661.33" font-family="Times,serif" font-size="14.00">playground</text>
</g>
<!-- 27&#45;&gt;25 -->
<g id="edge35" class="edge">
<title>27&#45;&gt;25</title>
<path fill="none" stroke="black" d="M629.56,-647.7C621.92,-639.47 612.65,-629.48 604.23,-620.42"/>
<polygon fill="black" stroke="black" points="606.91,-618.16 597.54,-613.21 601.78,-622.92 606.91,-618.16"/>
</g>
<!-- 28 -->
<g id="node29" class="node">
<title>28</title>
<polygon fill="none" stroke="black" points="641.88,-252 567.38,-252 567.38,-216 641.88,-216 641.88,-252"/>
<text text-anchor="middle" x="604.62" y="-229.32" font-family="Times,serif" font-size="14.00">stresser</text>
</g>
<!-- 28&#45;&gt;7 -->
<g id="edge36" class="edge">
<title>28&#45;&gt;7</title>
<path fill="none" stroke="black" d="M604.62,-215.7C604.62,-208.41 604.62,-199.73 604.62,-191.54"/>
<polygon fill="black" stroke="black" points="608.13,-191.62 604.63,-181.62 601.13,-191.62 608.13,-191.62"/>
</g>
</g>
</svg>
