<?xml version="1.0" encoding="UTF-8" standalone="no"?>
<!DOCTYPE svg PUBLIC "-//W3C//DTD SVG 1.1//EN"
 "http://www.w3.org/Graphics/SVG/1.1/DTD/svg11.dtd">
<!-- Generated by graphviz version 2.43.0 (0)
 -->
<!-- Title: %3 Pages: 1 -->
<svg width="1644pt" height="620pt"
 viewBox="0.00 0.00 1643.50 620.00" xmlns="http://www.w3.org/2000/svg" xmlns:xlink="http://www.w3.org/1999/xlink">
<g id="graph0" class="graph" transform="scale(1 1) rotate(0) translate(4 616)">
<title>%3</title>
<polygon fill="white" stroke="transparent" points="-4,4 -4,-616 1639.5,-616 1639.5,4 -4,4"/>
<!-- 0 -->
<g id="node1" class="node">
<title>0</title>
<polygon fill="none" stroke="black" points="173,-468 0,-468 0,-432 173,-432 173,-468"/>
<text text-anchor="middle" x="86.5" y="-446.3" font-family="Times,serif" font-size="14.00">valence_advancement</text>
</g>
<!-- 1 -->
<g id="node2" class="node">
<title>1</title>
<polygon fill="none" stroke="black" points="862,-396 739,-396 739,-360 862,-360 862,-396"/>
<text text-anchor="middle" x="800.5" y="-374.3" font-family="Times,serif" font-size="14.00">valence_server</text>
</g>
<!-- 0&#45;&gt;1 -->
<g id="edge1" class="edge">
<title>0&#45;&gt;1</title>
<path fill="none" stroke="black" d="M173.05,-433.3C176.24,-432.84 179.4,-432.41 182.5,-432 379.42,-406.17 613.37,-390.05 728.78,-383.06"/>
<polygon fill="black" stroke="black" points="729.13,-386.54 738.9,-382.45 728.71,-379.55 729.13,-386.54"/>
</g>
<!-- 2 -->
<g id="node3" class="node">
<title>2</title>
<polygon fill="none" stroke="black" points="788,-324 669,-324 669,-288 788,-288 788,-324"/>
<text text-anchor="middle" x="728.5" y="-302.3" font-family="Times,serif" font-size="14.00">valence_entity</text>
</g>
<!-- 1&#45;&gt;2 -->
<g id="edge2" class="edge">
<title>1&#45;&gt;2</title>
<path fill="none" stroke="black" d="M782.7,-359.7C773.9,-351.14 763.12,-340.66 753.5,-331.3"/>
<polygon fill="black" stroke="black" points="755.7,-328.57 746.09,-324.1 750.82,-333.58 755.7,-328.57"/>
</g>
<!-- 11 -->
<g id="node4" class="node">
<title>11</title>
<polygon fill="none" stroke="black" points="940.5,-324 806.5,-324 806.5,-288 940.5,-288 940.5,-324"/>
<text text-anchor="middle" x="873.5" y="-302.3" font-family="Times,serif" font-size="14.00">valence_registry</text>
</g>
<!-- 1&#45;&gt;11 -->
<g id="edge3" class="edge">
<title>1&#45;&gt;11</title>
<path fill="none" stroke="black" d="M818.54,-359.7C827.56,-351.05 838.62,-340.45 848.44,-331.03"/>
<polygon fill="black" stroke="black" points="850.87,-333.55 855.66,-324.1 846.02,-328.5 850.87,-333.55"/>
</g>
<!-- 10 -->
<g id="node5" class="node">
<title>10</title>
<polygon fill="none" stroke="black" points="896.5,-252 706.5,-252 706.5,-216 896.5,-216 896.5,-252"/>
<text text-anchor="middle" x="801.5" y="-230.3" font-family="Times,serif" font-size="14.00">valence_server_common</text>
</g>
<!-- 2&#45;&gt;10 -->
<g id="edge4" class="edge">
<title>2&#45;&gt;10</title>
<path fill="none" stroke="black" d="M746.54,-287.7C755.56,-279.05 766.62,-268.45 776.44,-259.03"/>
<polygon fill="black" stroke="black" points="778.87,-261.55 783.66,-252.1 774.02,-256.5 778.87,-261.55"/>
</g>
<!-- 11&#45;&gt;10 -->
<g id="edge12" class="edge">
<title>11&#45;&gt;10</title>
<path fill="none" stroke="black" d="M855.7,-287.7C846.9,-279.14 836.12,-268.66 826.5,-259.3"/>
<polygon fill="black" stroke="black" points="828.7,-256.57 819.09,-252.1 823.82,-261.58 828.7,-256.57"/>
</g>
<!-- 6 -->
<g id="node9" class="node">
<title>6</title>
<polygon fill="none" stroke="black" points="718.5,-180 582.5,-180 582.5,-144 718.5,-144 718.5,-180"/>
<text text-anchor="middle" x="650.5" y="-158.3" font-family="Times,serif" font-size="14.00">valence_protocol</text>
</g>
<!-- 10&#45;&gt;6 -->
<g id="edge11" class="edge">
<title>10&#45;&gt;6</title>
<path fill="none" stroke="black" d="M764.56,-215.88C744.01,-206.35 718.25,-194.41 696.41,-184.28"/>
<polygon fill="black" stroke="black" points="697.86,-181.1 687.32,-180.07 694.92,-187.45 697.86,-181.1"/>
</g>
<!-- 3 -->
<g id="node6" class="node">
<title>3</title>
<polygon fill="none" stroke="black" points="578.5,-36 464.5,-36 464.5,0 578.5,0 578.5,-36"/>
<text text-anchor="middle" x="521.5" y="-14.3" font-family="Times,serif" font-size="14.00">valence_math</text>
</g>
<!-- 4 -->
<g id="node7" class="node">
<title>4</title>
<polygon fill="none" stroke="black" points="830,-36 729,-36 729,0 830,0 830,-36"/>
<text text-anchor="middle" x="779.5" y="-14.3" font-family="Times,serif" font-size="14.00">valence_nbt</text>
</g>
<!-- 5 -->
<g id="node8" class="node">
<title>5</title>
<polygon fill="none" stroke="black" points="710.5,-36 596.5,-36 596.5,0 710.5,0 710.5,-36"/>
<text text-anchor="middle" x="653.5" y="-14.3" font-family="Times,serif" font-size="14.00">valence_ident</text>
</g>
<!-- 7 -->
<g id="node10" class="node">
<title>7</title>
<polygon fill="none" stroke="black" points="652.5,-108 502.5,-108 502.5,-72 652.5,-72 652.5,-108"/>
<text text-anchor="middle" x="577.5" y="-86.3" font-family="Times,serif" font-size="14.00">valence_generated</text>
</g>
<!-- 6&#45;&gt;7 -->
<g id="edge5" class="edge">
<title>6&#45;&gt;7</title>
<path fill="none" stroke="black" d="M632.46,-143.7C623.44,-135.05 612.38,-124.45 602.56,-115.03"/>
<polygon fill="black" stroke="black" points="604.98,-112.5 595.34,-108.1 600.13,-117.55 604.98,-112.5"/>
</g>
<!-- 9 -->
<g id="node11" class="node">
<title>9</title>
<polygon fill="none" stroke="black" points="776.5,-108 670.5,-108 670.5,-72 776.5,-72 776.5,-108"/>
<text text-anchor="middle" x="723.5" y="-86.3" font-family="Times,serif" font-size="14.00">valence_text</text>
</g>
<!-- 6&#45;&gt;9 -->
<g id="edge6" class="edge">
<title>6&#45;&gt;9</title>
<path fill="none" stroke="black" d="M668.54,-143.7C677.56,-135.05 688.62,-124.45 698.44,-115.03"/>
<polygon fill="black" stroke="black" points="700.87,-117.55 705.66,-108.1 696.02,-112.5 700.87,-117.55"/>
</g>
<!-- 7&#45;&gt;3 -->
<g id="edge7" class="edge">
<title>7&#45;&gt;3</title>
<path fill="none" stroke="black" d="M563.66,-71.7C557.01,-63.39 548.92,-53.28 541.61,-44.14"/>
<polygon fill="black" stroke="black" points="544.16,-41.73 535.18,-36.1 538.7,-46.1 544.16,-41.73"/>
</g>
<!-- 7&#45;&gt;5 -->
<g id="edge8" class="edge">
<title>7&#45;&gt;5</title>
<path fill="none" stroke="black" d="M596.29,-71.7C605.67,-63.05 617.18,-52.45 627.41,-43.03"/>
<polygon fill="black" stroke="black" points="629.95,-45.45 634.93,-36.1 625.2,-40.3 629.95,-45.45"/>
</g>
<!-- 9&#45;&gt;4 -->
<g id="edge9" class="edge">
<title>9&#45;&gt;4</title>
<path fill="none" stroke="black" d="M737.34,-71.7C743.99,-63.39 752.08,-53.28 759.39,-44.14"/>
<polygon fill="black" stroke="black" points="762.3,-46.1 765.82,-36.1 756.84,-41.73 762.3,-46.1"/>
</g>
<!-- 9&#45;&gt;5 -->
<g id="edge10" class="edge">
<title>9&#45;&gt;5</title>
<path fill="none" stroke="black" d="M706.2,-71.7C697.64,-63.14 687.16,-52.66 677.8,-43.3"/>
<polygon fill="black" stroke="black" points="680.15,-40.7 670.6,-36.1 675.2,-45.65 680.15,-40.7"/>
</g>
<!-- 8 -->
<g id="node12" class="node">
<title>8</title>
<polygon fill="none" stroke="black" points="1084.5,-612 932.5,-612 932.5,-576 1084.5,-576 1084.5,-612"/>
<text text-anchor="middle" x="1008.5" y="-590.3" font-family="Times,serif" font-size="14.00">valence_build_utils</text>
</g>
<!-- 12 -->
<g id="node13" class="node">
<title>12</title>
<polygon fill="none" stroke="black" points="303.5,-468 191.5,-468 191.5,-432 303.5,-432 303.5,-468"/>
<text text-anchor="middle" x="247.5" y="-446.3" font-family="Times,serif" font-size="14.00">valence_anvil</text>
</g>
<!-- 12&#45;&gt;1 -->
<g id="edge13" class="edge">
<title>12&#45;&gt;1</title>
<path fill="none" stroke="black" stroke-dasharray="1,5" d="M303.76,-433.74C306.7,-433.11 309.63,-432.53 312.5,-432 459.07,-405.03 633.12,-390.17 728.7,-383.47"/>
<polygon fill="black" stroke="black" points="729.1,-386.95 738.83,-382.77 728.62,-379.97 729.1,-386.95"/>
</g>
<!-- 13 -->
<g id="node14" class="node">
<title>13</title>
<polygon fill="none" stroke="black" points="461.5,-468 321.5,-468 321.5,-432 461.5,-432 461.5,-468"/>
<text text-anchor="middle" x="391.5" y="-446.3" font-family="Times,serif" font-size="14.00">valence_boss_bar</text>
</g>
<!-- 13&#45;&gt;1 -->
<g id="edge14" class="edge">
<title>13&#45;&gt;1</title>
<path fill="none" stroke="black" d="M461.67,-433.7C464.65,-433.11 467.6,-432.54 470.5,-432 559.19,-415.35 661.91,-399.37 728.88,-389.39"/>
<polygon fill="black" stroke="black" points="729.53,-392.83 738.9,-387.9 728.5,-385.91 729.53,-392.83"/>
</g>
<!-- 14 -->
<g id="node15" class="node">
<title>14</title>
<polygon fill="none" stroke="black" points="625.5,-468 479.5,-468 479.5,-432 625.5,-432 625.5,-468"/>
<text text-anchor="middle" x="552.5" y="-446.3" font-family="Times,serif" font-size="14.00">valence_command</text>
</g>
<!-- 14&#45;&gt;1 -->
<g id="edge15" class="edge">
<title>14&#45;&gt;1</title>
<path fill="none" stroke="black" d="M612.85,-431.97C648.25,-421.97 693.16,-409.3 730.16,-398.85"/>
<polygon fill="black" stroke="black" points="731.21,-402.2 739.88,-396.11 729.3,-395.46 731.21,-402.2"/>
</g>
<!-- 15 -->
<g id="node16" class="node">
<title>15</title>
<polygon fill="none" stroke="black" points="789.5,-468 643.5,-468 643.5,-432 789.5,-432 789.5,-468"/>
<text text-anchor="middle" x="716.5" y="-446.3" font-family="Times,serif" font-size="14.00">valence_inventory</text>
</g>
<!-- 15&#45;&gt;1 -->
<g id="edge16" class="edge">
<title>15&#45;&gt;1</title>
<path fill="none" stroke="black" d="M737.26,-431.7C747.74,-422.97 760.61,-412.24 772,-402.75"/>
<polygon fill="black" stroke="black" points="774.53,-405.19 779.97,-396.1 770.05,-399.82 774.53,-405.19"/>
</g>
<!-- 16 -->
<g id="node17" class="node">
<title>16</title>
<polygon fill="none" stroke="black" points="1621.5,-396 1513.5,-396 1513.5,-360 1621.5,-360 1621.5,-396"/>
<text text-anchor="middle" x="1567.5" y="-374.3" font-family="Times,serif" font-size="14.00">valence_lang</text>
</g>
<!-- 17 -->
<g id="node18" class="node">
<title>17</title>
<polygon fill="none" stroke="black" points="1635.5,-468 1499.5,-468 1499.5,-432 1635.5,-432 1635.5,-468"/>
<text text-anchor="middle" x="1567.5" y="-446.3" font-family="Times,serif" font-size="14.00">valence_network</text>
</g>
<!-- 17&#45;&gt;1 -->
<g id="edge17" class="edge">
<title>17&#45;&gt;1</title>
<path fill="none" stroke="black" d="M1499.16,-433.39C1496.24,-432.89 1493.34,-432.42 1490.5,-432 1266.53,-398.84 998.39,-385.78 872.49,-381.2"/>
<polygon fill="black" stroke="black" points="872.33,-377.69 862.21,-380.83 872.08,-384.68 872.33,-377.69"/>
</g>
<!-- 17&#45;&gt;16 -->
<g id="edge18" class="edge">
<title>17&#45;&gt;16</title>
<path fill="none" stroke="black" d="M1567.5,-431.7C1567.5,-423.98 1567.5,-414.71 1567.5,-406.11"/>
<polygon fill="black" stroke="black" points="1571,-406.1 1567.5,-396.1 1564,-406.1 1571,-406.1"/>
</g>
<!-- 18 -->
<g id="node19" class="node">
<title>18</title>
<polygon fill="none" stroke="black" points="959.5,-468 807.5,-468 807.5,-432 959.5,-432 959.5,-468"/>
<text text-anchor="middle" x="883.5" y="-446.3" font-family="Times,serif" font-size="14.00">valence_player_list</text>
</g>
<!-- 18&#45;&gt;1 -->
<g id="edge19" class="edge">
<title>18&#45;&gt;1</title>
<path fill="none" stroke="black" d="M862.98,-431.7C852.63,-422.97 839.91,-412.24 828.66,-402.75"/>
<polygon fill="black" stroke="black" points="830.68,-399.88 820.78,-396.1 826.17,-405.23 830.68,-399.88"/>
</g>
<!-- 19 -->
<g id="node20" class="node">
<title>19</title>
<polygon fill="none" stroke="black" points="1135,-468 978,-468 978,-432 1135,-432 1135,-468"/>
<text text-anchor="middle" x="1056.5" y="-446.3" font-family="Times,serif" font-size="14.00">valence_scoreboard</text>
</g>
<!-- 19&#45;&gt;1 -->
<g id="edge20" class="edge">
<title>19&#45;&gt;1</title>
<path fill="none" stroke="black" d="M994.2,-431.97C957.38,-421.9 910.62,-409.11 872.26,-398.62"/>
<polygon fill="black" stroke="black" points="872.76,-395.13 862.19,-395.87 870.91,-401.88 872.76,-395.13"/>
</g>
<!-- 20 -->
<g id="node21" class="node">
<title>20</title>
<polygon fill="none" stroke="black" points="1228,-612 1103,-612 1103,-576 1228,-576 1228,-612"/>
<text text-anchor="middle" x="1165.5" y="-590.3" font-family="Times,serif" font-size="14.00">valence_spatial</text>
</g>
<!-- 21 -->
<g id="node22" class="node">
<title>21</title>
<polygon fill="none" stroke="black" points="1289.5,-468 1153.5,-468 1153.5,-432 1289.5,-432 1289.5,-468"/>
<text text-anchor="middle" x="1221.5" y="-446.3" font-family="Times,serif" font-size="14.00">valence_weather</text>
</g>
<!-- 21&#45;&gt;1 -->
<g id="edge21" class="edge">
<title>21&#45;&gt;1</title>
<path fill="none" stroke="black" d="M1153.11,-433.66C1150.21,-433.09 1147.33,-432.53 1144.5,-432 1050.81,-414.46 941.97,-398.41 872.22,-388.68"/>
<polygon fill="black" stroke="black" points="872.61,-385.2 862.22,-387.29 871.65,-392.13 872.61,-385.2"/>
</g>
<!-- 22 -->
<g id="node23" class="node">
<title>22</title>
<polygon fill="none" stroke="black" points="1481,-468 1308,-468 1308,-432 1481,-432 1481,-468"/>
<text text-anchor="middle" x="1394.5" y="-446.3" font-family="Times,serif" font-size="14.00">valence_world_border</text>
</g>
<!-- 22&#45;&gt;1 -->
<g id="edge22" class="edge">
<title>22&#45;&gt;1</title>
<path fill="none" stroke="black" d="M1307.94,-433.39C1304.75,-432.9 1301.6,-432.44 1298.5,-432 1147.18,-410.58 968.87,-393.58 871.98,-385.04"/>
<polygon fill="black" stroke="black" points="872.27,-381.55 862,-384.16 871.66,-388.53 872.27,-381.55"/>
</g>
<!-- 23 -->
<g id="node24" class="node">
<title>23</title>
<polygon fill="none" stroke="black" points="798,-612 671,-612 671,-576 798,-576 798,-612"/>
<text text-anchor="middle" x="734.5" y="-590.3" font-family="Times,serif" font-size="14.00">dump_schedule</text>
</g>
<!-- 24 -->
<g id="node25" class="node">
<title>24</title>
<polygon fill="none" stroke="black" points="835,-540 764,-540 764,-504 835,-504 835,-540"/>
<text text-anchor="middle" x="799.5" y="-518.3" font-family="Times,serif" font-size="14.00">valence</text>
</g>
<!-- 23&#45;&gt;24 -->
<g id="edge23" class="edge">
<title>23&#45;&gt;24</title>
<path fill="none" stroke="black" d="M750.57,-575.7C758.44,-567.22 768.06,-556.86 776.67,-547.58"/>
<polygon fill="black" stroke="black" points="779.38,-549.81 783.62,-540.1 774.25,-545.05 779.38,-549.81"/>
</g>
<!-- 24&#45;&gt;0 -->
<g id="edge24" class="edge">
<title>24&#45;&gt;0</title>
<path fill="none" stroke="black" stroke-dasharray="1,5" d="M763.91,-519.06C670.48,-513.74 410.4,-497.37 183.16,-468.01"/>
<polygon fill="black" stroke="black" points="183.42,-464.52 173.05,-466.69 182.52,-471.46 183.42,-464.52"/>
</g>
<!-- 24&#45;&gt;12 -->
<g id="edge25" class="edge">
<title>24&#45;&gt;12</title>
<path fill="none" stroke="black" stroke-dasharray="1,5" d="M763.8,-518.92C684.47,-513.92 487.48,-499.37 313.84,-468.1"/>
<polygon fill="black" stroke="black" points="314.22,-464.61 303.76,-466.26 312.97,-471.49 314.22,-464.61"/>
</g>
<!-- 24&#45;&gt;13 -->
<g id="edge26" class="edge">
<title>24&#45;&gt;13</title>
<path fill="none" stroke="black" stroke-dasharray="1,5" d="M763.85,-515.88C705.14,-507.31 584.18,-489.1 471.82,-468.2"/>
<polygon fill="black" stroke="black" points="472.15,-464.7 461.67,-466.3 470.86,-471.58 472.15,-464.7"/>
</g>
<!-- 24&#45;&gt;14 -->
<g id="edge27" class="edge">
<title>24&#45;&gt;14</title>
<path fill="none" stroke="black" stroke-dasharray="1,5" d="M763.85,-510.9C726.93,-500.43 668.29,-483.82 622.14,-470.74"/>
<polygon fill="black" stroke="black" points="623.07,-467.36 612.49,-468 621.16,-474.1 623.07,-467.36"/>
</g>
<!-- 24&#45;&gt;15 -->
<g id="edge28" class="edge">
<title>24&#45;&gt;15</title>
<path fill="none" stroke="black" stroke-dasharray="1,5" d="M778.98,-503.7C768.63,-494.97 755.91,-484.24 744.66,-474.75"/>
<polygon fill="black" stroke="black" points="746.68,-471.88 736.78,-468.1 742.17,-477.23 746.68,-471.88"/>
</g>
<!-- 24&#45;&gt;17 -->
<g id="edge29" class="edge">
<title>24&#45;&gt;17</title>
<path fill="none" stroke="black" stroke-dasharray="1,5" d="M835.3,-520.03C936.52,-516.91 1233.48,-505.17 1488.94,-468.11"/>
<polygon fill="black" stroke="black" points="1489.77,-471.53 1499.16,-466.61 1488.76,-464.6 1489.77,-471.53"/>
</g>
<!-- 24&#45;&gt;18 -->
<g id="edge30" class="edge">
<title>24&#45;&gt;18</title>
<path fill="none" stroke="black" stroke-dasharray="1,5" d="M820.26,-503.7C830.74,-494.97 843.61,-484.24 855,-474.75"/>
<polygon fill="black" stroke="black" points="857.53,-477.19 862.97,-468.1 853.05,-471.82 857.53,-477.19"/>
</g>
<!-- 24&#45;&gt;19 -->
<g id="edge31" class="edge">
<title>24&#45;&gt;19</title>
<path fill="none" stroke="black" stroke-dasharray="1,5" d="M835.23,-511.27C873.56,-500.83 935.45,-483.97 984.05,-470.73"/>
<polygon fill="black" stroke="black" points="985.16,-474.06 993.89,-468.05 983.32,-467.31 985.16,-474.06"/>
</g>
<!-- 24&#45;&gt;21 -->
<g id="edge32" class="edge">
<title>24&#45;&gt;21</title>
<path fill="none" stroke="black" stroke-dasharray="1,5" d="M835.39,-516.27C896.52,-508.04 1024.94,-490.02 1143.17,-468.19"/>
<polygon fill="black" stroke="black" points="1143.92,-471.61 1153.11,-466.34 1142.64,-464.73 1143.92,-471.61"/>
</g>
<!-- 24&#45;&gt;22 -->
<g id="edge33" class="edge">
<title>24&#45;&gt;22</title>
<path fill="none" stroke="black" stroke-dasharray="1,5" d="M835.3,-518.06C915.94,-511.25 1118.07,-493.14 1298.03,-468.01"/>
<polygon fill="black" stroke="black" points="1298.52,-471.47 1307.94,-466.61 1297.55,-464.54 1298.52,-471.47"/>
</g>
<!-- 25 -->
<g id="node26" class="node">
<title>25</title>
<polygon fill="none" stroke="black" points="595,-252 458,-252 458,-216 595,-216 595,-252"/>
<text text-anchor="middle" x="526.5" y="-230.3" font-family="Times,serif" font-size="14.00">packet_inspector</text>
</g>
<!-- 25&#45;&gt;6 -->
<g id="edge34" class="edge">
<title>25&#45;&gt;6</title>
<path fill="none" stroke="black" d="M556.83,-215.88C573.2,-206.64 593.58,-195.13 611.15,-185.21"/>
<polygon fill="black" stroke="black" points="613.06,-188.15 620.05,-180.19 609.62,-182.06 613.06,-188.15"/>
</g>
<!-- 26 -->
<g id="node27" class="node">
<title>26</title>
<polygon fill="none" stroke="black" points="914.5,-612 816.5,-612 816.5,-576 914.5,-576 914.5,-612"/>
<text text-anchor="middle" x="865.5" y="-590.3" font-family="Times,serif" font-size="14.00">playground</text>
</g>
<!-- 26&#45;&gt;24 -->
<g id="edge35" class="edge">
<title>26&#45;&gt;24</title>
<path fill="none" stroke="black" d="M849.19,-575.7C841.19,-567.22 831.43,-556.86 822.68,-547.58"/>
<polygon fill="black" stroke="black" points="825.03,-544.98 815.63,-540.1 819.94,-549.78 825.03,-544.98"/>
</g>
<!-- 27 -->
<g id="node28" class="node">
<title>27</title>
<polygon fill="none" stroke="black" points="688,-252 613,-252 613,-216 688,-216 688,-252"/>
<text text-anchor="middle" x="650.5" y="-230.3" font-family="Times,serif" font-size="14.00">stresser</text>
</g>
<!-- 27&#45;&gt;6 -->
<g id="edge36" class="edge">
<title>27&#45;&gt;6</title>
<path fill="none" stroke="black" d="M650.5,-215.7C650.5,-207.98 650.5,-198.71 650.5,-190.11"/>
<polygon fill="black" stroke="black" points="654,-190.1 650.5,-180.1 647,-190.1 654,-190.1"/>
</g>
</g>
</svg>
