<?xml version="1.0" encoding="UTF-8" standalone="no"?>
<!DOCTYPE svg PUBLIC "-//W3C//DTD SVG 1.1//EN"
 "http://www.w3.org/Graphics/SVG/1.1/DTD/svg11.dtd">
<!-- Generated by graphviz version 2.43.0 (0)
 -->
<!-- Title: %3 Pages: 1 -->
<svg width="1816pt" height="620pt"
 viewBox="0.00 0.00 1815.50 620.00" xmlns="http://www.w3.org/2000/svg" xmlns:xlink="http://www.w3.org/1999/xlink">
<g id="graph0" class="graph" transform="scale(1 1) rotate(0) translate(4 616)">
<title>%3</title>
<polygon fill="white" stroke="transparent" points="-4,4 -4,-616 1811.5,-616 1811.5,4 -4,4"/>
<!-- 0 -->
<g id="node1" class="node">
<title>0</title>
<polygon fill="none" stroke="black" points="742,-612 647,-612 647,-576 742,-576 742,-612"/>
<text text-anchor="middle" x="694.5" y="-590.3" font-family="Times,serif" font-size="14.00">java_string</text>
</g>
<!-- 1 -->
<g id="node2" class="node">
<title>1</title>
<polygon fill="none" stroke="black" points="173,-468 0,-468 0,-432 173,-432 173,-468"/>
<text text-anchor="middle" x="86.5" y="-446.3" font-family="Times,serif" font-size="14.00">valence_advancement</text>
</g>
<!-- 2 -->
<g id="node3" class="node">
<title>2</title>
<polygon fill="none" stroke="black" points="950,-396 827,-396 827,-360 950,-360 950,-396"/>
<text text-anchor="middle" x="888.5" y="-374.3" font-family="Times,serif" font-size="14.00">valence_server</text>
</g>
<!-- 1&#45;&gt;2 -->
<g id="edge1" class="edge">
<title>1&#45;&gt;2</title>
<path fill="none" stroke="black" d="M173.05,-433.26C176.23,-432.81 179.39,-432.39 182.5,-432 413.45,-402.96 689.04,-387.88 816.85,-382"/>
<polygon fill="black" stroke="black" points="817.08,-385.49 826.91,-381.54 816.76,-378.5 817.08,-385.49"/>
</g>
<!-- 3 -->
<g id="node4" class="node">
<title>3</title>
<polygon fill="none" stroke="black" points="876,-324 757,-324 757,-288 876,-288 876,-324"/>
<text text-anchor="middle" x="816.5" y="-302.3" font-family="Times,serif" font-size="14.00">valence_entity</text>
</g>
<!-- 2&#45;&gt;3 -->
<g id="edge2" class="edge">
<title>2&#45;&gt;3</title>
<path fill="none" stroke="black" d="M870.7,-359.7C861.9,-351.14 851.12,-340.66 841.5,-331.3"/>
<polygon fill="black" stroke="black" points="843.7,-328.57 834.09,-324.1 838.82,-333.58 843.7,-328.57"/>
</g>
<!-- 12 -->
<g id="node5" class="node">
<title>12</title>
<polygon fill="none" stroke="black" points="1028.5,-324 894.5,-324 894.5,-288 1028.5,-288 1028.5,-324"/>
<text text-anchor="middle" x="961.5" y="-302.3" font-family="Times,serif" font-size="14.00">valence_registry</text>
</g>
<!-- 2&#45;&gt;12 -->
<g id="edge3" class="edge">
<title>2&#45;&gt;12</title>
<path fill="none" stroke="black" d="M906.54,-359.7C915.56,-351.05 926.62,-340.45 936.44,-331.03"/>
<polygon fill="black" stroke="black" points="938.87,-333.55 943.66,-324.1 934.02,-328.5 938.87,-333.55"/>
</g>
<!-- 11 -->
<g id="node6" class="node">
<title>11</title>
<polygon fill="none" stroke="black" points="983.5,-252 793.5,-252 793.5,-216 983.5,-216 983.5,-252"/>
<text text-anchor="middle" x="888.5" y="-230.3" font-family="Times,serif" font-size="14.00">valence_server_common</text>
</g>
<!-- 3&#45;&gt;11 -->
<g id="edge4" class="edge">
<title>3&#45;&gt;11</title>
<path fill="none" stroke="black" d="M834.3,-287.7C843.1,-279.14 853.88,-268.66 863.5,-259.3"/>
<polygon fill="black" stroke="black" points="866.18,-261.58 870.91,-252.1 861.3,-256.57 866.18,-261.58"/>
</g>
<!-- 12&#45;&gt;11 -->
<g id="edge12" class="edge">
<title>12&#45;&gt;11</title>
<path fill="none" stroke="black" d="M943.46,-287.7C934.44,-279.05 923.38,-268.45 913.56,-259.03"/>
<polygon fill="black" stroke="black" points="915.98,-256.5 906.34,-252.1 911.13,-261.55 915.98,-256.5"/>
</g>
<!-- 9 -->
<g id="node12" class="node">
<title>9</title>
<polygon fill="none" stroke="black" points="805.5,-180 669.5,-180 669.5,-144 805.5,-144 805.5,-180"/>
<text text-anchor="middle" x="737.5" y="-158.3" font-family="Times,serif" font-size="14.00">valence_protocol</text>
</g>
<!-- 11&#45;&gt;9 -->
<g id="edge11" class="edge">
<title>11&#45;&gt;9</title>
<path fill="none" stroke="black" d="M851.56,-215.88C831.01,-206.35 805.25,-194.41 783.41,-184.28"/>
<polygon fill="black" stroke="black" points="784.86,-181.1 774.32,-180.07 781.92,-187.45 784.86,-181.1"/>
</g>
<!-- 4 -->
<g id="node7" class="node">
<title>4</title>
<polygon fill="none" stroke="black" points="739.5,-108 589.5,-108 589.5,-72 739.5,-72 739.5,-108"/>
<text text-anchor="middle" x="664.5" y="-86.3" font-family="Times,serif" font-size="14.00">valence_generated</text>
</g>
<!-- 5 -->
<g id="node8" class="node">
<title>5</title>
<polygon fill="none" stroke="black" points="797.5,-36 683.5,-36 683.5,0 797.5,0 797.5,-36"/>
<text text-anchor="middle" x="740.5" y="-14.3" font-family="Times,serif" font-size="14.00">valence_ident</text>
</g>
<!-- 4&#45;&gt;5 -->
<g id="edge5" class="edge">
<title>4&#45;&gt;5</title>
<path fill="none" stroke="black" d="M683.29,-71.7C692.67,-63.05 704.18,-52.45 714.41,-43.03"/>
<polygon fill="black" stroke="black" points="716.95,-45.45 721.93,-36.1 712.2,-40.3 716.95,-45.45"/>
</g>
<!-- 6 -->
<g id="node9" class="node">
<title>6</title>
<polygon fill="none" stroke="black" points="665.5,-36 551.5,-36 551.5,0 665.5,0 665.5,-36"/>
<text text-anchor="middle" x="608.5" y="-14.3" font-family="Times,serif" font-size="14.00">valence_math</text>
</g>
<!-- 4&#45;&gt;6 -->
<g id="edge6" class="edge">
<title>4&#45;&gt;6</title>
<path fill="none" stroke="black" d="M650.66,-71.7C644.01,-63.39 635.92,-53.28 628.61,-44.14"/>
<polygon fill="black" stroke="black" points="631.16,-41.73 622.18,-36.1 625.7,-46.1 631.16,-41.73"/>
</g>
<!-- 7 -->
<g id="node10" class="node">
<title>7</title>
<polygon fill="none" stroke="black" points="1173.5,-612 1021.5,-612 1021.5,-576 1173.5,-576 1173.5,-612"/>
<text text-anchor="middle" x="1097.5" y="-590.3" font-family="Times,serif" font-size="14.00">valence_build_utils</text>
</g>
<!-- 8 -->
<g id="node11" class="node">
<title>8</title>
<polygon fill="none" stroke="black" points="917,-36 816,-36 816,0 917,0 917,-36"/>
<text text-anchor="middle" x="866.5" y="-14.3" font-family="Times,serif" font-size="14.00">valence_nbt</text>
</g>
<!-- 9&#45;&gt;4 -->
<g id="edge7" class="edge">
<title>9&#45;&gt;4</title>
<path fill="none" stroke="black" d="M719.46,-143.7C710.44,-135.05 699.38,-124.45 689.56,-115.03"/>
<polygon fill="black" stroke="black" points="691.98,-112.5 682.34,-108.1 687.13,-117.55 691.98,-112.5"/>
</g>
<!-- 10 -->
<g id="node13" class="node">
<title>10</title>
<polygon fill="none" stroke="black" points="863.5,-108 757.5,-108 757.5,-72 863.5,-72 863.5,-108"/>
<text text-anchor="middle" x="810.5" y="-86.3" font-family="Times,serif" font-size="14.00">valence_text</text>
</g>
<!-- 9&#45;&gt;10 -->
<g id="edge8" class="edge">
<title>9&#45;&gt;10</title>
<path fill="none" stroke="black" d="M755.54,-143.7C764.56,-135.05 775.62,-124.45 785.44,-115.03"/>
<polygon fill="black" stroke="black" points="787.87,-117.55 792.66,-108.1 783.02,-112.5 787.87,-117.55"/>
</g>
<!-- 10&#45;&gt;5 -->
<g id="edge9" class="edge">
<title>10&#45;&gt;5</title>
<path fill="none" stroke="black" d="M793.2,-71.7C784.64,-63.14 774.16,-52.66 764.8,-43.3"/>
<polygon fill="black" stroke="black" points="767.15,-40.7 757.6,-36.1 762.2,-45.65 767.15,-40.7"/>
</g>
<!-- 10&#45;&gt;8 -->
<g id="edge10" class="edge">
<title>10&#45;&gt;8</title>
<path fill="none" stroke="black" d="M824.34,-71.7C830.99,-63.39 839.08,-53.28 846.39,-44.14"/>
<polygon fill="black" stroke="black" points="849.3,-46.1 852.82,-36.1 843.84,-41.73 849.3,-46.1"/>
</g>
<!-- 13 -->
<g id="node14" class="node">
<title>13</title>
<polygon fill="none" stroke="black" points="303.5,-468 191.5,-468 191.5,-432 303.5,-432 303.5,-468"/>
<text text-anchor="middle" x="247.5" y="-446.3" font-family="Times,serif" font-size="14.00">valence_anvil</text>
</g>
<!-- 13&#45;&gt;2 -->
<g id="edge13" class="edge">
<title>13&#45;&gt;2</title>
<path fill="none" stroke="black" stroke-dasharray="1,5" d="M303.75,-433.69C306.7,-433.07 309.63,-432.5 312.5,-432 492.16,-400.46 706.85,-387 816.41,-381.83"/>
<polygon fill="black" stroke="black" points="816.86,-385.32 826.68,-381.36 816.53,-378.32 816.86,-385.32"/>
</g>
<!-- 14 -->
<g id="node15" class="node">
<title>14</title>
<polygon fill="none" stroke="black" points="461.5,-468 321.5,-468 321.5,-432 461.5,-432 461.5,-468"/>
<text text-anchor="middle" x="391.5" y="-446.3" font-family="Times,serif" font-size="14.00">valence_boss_bar</text>
</g>
<!-- 14&#45;&gt;2 -->
<g id="edge14" class="edge">
<title>14&#45;&gt;2</title>
<path fill="none" stroke="black" d="M461.65,-433.58C464.64,-433.02 467.6,-432.5 470.5,-432 591.46,-411.36 733.38,-395.01 816.86,-386.19"/>
<polygon fill="black" stroke="black" points="817.41,-389.65 826.99,-385.13 816.68,-382.69 817.41,-389.65"/>
</g>
<!-- 15 -->
<g id="node16" class="node">
<title>15</title>
<polygon fill="none" stroke="black" points="625.5,-468 479.5,-468 479.5,-432 625.5,-432 625.5,-468"/>
<text text-anchor="middle" x="552.5" y="-446.3" font-family="Times,serif" font-size="14.00">valence_command</text>
</g>
<!-- 15&#45;&gt;2 -->
<g id="edge15" class="edge">
<title>15&#45;&gt;2</title>
<path fill="none" stroke="black" d="M625.82,-433.72C682.56,-421.9 760.7,-405.62 816.98,-393.9"/>
<polygon fill="black" stroke="black" points="817.8,-397.3 826.87,-391.84 816.37,-390.45 817.8,-397.3"/>
</g>
<!-- 16 -->
<g id="node17" class="node">
<title>16</title>
<polygon fill="none" stroke="black" points="797.5,-468 643.5,-468 643.5,-432 797.5,-432 797.5,-468"/>
<text text-anchor="middle" x="720.5" y="-446.3" font-family="Times,serif" font-size="14.00">valence_equipment</text>
</g>
<!-- 16&#45;&gt;2 -->
<g id="edge16" class="edge">
<title>16&#45;&gt;2</title>
<path fill="none" stroke="black" d="M761.6,-431.88C784.67,-422.26 813.64,-410.19 838.07,-400.01"/>
<polygon fill="black" stroke="black" points="839.65,-403.15 847.54,-396.07 836.96,-396.68 839.65,-403.15"/>
</g>
<!-- 17 -->
<g id="node18" class="node">
<title>17</title>
<polygon fill="none" stroke="black" points="961.5,-468 815.5,-468 815.5,-432 961.5,-432 961.5,-468"/>
<text text-anchor="middle" x="888.5" y="-446.3" font-family="Times,serif" font-size="14.00">valence_inventory</text>
</g>
<!-- 17&#45;&gt;2 -->
<g id="edge17" class="edge">
<title>17&#45;&gt;2</title>
<path fill="none" stroke="black" d="M888.5,-431.7C888.5,-423.98 888.5,-414.71 888.5,-406.11"/>
<polygon fill="black" stroke="black" points="892,-406.1 888.5,-396.1 885,-406.1 892,-406.1"/>
</g>
<!-- 18 -->
<g id="node19" class="node">
<title>18</title>
<polygon fill="none" stroke="black" points="1793.5,-396 1685.5,-396 1685.5,-360 1793.5,-360 1793.5,-396"/>
<text text-anchor="middle" x="1739.5" y="-374.3" font-family="Times,serif" font-size="14.00">valence_lang</text>
</g>
<!-- 19 -->
<g id="node20" class="node">
<title>19</title>
<polygon fill="none" stroke="black" points="1807.5,-468 1671.5,-468 1671.5,-432 1807.5,-432 1807.5,-468"/>
<text text-anchor="middle" x="1739.5" y="-446.3" font-family="Times,serif" font-size="14.00">valence_network</text>
</g>
<!-- 19&#45;&gt;2 -->
<g id="edge18" class="edge">
<title>19&#45;&gt;2</title>
<path fill="none" stroke="black" d="M1671.16,-433.36C1668.24,-432.87 1665.35,-432.41 1662.5,-432 1405.88,-395.1 1097.59,-383.72 960.4,-380.35"/>
<polygon fill="black" stroke="black" points="960.11,-376.85 950.03,-380.11 959.95,-383.84 960.11,-376.85"/>
</g>
<!-- 19&#45;&gt;18 -->
<g id="edge19" class="edge">
<title>19&#45;&gt;18</title>
<path fill="none" stroke="black" d="M1739.5,-431.7C1739.5,-423.98 1739.5,-414.71 1739.5,-406.11"/>
<polygon fill="black" stroke="black" points="1743,-406.1 1739.5,-396.1 1736,-406.1 1743,-406.1"/>
</g>
<!-- 20 -->
<g id="node21" class="node">
<title>20</title>
<polygon fill="none" stroke="black" points="1131.5,-468 979.5,-468 979.5,-432 1131.5,-432 1131.5,-468"/>
<text text-anchor="middle" x="1055.5" y="-446.3" font-family="Times,serif" font-size="14.00">valence_player_list</text>
</g>
<!-- 20&#45;&gt;2 -->
<g id="edge20" class="edge">
<title>20&#45;&gt;2</title>
<path fill="none" stroke="black" d="M1014.65,-431.88C991.72,-422.26 962.92,-410.19 938.63,-400.01"/>
<polygon fill="black" stroke="black" points="939.8,-396.71 929.22,-396.07 937.09,-403.16 939.8,-396.71"/>
</g>
<!-- 21 -->
<g id="node22" class="node">
<title>21</title>
<polygon fill="none" stroke="black" points="1307,-468 1150,-468 1150,-432 1307,-432 1307,-468"/>
<text text-anchor="middle" x="1228.5" y="-446.3" font-family="Times,serif" font-size="14.00">valence_scoreboard</text>
</g>
<!-- 21&#45;&gt;2 -->
<g id="edge21" class="edge">
<title>21&#45;&gt;2</title>
<path fill="none" stroke="black" d="M1149.64,-432.76C1092.49,-421 1015.81,-405.21 960.34,-393.79"/>
<polygon fill="black" stroke="black" points="960.74,-390.3 950.24,-391.71 959.33,-397.16 960.74,-390.3"/>
</g>
<!-- 22 -->
<g id="node23" class="node">
<title>22</title>
<polygon fill="none" stroke="black" points="1317,-612 1192,-612 1192,-576 1317,-576 1317,-612"/>
<text text-anchor="middle" x="1254.5" y="-590.3" font-family="Times,serif" font-size="14.00">valence_spatial</text>
</g>
<!-- 23 -->
<g id="node24" class="node">
<title>23</title>
<polygon fill="none" stroke="black" points="1461.5,-468 1325.5,-468 1325.5,-432 1461.5,-432 1461.5,-468"/>
<text text-anchor="middle" x="1393.5" y="-446.3" font-family="Times,serif" font-size="14.00">valence_weather</text>
</g>
<!-- 23&#45;&gt;2 -->
<g id="edge22" class="edge">
<title>23&#45;&gt;2</title>
<path fill="none" stroke="black" d="M1325.13,-433.56C1322.22,-433.01 1319.33,-432.49 1316.5,-432 1191.88,-410.58 1045.41,-394.35 960.16,-385.79"/>
<polygon fill="black" stroke="black" points="960.37,-382.3 950.07,-384.79 959.68,-389.26 960.37,-382.3"/>
</g>
<!-- 24 -->
<g id="node25" class="node">
<title>24</title>
<polygon fill="none" stroke="black" points="1653,-468 1480,-468 1480,-432 1653,-432 1653,-468"/>
<text text-anchor="middle" x="1566.5" y="-446.3" font-family="Times,serif" font-size="14.00">valence_world_border</text>
</g>
<!-- 24&#45;&gt;2 -->
<g id="edge23" class="edge">
<title>24&#45;&gt;2</title>
<path fill="none" stroke="black" d="M1479.95,-433.33C1476.76,-432.86 1473.6,-432.42 1470.5,-432 1287.41,-407.5 1070.37,-391.04 960.28,-383.58"/>
<polygon fill="black" stroke="black" points="960.5,-380.08 950.28,-382.9 960.03,-387.07 960.5,-380.08"/>
</g>
<!-- 25 -->
<g id="node26" class="node">
<title>25</title>
<polygon fill="none" stroke="black" points="887,-612 760,-612 760,-576 887,-576 887,-612"/>
<text text-anchor="middle" x="823.5" y="-590.3" font-family="Times,serif" font-size="14.00">dump_schedule</text>
</g>
<!-- 26 -->
<g id="node27" class="node">
<title>26</title>
<polygon fill="none" stroke="black" points="924,-540 853,-540 853,-504 924,-504 924,-540"/>
<text text-anchor="middle" x="888.5" y="-518.3" font-family="Times,serif" font-size="14.00">valence</text>
</g>
<!-- 25&#45;&gt;26 -->
<g id="edge24" class="edge">
<title>25&#45;&gt;26</title>
<path fill="none" stroke="black" d="M839.57,-575.7C847.44,-567.22 857.06,-556.86 865.67,-547.58"/>
<polygon fill="black" stroke="black" points="868.38,-549.81 872.62,-540.1 863.25,-545.05 868.38,-549.81"/>
</g>
<!-- 26&#45;&gt;1 -->
<g id="edge25" class="edge">
<title>26&#45;&gt;1</title>
<path fill="none" stroke="black" stroke-dasharray="1,5" d="M852.74,-519.59C750.19,-515.26 446.15,-500.55 183.17,-468"/>
<polygon fill="black" stroke="black" points="183.4,-464.5 173.05,-466.74 182.54,-471.45 183.4,-464.5"/>
</g>
<!-- 26&#45;&gt;13 -->
<g id="edge26" class="edge">
<title>26&#45;&gt;13</title>
<path fill="none" stroke="black" stroke-dasharray="1,5" d="M852.84,-519.75C763.46,-516.19 522.7,-503.94 313.67,-468.04"/>
<polygon fill="black" stroke="black" points="314.2,-464.58 303.75,-466.31 313,-471.48 314.2,-464.58"/>
</g>
<!-- 26&#45;&gt;14 -->
<g id="edge27" class="edge">
<title>26&#45;&gt;14</title>
<path fill="none" stroke="black" stroke-dasharray="1,5" d="M852.84,-517.52C782.1,-510.4 618.84,-492.84 471.76,-468.14"/>
<polygon fill="black" stroke="black" points="472.1,-464.64 461.65,-466.42 470.93,-471.54 472.1,-464.64"/>
</g>
<!-- 26&#45;&gt;15 -->
<g id="edge28" class="edge">
<title>26&#45;&gt;15</title>
<path fill="none" stroke="black" stroke-dasharray="1,5" d="M852.86,-513.58C801.59,-502.89 705.53,-482.88 635.81,-468.36"/>
<polygon fill="black" stroke="black" points="636.23,-464.87 625.73,-466.26 634.8,-471.72 636.23,-464.87"/>
</g>
<!-- 26&#45;&gt;16 -->
<g id="edge29" class="edge">
<title>26&#45;&gt;16</title>
<path fill="none" stroke="black" stroke-dasharray="1,5" d="M852.87,-506.15C829.02,-496.22 797.29,-482.99 770.86,-471.99"/>
<polygon fill="black" stroke="black" points="771.97,-468.66 761.4,-468.04 769.28,-475.12 771.97,-468.66"/>
</g>
<!-- 26&#45;&gt;17 -->
<g id="edge30" class="edge">
<title>26&#45;&gt;17</title>
<path fill="none" stroke="black" stroke-dasharray="1,5" d="M888.5,-503.7C888.5,-495.98 888.5,-486.71 888.5,-478.11"/>
<polygon fill="black" stroke="black" points="892,-478.1 888.5,-468.1 885,-478.1 892,-478.1"/>
</g>
<!-- 26&#45;&gt;19 -->
<g id="edge31" class="edge">
<title>26&#45;&gt;19</title>
<path fill="none" stroke="black" stroke-dasharray="1,5" d="M924.19,-520.44C1033.25,-518.34 1371.8,-508.87 1660.9,-468.1"/>
<polygon fill="black" stroke="black" points="1661.76,-471.52 1671.16,-466.64 1660.77,-464.59 1661.76,-471.52"/>
</g>
<!-- 26&#45;&gt;20 -->
<g id="edge32" class="edge">
<title>26&#45;&gt;20</title>
<path fill="none" stroke="black" stroke-dasharray="1,5" d="M924.33,-505.98C947.97,-496.07 979.28,-482.95 1005.39,-472.01"/>
<polygon fill="black" stroke="black" points="1006.87,-475.18 1014.74,-468.08 1004.17,-468.72 1006.87,-475.18"/>
</g>
<!-- 26&#45;&gt;21 -->
<g id="edge33" class="edge">
<title>26&#45;&gt;21</title>
<path fill="none" stroke="black" stroke-dasharray="1,5" d="M924.24,-513.64C974.94,-503.2 1069.39,-483.76 1139.66,-469.29"/>
<polygon fill="black" stroke="black" points="1140.75,-472.64 1149.84,-467.19 1139.34,-465.78 1140.75,-472.64"/>
</g>
<!-- 26&#45;&gt;23 -->
<g id="edge34" class="edge">
<title>26&#45;&gt;23</title>
<path fill="none" stroke="black" stroke-dasharray="1,5" d="M924.18,-517.73C996.24,-510.87 1164.44,-493.63 1315.23,-468.14"/>
<polygon fill="black" stroke="black" points="1315.86,-471.58 1325.13,-466.44 1314.69,-464.68 1315.86,-471.58"/>
</g>
<!-- 26&#45;&gt;24 -->
<g id="edge35" class="edge">
<title>26&#45;&gt;24</title>
<path fill="none" stroke="black" stroke-dasharray="1,5" d="M924.05,-518.81C1013.73,-513.07 1256.6,-496.13 1469.82,-468.02"/>
<polygon fill="black" stroke="black" points="1470.49,-471.46 1479.95,-466.67 1469.57,-464.52 1470.49,-471.46"/>
</g>
<!-- 27 -->
<g id="node28" class="node">
<title>27</title>
<polygon fill="none" stroke="black" points="682,-252 545,-252 545,-216 682,-216 682,-252"/>
<text text-anchor="middle" x="613.5" y="-230.3" font-family="Times,serif" font-size="14.00">packet_inspector</text>
</g>
<!-- 27&#45;&gt;9 -->
<g id="edge36" class="edge">
<title>27&#45;&gt;9</title>
<path fill="none" stroke="black" d="M643.83,-215.88C660.2,-206.64 680.58,-195.13 698.15,-185.21"/>
<polygon fill="black" stroke="black" points="700.06,-188.15 707.05,-180.19 696.62,-182.06 700.06,-188.15"/>
</g>
<!-- 28 -->
<g id="node29" class="node">
<title>28</title>
<polygon fill="none" stroke="black" points="1003.5,-612 905.5,-612 905.5,-576 1003.5,-576 1003.5,-612"/>
<text text-anchor="middle" x="954.5" y="-590.3" font-family="Times,serif" font-size="14.00">playground</text>
</g>
<!-- 28&#45;&gt;26 -->
<g id="edge37" class="edge">
<title>28&#45;&gt;26</title>
<path fill="none" stroke="black" d="M938.19,-575.7C930.19,-567.22 920.43,-556.86 911.68,-547.58"/>
<polygon fill="black" stroke="black" points="914.03,-544.98 904.63,-540.1 908.94,-549.78 914.03,-544.98"/>
</g>
<!-- 29 -->
<g id="node30" class="node">
<title>29</title>
<polygon fill="none" stroke="black" points="775,-252 700,-252 700,-216 775,-216 775,-252"/>
<text text-anchor="middle" x="737.5" y="-230.3" font-family="Times,serif" font-size="14.00">stresser</text>
</g>
<!-- 29&#45;&gt;9 -->
<g id="edge38" class="edge">
<title>29&#45;&gt;9</title>
<path fill="none" stroke="black" d="M737.5,-215.7C737.5,-207.98 737.5,-198.71 737.5,-190.11"/>
<polygon fill="black" stroke="black" points="741,-190.1 737.5,-180.1 734,-190.1 741,-190.1"/>
</g>
</g>
</svg>
