<?xml version="1.0" encoding="UTF-8" standalone="no"?>
<!DOCTYPE svg PUBLIC "-//W3C//DTD SVG 1.1//EN"
 "http://www.w3.org/Graphics/SVG/1.1/DTD/svg11.dtd">
<!-- Generated by graphviz version 7.1.0 (0)
 -->
<!-- Pages: 1 -->
<svg width="1480pt" height="620pt"
 viewBox="0.00 0.00 1479.50 620.00" xmlns="http://www.w3.org/2000/svg" xmlns:xlink="http://www.w3.org/1999/xlink">
<g id="graph0" class="graph" transform="scale(1 1) rotate(0) translate(4 616)">
<polygon fill="white" stroke="none" points="-4,4 -4,-616 1475.5,-616 1475.5,4 -4,4"/>
<!-- 0 -->
<g id="node1" class="node">
<title>0</title>
<polygon fill="none" stroke="black" points="173,-468 0,-468 0,-432 173,-432 173,-468"/>
<text text-anchor="middle" x="86.5" y="-446.3" font-family="Times,serif" font-size="14.00">valence_advancement</text>
</g>
<!-- 1 -->
<g id="node2" class="node">
<title>1</title>
<polygon fill="none" stroke="black" points="781,-396 658,-396 658,-360 781,-360 781,-396"/>
<text text-anchor="middle" x="719.5" y="-374.3" font-family="Times,serif" font-size="14.00">valence_server</text>
</g>
<!-- 0&#45;&gt;1 -->
<g id="edge1" class="edge">
<title>0&#45;&gt;1</title>
<path fill="none" stroke="black" d="M173.32,-433.32C176.41,-432.86 179.48,-432.42 182.5,-432 347.76,-409.25 542.95,-392.5 646.46,-384.42"/>
<polygon fill="black" stroke="black" points="646.5,-387.93 656.2,-383.66 645.96,-380.95 646.5,-387.93"/>
</g>
<!-- 2 -->
<g id="node3" class="node">
<title>2</title>
<polygon fill="none" stroke="black" points="707,-324 588,-324 588,-288 707,-288 707,-324"/>
<text text-anchor="middle" x="647.5" y="-302.3" font-family="Times,serif" font-size="14.00">valence_entity</text>
</g>
<!-- 1&#45;&gt;2 -->
<g id="edge2" class="edge">
<title>1&#45;&gt;2</title>
<path fill="none" stroke="black" d="M701.7,-359.7C693.22,-351.45 682.91,-341.43 673.57,-332.35"/>
<polygon fill="black" stroke="black" points="676.04,-329.86 666.43,-325.4 671.16,-334.88 676.04,-329.86"/>
</g>
<!-- 11 -->
<g id="node4" class="node">
<title>11</title>
<polygon fill="none" stroke="black" points="859.5,-324 725.5,-324 725.5,-288 859.5,-288 859.5,-324"/>
<text text-anchor="middle" x="792.5" y="-302.3" font-family="Times,serif" font-size="14.00">valence_registry</text>
</g>
<!-- 1&#45;&gt;11 -->
<g id="edge3" class="edge">
<title>1&#45;&gt;11</title>
<path fill="none" stroke="black" d="M737.54,-359.7C746.23,-351.37 756.81,-341.22 766.36,-332.07"/>
<polygon fill="black" stroke="black" points="768.52,-334.84 773.32,-325.39 763.68,-329.79 768.52,-334.84"/>
</g>
<!-- 10 -->
<g id="node5" class="node">
<title>10</title>
<polygon fill="none" stroke="black" points="801,-252 640,-252 640,-216 801,-216 801,-252"/>
<text text-anchor="middle" x="720.5" y="-230.3" font-family="Times,serif" font-size="14.00">valence_server_common</text>
</g>
<!-- 2&#45;&gt;10 -->
<g id="edge4" class="edge">
<title>2&#45;&gt;10</title>
<path fill="none" stroke="black" d="M665.54,-287.7C674.23,-279.37 684.81,-269.22 694.36,-260.07"/>
<polygon fill="black" stroke="black" points="696.52,-262.84 701.32,-253.39 691.68,-257.79 696.52,-262.84"/>
</g>
<!-- 11&#45;&gt;10 -->
<g id="edge12" class="edge">
<title>11&#45;&gt;10</title>
<path fill="none" stroke="black" d="M774.7,-287.7C766.22,-279.45 755.91,-269.43 746.57,-260.35"/>
<polygon fill="black" stroke="black" points="749.04,-257.86 739.43,-253.4 744.16,-262.88 749.04,-257.86"/>
</g>
<!-- 6 -->
<g id="node9" class="node">
<title>6</title>
<polygon fill="none" stroke="black" points="720.5,-180 584.5,-180 584.5,-144 720.5,-144 720.5,-180"/>
<text text-anchor="middle" x="652.5" y="-158.3" font-family="Times,serif" font-size="14.00">valence_protocol</text>
</g>
<!-- 10&#45;&gt;6 -->
<g id="edge11" class="edge">
<title>10&#45;&gt;6</title>
<path fill="none" stroke="black" d="M703.69,-215.7C695.62,-207.39 685.8,-197.28 676.92,-188.14"/>
<polygon fill="black" stroke="black" points="679.65,-185.92 670.17,-181.19 674.63,-190.8 679.65,-185.92"/>
</g>
<!-- 3 -->
<g id="node6" class="node">
<title>3</title>
<polygon fill="none" stroke="black" points="580.5,-36 466.5,-36 466.5,0 580.5,0 580.5,-36"/>
<text text-anchor="middle" x="523.5" y="-14.3" font-family="Times,serif" font-size="14.00">valence_math</text>
</g>
<!-- 4 -->
<g id="node7" class="node">
<title>4</title>
<polygon fill="none" stroke="black" points="832,-36 731,-36 731,0 832,0 832,-36"/>
<text text-anchor="middle" x="781.5" y="-14.3" font-family="Times,serif" font-size="14.00">valence_nbt</text>
</g>
<!-- 5 -->
<g id="node8" class="node">
<title>5</title>
<polygon fill="none" stroke="black" points="712.5,-36 598.5,-36 598.5,0 712.5,0 712.5,-36"/>
<text text-anchor="middle" x="655.5" y="-14.3" font-family="Times,serif" font-size="14.00">valence_ident</text>
</g>
<!-- 7 -->
<g id="node10" class="node">
<title>7</title>
<polygon fill="none" stroke="black" points="654.5,-108 504.5,-108 504.5,-72 654.5,-72 654.5,-108"/>
<text text-anchor="middle" x="579.5" y="-86.3" font-family="Times,serif" font-size="14.00">valence_generated</text>
</g>
<!-- 6&#45;&gt;7 -->
<g id="edge5" class="edge">
<title>6&#45;&gt;7</title>
<path fill="none" stroke="black" d="M634.46,-143.7C625.77,-135.37 615.19,-125.22 605.64,-116.07"/>
<polygon fill="black" stroke="black" points="608.32,-113.79 598.68,-109.39 603.48,-118.84 608.32,-113.79"/>
</g>
<!-- 9 -->
<g id="node11" class="node">
<title>9</title>
<polygon fill="none" stroke="black" points="778.5,-108 672.5,-108 672.5,-72 778.5,-72 778.5,-108"/>
<text text-anchor="middle" x="725.5" y="-86.3" font-family="Times,serif" font-size="14.00">valence_text</text>
</g>
<!-- 6&#45;&gt;9 -->
<g id="edge6" class="edge">
<title>6&#45;&gt;9</title>
<path fill="none" stroke="black" d="M670.54,-143.7C679.23,-135.37 689.81,-125.22 699.36,-116.07"/>
<polygon fill="black" stroke="black" points="701.52,-118.84 706.32,-109.39 696.68,-113.79 701.52,-118.84"/>
</g>
<!-- 7&#45;&gt;3 -->
<g id="edge7" class="edge">
<title>7&#45;&gt;3</title>
<path fill="none" stroke="black" d="M565.66,-71.7C559.21,-63.64 551.42,-53.89 544.29,-44.98"/>
<polygon fill="black" stroke="black" points="547.11,-42.91 538.13,-37.29 541.64,-47.28 547.11,-42.91"/>
</g>
<!-- 7&#45;&gt;5 -->
<g id="edge8" class="edge">
<title>7&#45;&gt;5</title>
<path fill="none" stroke="black" d="M598.29,-71.7C607.33,-63.37 618.34,-53.22 628.28,-44.07"/>
<polygon fill="black" stroke="black" points="630.57,-46.72 635.55,-37.37 625.83,-41.57 630.57,-46.72"/>
</g>
<!-- 9&#45;&gt;4 -->
<g id="edge9" class="edge">
<title>9&#45;&gt;4</title>
<path fill="none" stroke="black" d="M739.34,-71.7C745.79,-63.64 753.58,-53.89 760.71,-44.98"/>
<polygon fill="black" stroke="black" points="763.36,-47.28 766.87,-37.29 757.89,-42.91 763.36,-47.28"/>
</g>
<!-- 9&#45;&gt;5 -->
<g id="edge10" class="edge">
<title>9&#45;&gt;5</title>
<path fill="none" stroke="black" d="M708.2,-71.7C699.89,-63.39 689.78,-53.28 680.64,-44.14"/>
<polygon fill="black" stroke="black" points="683.22,-41.77 673.67,-37.17 678.27,-46.72 683.22,-41.77"/>
</g>
<!-- 8 -->
<g id="node12" class="node">
<title>8</title>
<polygon fill="none" stroke="black" points="1074.5,-612 922.5,-612 922.5,-576 1074.5,-576 1074.5,-612"/>
<text text-anchor="middle" x="998.5" y="-590.3" font-family="Times,serif" font-size="14.00">valence_build_utils</text>
</g>
<!-- 12 -->
<g id="node13" class="node">
<title>12</title>
<polygon fill="none" stroke="black" points="303.5,-468 191.5,-468 191.5,-432 303.5,-432 303.5,-468"/>
<text text-anchor="middle" x="247.5" y="-446.3" font-family="Times,serif" font-size="14.00">valence_anvil</text>
</g>
<!-- 12&#45;&gt;1 -->
<g id="edge13" class="edge">
<title>12&#45;&gt;1</title>
<path fill="none" stroke="black" d="M303.77,-433.82C306.71,-433.17 309.64,-432.56 312.5,-432 428.27,-409.42 564.5,-393.88 646.32,-385.72"/>
<polygon fill="black" stroke="black" points="646.63,-389.2 656.24,-384.74 645.94,-382.24 646.63,-389.2"/>
</g>
<!-- 13 -->
<g id="node14" class="node">
<title>13</title>
<polygon fill="none" stroke="black" points="461.5,-468 321.5,-468 321.5,-432 461.5,-432 461.5,-468"/>
<text text-anchor="middle" x="391.5" y="-446.3" font-family="Times,serif" font-size="14.00">valence_boss_bar</text>
</g>
<!-- 13&#45;&gt;1 -->
<g id="edge14" class="edge">
<title>13&#45;&gt;1</title>
<path fill="none" stroke="black" d="M461.71,-433.88C464.68,-433.25 467.62,-432.62 470.5,-432 529.77,-419.32 596.98,-405.01 646.63,-394.47"/>
<polygon fill="black" stroke="black" points="647.05,-397.96 656.1,-392.45 645.59,-391.11 647.05,-397.96"/>
</g>
<!-- 14 -->
<g id="node15" class="node">
<title>14</title>
<polygon fill="none" stroke="black" points="625.5,-468 479.5,-468 479.5,-432 625.5,-432 625.5,-468"/>
<text text-anchor="middle" x="552.5" y="-446.3" font-family="Times,serif" font-size="14.00">valence_inventory</text>
</g>
<!-- 14&#45;&gt;1 -->
<g id="edge15" class="edge">
<title>14&#45;&gt;1</title>
<path fill="none" stroke="black" d="M594.21,-431.52C616.41,-422.21 643.92,-410.68 667.51,-400.79"/>
<polygon fill="black" stroke="black" points="668.77,-404.06 676.64,-396.97 666.06,-397.6 668.77,-404.06"/>
</g>
<!-- 15 -->
<g id="node16" class="node">
<title>15</title>
<polygon fill="none" stroke="black" points="1457.5,-396 1349.5,-396 1349.5,-360 1457.5,-360 1457.5,-396"/>
<text text-anchor="middle" x="1403.5" y="-374.3" font-family="Times,serif" font-size="14.00">valence_lang</text>
</g>
<!-- 16 -->
<g id="node17" class="node">
<title>16</title>
<polygon fill="none" stroke="black" points="1471.5,-468 1335.5,-468 1335.5,-432 1471.5,-432 1471.5,-468"/>
<text text-anchor="middle" x="1403.5" y="-446.3" font-family="Times,serif" font-size="14.00">valence_network</text>
</g>
<!-- 16&#45;&gt;1 -->
<g id="edge16" class="edge">
<title>16&#45;&gt;1</title>
<path fill="none" stroke="black" d="M1335.15,-433.43C1332.24,-432.91 1329.34,-432.44 1326.5,-432 1135.19,-402.66 907.28,-388.18 792.81,-382.32"/>
<polygon fill="black" stroke="black" points="793.1,-378.83 782.93,-381.82 792.75,-385.82 793.1,-378.83"/>
</g>
<!-- 16&#45;&gt;15 -->
<g id="edge17" class="edge">
<title>16&#45;&gt;15</title>
<path fill="none" stroke="black" d="M1403.5,-431.7C1403.5,-424.41 1403.5,-415.73 1403.5,-407.54"/>
<polygon fill="black" stroke="black" points="1407,-407.62 1403.5,-397.62 1400,-407.62 1407,-407.62"/>
</g>
<!-- 17 -->
<g id="node18" class="node">
<title>17</title>
<polygon fill="none" stroke="black" points="795.5,-468 643.5,-468 643.5,-432 795.5,-432 795.5,-468"/>
<text text-anchor="middle" x="719.5" y="-446.3" font-family="Times,serif" font-size="14.00">valence_player_list</text>
</g>
<!-- 17&#45;&gt;1 -->
<g id="edge18" class="edge">
<title>17&#45;&gt;1</title>
<path fill="none" stroke="black" d="M719.5,-431.7C719.5,-424.41 719.5,-415.73 719.5,-407.54"/>
<polygon fill="black" stroke="black" points="723,-407.62 719.5,-397.62 716,-407.62 723,-407.62"/>
</g>
<!-- 18 -->
<g id="node19" class="node">
<title>18</title>
<polygon fill="none" stroke="black" points="971,-468 814,-468 814,-432 971,-432 971,-468"/>
<text text-anchor="middle" x="892.5" y="-446.3" font-family="Times,serif" font-size="14.00">valence_scoreboard</text>
</g>
<!-- 18&#45;&gt;1 -->
<g id="edge19" class="edge">
<title>18&#45;&gt;1</title>
<path fill="none" stroke="black" d="M849.29,-431.52C826.19,-422.17 797.53,-410.57 773.03,-400.66"/>
<polygon fill="black" stroke="black" points="774.44,-397.46 763.86,-396.95 771.82,-403.94 774.44,-397.46"/>
</g>
<!-- 19 -->
<g id="node20" class="node">
<title>19</title>
<polygon fill="none" stroke="black" points="1264,-612 1093,-612 1093,-576 1264,-576 1264,-612"/>
<text text-anchor="middle" x="1178.5" y="-590.3" font-family="Times,serif" font-size="14.00">valence_spatial</text>
</g>
<!-- 20 -->
<g id="node21" class="node">
<title>20</title>
<polygon fill="none" stroke="black" points="1125.5,-468 989.5,-468 989.5,-432 1125.5,-432 1125.5,-468"/>
<text text-anchor="middle" x="1057.5" y="-446.3" font-family="Times,serif" font-size="14.00">valence_weather</text>
</g>
<!-- 20&#45;&gt;1 -->
<g id="edge20" class="edge">
<title>20&#45;&gt;1</title>
<path fill="none" stroke="black" d="M989.08,-433.83C986.18,-433.21 983.31,-432.6 980.5,-432 917.08,-418.56 844.83,-403.94 792.46,-393.47"/>
<polygon fill="black" stroke="black" points="793.24,-390.06 782.74,-391.53 791.87,-396.92 793.24,-390.06"/>
</g>
<!-- 21 -->
<g id="node22" class="node">
<title>21</title>
<polygon fill="none" stroke="black" points="1317,-468 1144,-468 1144,-432 1317,-432 1317,-468"/>
<text text-anchor="middle" x="1230.5" y="-446.3" font-family="Times,serif" font-size="14.00">valence_world_border</text>
</g>
<!-- 21&#45;&gt;1 -->
<g id="edge21" class="edge">
<title>21&#45;&gt;1</title>
<path fill="none" stroke="black" d="M1143.67,-433.43C1140.57,-432.94 1137.51,-432.46 1134.5,-432 1015,-413.8 875.49,-396.86 792.48,-387.24"/>
<polygon fill="black" stroke="black" points="792.99,-383.78 782.66,-386.11 792.19,-390.73 792.99,-383.78"/>
</g>
<!-- 22 -->
<g id="node23" class="node">
<title>22</title>
<polygon fill="none" stroke="black" points="633,-612 506,-612 506,-576 633,-576 633,-612"/>
<text text-anchor="middle" x="569.5" y="-590.3" font-family="Times,serif" font-size="14.00">dump_schedule</text>
</g>
<!-- 23 -->
<g id="node24" class="node">
<title>23</title>
<polygon fill="none" stroke="black" points="755,-540 684,-540 684,-504 755,-504 755,-540"/>
<text text-anchor="middle" x="719.5" y="-518.3" font-family="Times,serif" font-size="14.00">valence</text>
</g>
<!-- 22&#45;&gt;23 -->
<g id="edge22" class="edge">
<title>22&#45;&gt;23</title>
<path fill="none" stroke="black" d="M606.96,-575.52C627.01,-566.16 651.87,-554.56 673.12,-544.64"/>
<polygon fill="black" stroke="black" points="674.59,-547.82 682.17,-540.42 671.63,-541.48 674.59,-547.82"/>
</g>
<!-- 23&#45;&gt;0 -->
<g id="edge23" class="edge">
<title>23&#45;&gt;0</title>
<path fill="none" stroke="black" stroke-dasharray="1,5" d="M683.57,-518.41C598.7,-512.1 379.01,-494.56 184.61,-468.23"/>
<polygon fill="black" stroke="black" points="185.2,-464.77 174.82,-466.89 184.25,-471.71 185.2,-464.77"/>
</g>
<!-- 23&#45;&gt;12 -->
<g id="edge24" class="edge">
<title>23&#45;&gt;12</title>
<path fill="none" stroke="black" stroke-dasharray="1,5" d="M683.6,-517.86C614.18,-511.47 456.62,-495.35 314.82,-468.32"/>
<polygon fill="black" stroke="black" points="315.74,-464.93 305.26,-466.47 314.41,-471.8 315.74,-464.93"/>
</g>
<!-- 23&#45;&gt;13 -->
<g id="edge25" class="edge">
<title>23&#45;&gt;13</title>
<path fill="none" stroke="black" stroke-dasharray="1,5" d="M683.62,-513.39C637.31,-503.56 553.91,-485.84 472.64,-468.46"/>
<polygon fill="black" stroke="black" points="473.7,-465.1 463.19,-466.43 472.24,-471.95 473.7,-465.1"/>
</g>
<!-- 23&#45;&gt;14 -->
<g id="edge26" class="edge">
<title>23&#45;&gt;14</title>
<path fill="none" stroke="black" stroke-dasharray="1,5" d="M683.67,-505.98C660.59,-496.31 630.21,-483.57 604.49,-472.79"/>
<polygon fill="black" stroke="black" points="606.13,-469.68 595.55,-469.05 603.42,-476.14 606.13,-469.68"/>
</g>
<!-- 23&#45;&gt;16 -->
<g id="edge27" class="edge">
<title>23&#45;&gt;16</title>
<path fill="none" stroke="black" stroke-dasharray="1,5" d="M755.27,-519.51C847.75,-515.29 1102.46,-501.51 1323.96,-468.27"/>
<polygon fill="black" stroke="black" points="1324.3,-471.76 1333.66,-466.8 1323.24,-464.84 1324.3,-471.76"/>
</g>
<!-- 23&#45;&gt;17 -->
<g id="edge28" class="edge">
<title>23&#45;&gt;17</title>
<path fill="none" stroke="black" stroke-dasharray="1,5" d="M719.5,-503.7C719.5,-496.41 719.5,-487.73 719.5,-479.54"/>
<polygon fill="black" stroke="black" points="723,-479.62 719.5,-469.62 716,-479.62 723,-479.62"/>
</g>
<!-- 23&#45;&gt;18 -->
<g id="edge29" class="edge">
<title>23&#45;&gt;18</title>
<path fill="none" stroke="black" stroke-dasharray="1,5" d="M755.35,-506.5C779.46,-496.74 811.68,-483.7 838.84,-472.71"/>
<polygon fill="black" stroke="black" points="839.99,-476.02 847.95,-469.03 837.37,-469.53 839.99,-476.02"/>
</g>
<!-- 23&#45;&gt;20 -->
<g id="edge30" class="edge">
<title>23&#45;&gt;20</title>
<path fill="none" stroke="black" stroke-dasharray="1,5" d="M755.43,-513.91C803.67,-504.33 892.36,-486.59 977.86,-468.54"/>
<polygon fill="black" stroke="black" points="978.54,-471.98 987.6,-466.48 977.09,-465.13 978.54,-471.98"/>
</g>
<!-- 23&#45;&gt;21 -->
<g id="edge31" class="edge">
<title>23&#45;&gt;21</title>
<path fill="none" stroke="black" stroke-dasharray="1,5" d="M755.39,-517.01C825.65,-509.06 986.55,-490.25 1132.72,-468.23"/>
<polygon fill="black" stroke="black" points="1132.81,-471.76 1142.17,-466.8 1131.76,-464.84 1132.81,-471.76"/>
</g>
<!-- 24 -->
<g id="node25" class="node">
<title>24</title>
<polygon fill="none" stroke="black" points="788,-612 651,-612 651,-576 788,-576 788,-612"/>
<text text-anchor="middle" x="719.5" y="-590.3" font-family="Times,serif" font-size="14.00">packet_inspector</text>
</g>
<!-- 24&#45;&gt;23 -->
<g id="edge32" class="edge">
<title>24&#45;&gt;23</title>
<path fill="none" stroke="black" d="M719.5,-575.7C719.5,-568.41 719.5,-559.73 719.5,-551.54"/>
<polygon fill="black" stroke="black" points="723,-551.62 719.5,-541.62 716,-551.62 723,-551.62"/>
</g>
<!-- 25 -->
<g id="node26" class="node">
<title>25</title>
<polygon fill="none" stroke="black" points="904.5,-612 806.5,-612 806.5,-576 904.5,-576 904.5,-612"/>
<text text-anchor="middle" x="855.5" y="-590.3" font-family="Times,serif" font-size="14.00">playground</text>
</g>
<!-- 25&#45;&gt;23 -->
<g id="edge33" class="edge">
<title>25&#45;&gt;23</title>
<path fill="none" stroke="black" d="M821.53,-575.52C803.87,-566.43 782.09,-555.22 763.19,-545.49"/>
<polygon fill="black" stroke="black" points="764.87,-542.42 754.38,-540.95 761.67,-548.64 764.87,-542.42"/>
</g>
<!-- 26 -->
<g id="node27" class="node">
<title>26</title>
<polygon fill="none" stroke="black" points="622,-252 547,-252 547,-216 622,-216 622,-252"/>
<text text-anchor="middle" x="584.5" y="-230.3" font-family="Times,serif" font-size="14.00">stresser</text>
</g>
<!-- 26&#45;&gt;6 -->
<g id="edge34" class="edge">
<title>26&#45;&gt;6</title>
<path fill="none" stroke="black" d="M601.31,-215.7C609.38,-207.39 619.2,-197.28 628.08,-188.14"/>
<polygon fill="black" stroke="black" points="630.37,-190.8 634.83,-181.19 625.35,-185.92 630.37,-190.8"/>
</g>
</g>
</svg>
