<?xml version="1.0" encoding="UTF-8" standalone="no"?>
<!DOCTYPE svg PUBLIC "-//W3C//DTD SVG 1.1//EN"
 "http://www.w3.org/Graphics/SVG/1.1/DTD/svg11.dtd">
<!-- Generated by graphviz version 11.0.0 (0)
 -->
<!-- Pages: 1 -->
<svg width="1340pt" height="620pt"
 viewBox="0.00 0.00 1340.12 620.00" xmlns="http://www.w3.org/2000/svg" xmlns:xlink="http://www.w3.org/1999/xlink">
<g id="graph0" class="graph" transform="scale(1 1) rotate(0) translate(4 616)">
<polygon fill="white" stroke="none" points="-4,4 -4,-616 1336.12,-616 1336.12,4 -4,4"/>
<!-- 0 -->
<g id="node1" class="node">
<title>0</title>
<polygon fill="none" stroke="black" points="533,-612 457,-612 457,-576 533,-576 533,-612"/>
<text text-anchor="middle" x="495" y="-588.95" font-family="Times,serif" font-size="14.00">java_string</text>
</g>
<!-- 1 -->
<g id="node2" class="node">
<title>1</title>
<polygon fill="none" stroke="black" points="136,-468 0,-468 0,-432 136,-432 136,-468"/>
<text text-anchor="middle" x="68" y="-444.95" font-family="Times,serif" font-size="14.00">valence_advancement</text>
</g>
<!-- 2 -->
<g id="node3" class="node">
<title>2</title>
<polygon fill="none" stroke="black" points="704.5,-396 607.5,-396 607.5,-360 704.5,-360 704.5,-396"/>
<text text-anchor="middle" x="656" y="-372.95" font-family="Times,serif" font-size="14.00">valence_server</text>
</g>
<!-- 1&#45;&gt;2 -->
<g id="edge1" class="edge">
<title>1&#45;&gt;2</title>
<path fill="none" stroke="black" d="M136.36,-433.48C139.27,-432.96 142.16,-432.46 145,-432 306.86,-405.83 499.76,-389.91 595.66,-383.02"/>
<polygon fill="black" stroke="black" points="595.9,-386.51 605.63,-382.31 595.41,-379.53 595.9,-386.51"/>
</g>
<!-- 3 -->
<g id="node4" class="node">
<title>3</title>
<polygon fill="none" stroke="black" points="644.38,-324 549.62,-324 549.62,-288 644.38,-288 644.38,-324"/>
<text text-anchor="middle" x="597" y="-300.95" font-family="Times,serif" font-size="14.00">valence_entity</text>
</g>
<!-- 2&#45;&gt;3 -->
<g id="edge2" class="edge">
<title>2&#45;&gt;3</title>
<path fill="none" stroke="black" d="M641.42,-359.7C634.56,-351.56 626.24,-341.69 618.66,-332.7"/>
<polygon fill="black" stroke="black" points="621.51,-330.65 612.39,-325.26 616.16,-335.16 621.51,-330.65"/>
</g>
<!-- 12 -->
<g id="node5" class="node">
<title>12</title>
<polygon fill="none" stroke="black" points="767.62,-324 662.38,-324 662.38,-288 767.62,-288 767.62,-324"/>
<text text-anchor="middle" x="715" y="-300.95" font-family="Times,serif" font-size="14.00">valence_registry</text>
</g>
<!-- 2&#45;&gt;12 -->
<g id="edge3" class="edge">
<title>2&#45;&gt;12</title>
<path fill="none" stroke="black" d="M670.58,-359.7C677.44,-351.56 685.76,-341.69 693.34,-332.7"/>
<polygon fill="black" stroke="black" points="695.84,-335.16 699.61,-325.26 690.49,-330.65 695.84,-335.16"/>
</g>
<!-- 11 -->
<g id="node6" class="node">
<title>11</title>
<polygon fill="none" stroke="black" points="732.25,-252 579.75,-252 579.75,-216 732.25,-216 732.25,-252"/>
<text text-anchor="middle" x="656" y="-228.95" font-family="Times,serif" font-size="14.00">valence_server_common</text>
</g>
<!-- 3&#45;&gt;11 -->
<g id="edge4" class="edge">
<title>3&#45;&gt;11</title>
<path fill="none" stroke="black" d="M611.58,-287.7C618.44,-279.56 626.76,-269.69 634.34,-260.7"/>
<polygon fill="black" stroke="black" points="636.84,-263.16 640.61,-253.26 631.49,-258.65 636.84,-263.16"/>
</g>
<!-- 12&#45;&gt;11 -->
<g id="edge12" class="edge">
<title>12&#45;&gt;11</title>
<path fill="none" stroke="black" d="M700.42,-287.7C693.56,-279.56 685.24,-269.69 677.66,-260.7"/>
<polygon fill="black" stroke="black" points="680.51,-258.65 671.39,-253.26 675.16,-263.16 680.51,-258.65"/>
</g>
<!-- 9 -->
<g id="node12" class="node">
<title>9</title>
<polygon fill="none" stroke="black" points="587.5,-180 478.5,-180 478.5,-144 587.5,-144 587.5,-180"/>
<text text-anchor="middle" x="533" y="-156.95" font-family="Times,serif" font-size="14.00">valence_protocol</text>
</g>
<!-- 11&#45;&gt;9 -->
<g id="edge11" class="edge">
<title>11&#45;&gt;9</title>
<path fill="none" stroke="black" d="M625.28,-215.52C609.46,-206.51 589.97,-195.42 572.99,-185.76"/>
<polygon fill="black" stroke="black" points="575.07,-182.91 564.64,-181.01 571.6,-189 575.07,-182.91"/>
</g>
<!-- 4 -->
<g id="node7" class="node">
<title>4</title>
<polygon fill="none" stroke="black" points="532.25,-108 415.75,-108 415.75,-72 532.25,-72 532.25,-108"/>
<text text-anchor="middle" x="474" y="-84.95" font-family="Times,serif" font-size="14.00">valence_generated</text>
</g>
<!-- 5 -->
<g id="node8" class="node">
<title>5</title>
<polygon fill="none" stroke="black" points="581.5,-36 490.5,-36 490.5,0 581.5,0 581.5,-36"/>
<text text-anchor="middle" x="536" y="-12.95" font-family="Times,serif" font-size="14.00">valence_ident</text>
</g>
<!-- 4&#45;&gt;5 -->
<g id="edge5" class="edge">
<title>4&#45;&gt;5</title>
<path fill="none" stroke="black" d="M489.33,-71.7C496.53,-63.56 505.28,-53.69 513.24,-44.7"/>
<polygon fill="black" stroke="black" points="515.84,-47.04 519.85,-37.24 510.6,-42.4 515.84,-47.04"/>
</g>
<!-- 6 -->
<g id="node9" class="node">
<title>6</title>
<polygon fill="none" stroke="black" points="472.88,-36 381.12,-36 381.12,0 472.88,0 472.88,-36"/>
<text text-anchor="middle" x="427" y="-12.95" font-family="Times,serif" font-size="14.00">valence_math</text>
</g>
<!-- 4&#45;&gt;6 -->
<g id="edge6" class="edge">
<title>4&#45;&gt;6</title>
<path fill="none" stroke="black" d="M462.38,-71.7C457.09,-63.81 450.7,-54.3 444.82,-45.55"/>
<polygon fill="black" stroke="black" points="447.81,-43.71 439.33,-37.36 442,-47.61 447.81,-43.71"/>
</g>
<!-- 7 -->
<g id="node10" class="node">
<title>7</title>
<polygon fill="none" stroke="black" points="888.88,-612 767.12,-612 767.12,-576 888.88,-576 888.88,-612"/>
<text text-anchor="middle" x="828" y="-588.95" font-family="Times,serif" font-size="14.00">valence_build_utils</text>
</g>
<!-- 8 -->
<g id="node11" class="node">
<title>8</title>
<polygon fill="none" stroke="black" points="680.62,-36 599.38,-36 599.38,0 680.62,0 680.62,-36"/>
<text text-anchor="middle" x="640" y="-12.95" font-family="Times,serif" font-size="14.00">valence_nbt</text>
</g>
<!-- 9&#45;&gt;4 -->
<g id="edge7" class="edge">
<title>9&#45;&gt;4</title>
<path fill="none" stroke="black" d="M518.42,-143.7C511.56,-135.56 503.24,-125.69 495.66,-116.7"/>
<polygon fill="black" stroke="black" points="498.51,-114.65 489.39,-109.26 493.16,-119.16 498.51,-114.65"/>
</g>
<!-- 10 -->
<g id="node13" class="node">
<title>10</title>
<polygon fill="none" stroke="black" points="634.12,-108 549.88,-108 549.88,-72 634.12,-72 634.12,-108"/>
<text text-anchor="middle" x="592" y="-84.95" font-family="Times,serif" font-size="14.00">valence_text</text>
</g>
<!-- 9&#45;&gt;10 -->
<g id="edge8" class="edge">
<title>9&#45;&gt;10</title>
<path fill="none" stroke="black" d="M547.58,-143.7C554.44,-135.56 562.76,-125.69 570.34,-116.7"/>
<polygon fill="black" stroke="black" points="572.84,-119.16 576.61,-109.26 567.49,-114.65 572.84,-119.16"/>
</g>
<!-- 10&#45;&gt;5 -->
<g id="edge9" class="edge">
<title>10&#45;&gt;5</title>
<path fill="none" stroke="black" d="M578.16,-71.7C571.71,-63.64 563.92,-53.89 556.79,-44.98"/>
<polygon fill="black" stroke="black" points="559.61,-42.91 550.63,-37.29 554.14,-47.28 559.61,-42.91"/>
</g>
<!-- 10&#45;&gt;8 -->
<g id="edge10" class="edge">
<title>10&#45;&gt;8</title>
<path fill="none" stroke="black" d="M603.87,-71.7C609.27,-63.81 615.79,-54.3 621.8,-45.55"/>
<polygon fill="black" stroke="black" points="624.65,-47.58 627.42,-37.35 618.87,-43.62 624.65,-47.58"/>
</g>
<!-- 13 -->
<g id="node14" class="node">
<title>13</title>
<polygon fill="none" stroke="black" points="245.5,-468 154.5,-468 154.5,-432 245.5,-432 245.5,-468"/>
<text text-anchor="middle" x="200" y="-444.95" font-family="Times,serif" font-size="14.00">valence_anvil</text>
</g>
<!-- 13&#45;&gt;2 -->
<g id="edge13" class="edge">
<title>13&#45;&gt;2</title>
<path fill="none" stroke="black" stroke-dasharray="1,5" d="M245.76,-434.22C248.87,-433.41 251.97,-432.66 255,-432 374.49,-405.83 517.02,-390.74 595.92,-383.76"/>
<polygon fill="black" stroke="black" points="595.92,-387.28 605.58,-382.92 595.31,-380.3 595.92,-387.28"/>
</g>
<!-- 14 -->
<g id="node15" class="node">
<title>14</title>
<polygon fill="none" stroke="black" points="376,-468 264,-468 264,-432 376,-432 376,-468"/>
<text text-anchor="middle" x="320" y="-444.95" font-family="Times,serif" font-size="14.00">valence_boss_bar</text>
</g>
<!-- 14&#45;&gt;2 -->
<g id="edge14" class="edge">
<title>14&#45;&gt;2</title>
<path fill="none" stroke="black" d="M376.32,-434.04C379.25,-433.33 382.16,-432.65 385,-432 457.21,-415.51 540.98,-399.62 596.04,-389.61"/>
<polygon fill="black" stroke="black" points="596.64,-393.06 605.85,-387.84 595.39,-386.17 596.64,-393.06"/>
</g>
<!-- 15 -->
<g id="node16" class="node">
<title>15</title>
<polygon fill="none" stroke="black" points="512.38,-468 393.62,-468 393.62,-432 512.38,-432 512.38,-468"/>
<text text-anchor="middle" x="453" y="-444.95" font-family="Times,serif" font-size="14.00">valence_command</text>
</g>
<!-- 15&#45;&gt;2 -->
<g id="edge15" class="edge">
<title>15&#45;&gt;2</title>
<path fill="none" stroke="black" d="M503.7,-431.52C531.94,-421.78 567.25,-409.6 596.76,-399.43"/>
<polygon fill="black" stroke="black" points="597.6,-402.84 605.91,-396.27 595.32,-396.22 597.6,-402.84"/>
</g>
<!-- 16 -->
<g id="node17" class="node">
<title>16</title>
<polygon fill="none" stroke="black" points="645.88,-468 530.12,-468 530.12,-432 645.88,-432 645.88,-468"/>
<text text-anchor="middle" x="588" y="-444.95" font-family="Times,serif" font-size="14.00">valence_inventory</text>
</g>
<!-- 16&#45;&gt;2 -->
<g id="edge16" class="edge">
<title>16&#45;&gt;2</title>
<path fill="none" stroke="black" d="M604.81,-431.7C612.88,-423.39 622.7,-413.28 631.58,-404.14"/>
<polygon fill="black" stroke="black" points="633.87,-406.8 638.33,-397.19 628.85,-401.92 633.87,-406.8"/>
</g>
<!-- 17 -->
<g id="node18" class="node">
<title>17</title>
<polygon fill="none" stroke="black" points="1321.62,-396 1234.38,-396 1234.38,-360 1321.62,-360 1321.62,-396"/>
<text text-anchor="middle" x="1278" y="-372.95" font-family="Times,serif" font-size="14.00">valence_lang</text>
</g>
<!-- 18 -->
<g id="node19" class="node">
<title>18</title>
<polygon fill="none" stroke="black" points="1332.12,-468 1223.88,-468 1223.88,-432 1332.12,-432 1332.12,-468"/>
<text text-anchor="middle" x="1278" y="-444.95" font-family="Times,serif" font-size="14.00">valence_network</text>
</g>
<!-- 18&#45;&gt;2 -->
<g id="edge17" class="edge">
<title>18&#45;&gt;2</title>
<path fill="none" stroke="black" d="M1223.49,-433.69C1220.63,-433.07 1217.79,-432.5 1215,-432 1035.35,-399.49 819.38,-386.18 716.38,-381.38"/>
<polygon fill="black" stroke="black" points="716.64,-377.89 706.49,-380.93 716.32,-384.88 716.64,-377.89"/>
</g>
<!-- 18&#45;&gt;17 -->
<g id="edge18" class="edge">
<title>18&#45;&gt;17</title>
<path fill="none" stroke="black" d="M1278,-431.7C1278,-424.41 1278,-415.73 1278,-407.54"/>
<polygon fill="black" stroke="black" points="1281.5,-407.62 1278,-397.62 1274.5,-407.62 1281.5,-407.62"/>
</g>
<!-- 19 -->
<g id="node20" class="node">
<title>19</title>
<polygon fill="none" stroke="black" points="784.5,-468 663.5,-468 663.5,-432 784.5,-432 784.5,-468"/>
<text text-anchor="middle" x="724" y="-444.95" font-family="Times,serif" font-size="14.00">valence_player_list</text>
</g>
<!-- 19&#45;&gt;2 -->
<g id="edge19" class="edge">
<title>19&#45;&gt;2</title>
<path fill="none" stroke="black" d="M707.19,-431.7C699.12,-423.39 689.3,-413.28 680.42,-404.14"/>
<polygon fill="black" stroke="black" points="683.15,-401.92 673.67,-397.19 678.13,-406.8 683.15,-401.92"/>
</g>
<!-- 20 -->
<g id="node21" class="node">
<title>20</title>
<polygon fill="none" stroke="black" points="925.62,-468 802.38,-468 802.38,-432 925.62,-432 925.62,-468"/>
<text text-anchor="middle" x="864" y="-444.95" font-family="Times,serif" font-size="14.00">valence_scoreboard</text>
</g>
<!-- 20&#45;&gt;2 -->
<g id="edge20" class="edge">
<title>20&#45;&gt;2</title>
<path fill="none" stroke="black" d="M812.05,-431.52C782.79,-421.67 746.13,-409.33 715.7,-399.09"/>
<polygon fill="black" stroke="black" points="716.82,-395.78 706.22,-395.9 714.59,-402.41 716.82,-395.78"/>
</g>
<!-- 21 -->
<g id="node22" class="node">
<title>21</title>
<polygon fill="none" stroke="black" points="1006.62,-612 907.38,-612 907.38,-576 1006.62,-576 1006.62,-612"/>
<text text-anchor="middle" x="957" y="-588.95" font-family="Times,serif" font-size="14.00">valence_spatial</text>
</g>
<!-- 22 -->
<g id="node23" class="node">
<title>22</title>
<polygon fill="none" stroke="black" points="1050.38,-468 943.62,-468 943.62,-432 1050.38,-432 1050.38,-468"/>
<text text-anchor="middle" x="997" y="-444.95" font-family="Times,serif" font-size="14.00">valence_weather</text>
</g>
<!-- 22&#45;&gt;2 -->
<g id="edge21" class="edge">
<title>22&#45;&gt;2</title>
<path fill="none" stroke="black" d="M943.3,-433.99C940.5,-433.3 937.72,-432.63 935,-432 860.07,-414.64 772.86,-398.76 716.15,-389"/>
<polygon fill="black" stroke="black" points="716.82,-385.56 706.38,-387.32 715.64,-392.46 716.82,-385.56"/>
</g>
<!-- 23 -->
<g id="node24" class="node">
<title>23</title>
<polygon fill="none" stroke="black" points="1205.75,-468 1068.25,-468 1068.25,-432 1205.75,-432 1205.75,-468"/>
<text text-anchor="middle" x="1137" y="-444.95" font-family="Times,serif" font-size="14.00">valence_world_border</text>
</g>
<!-- 23&#45;&gt;2 -->
<g id="edge22" class="edge">
<title>23&#45;&gt;2</title>
<path fill="none" stroke="black" d="M1068.16,-433.67C1065.07,-433.08 1062,-432.52 1059,-432 937.91,-410.88 795.03,-393.96 716.07,-385.31"/>
<polygon fill="black" stroke="black" points="716.72,-381.86 706.4,-384.26 715.96,-388.82 716.72,-381.86"/>
</g>
<!-- 24 -->
<g id="node25" class="node">
<title>24</title>
<polygon fill="none" stroke="black" points="652.75,-612 551.25,-612 551.25,-576 652.75,-576 652.75,-612"/>
<text text-anchor="middle" x="602" y="-588.95" font-family="Times,serif" font-size="14.00">dump_schedule</text>
</g>
<!-- 25 -->
<g id="node26" class="node">
<title>25</title>
<polygon fill="none" stroke="black" points="684.62,-540 627.38,-540 627.38,-504 684.62,-504 684.62,-540"/>
<text text-anchor="middle" x="656" y="-516.95" font-family="Times,serif" font-size="14.00">valence</text>
</g>
<!-- 24&#45;&gt;25 -->
<g id="edge23" class="edge">
<title>24&#45;&gt;25</title>
<path fill="none" stroke="black" d="M615.35,-575.7C621.56,-567.64 629.08,-557.89 635.96,-548.98"/>
<polygon fill="black" stroke="black" points="638.54,-551.36 641.88,-541.3 633,-547.08 638.54,-551.36"/>
</g>
<!-- 25&#45;&gt;1 -->
<g id="edge24" class="edge">
<title>25&#45;&gt;1</title>
<path fill="none" stroke="black" stroke-dasharray="1,5" d="M627.03,-519.16C550.4,-514.04 335.86,-498.11 147.58,-468.31"/>
<polygon fill="black" stroke="black" points="148.28,-464.88 137.85,-466.75 147.17,-471.79 148.28,-464.88"/>
</g>
<!-- 25&#45;&gt;13 -->
<g id="edge25" class="edge">
<title>25&#45;&gt;13</title>
<path fill="none" stroke="black" stroke-dasharray="1,5" d="M627.02,-518.85C562.3,-513.7 401.01,-498.9 256.98,-468.21"/>
<polygon fill="black" stroke="black" points="257.76,-464.79 247.24,-466.1 256.27,-471.64 257.76,-464.79"/>
</g>
<!-- 25&#45;&gt;14 -->
<g id="edge26" class="edge">
<title>25&#45;&gt;14</title>
<path fill="none" stroke="black" stroke-dasharray="1,5" d="M627,-515.94C579.17,-507.47 480.52,-489.45 387.35,-468.47"/>
<polygon fill="black" stroke="black" points="388.32,-465.1 377.79,-466.29 386.77,-471.92 388.32,-465.1"/>
</g>
<!-- 25&#45;&gt;15 -->
<g id="edge27" class="edge">
<title>25&#45;&gt;15</title>
<path fill="none" stroke="black" stroke-dasharray="1,5" d="M626.92,-510.97C597.68,-500.89 551.72,-485.04 514.38,-472.17"/>
<polygon fill="black" stroke="black" points="515.63,-468.89 505.04,-468.94 513.35,-475.51 515.63,-468.89"/>
</g>
<!-- 25&#45;&gt;16 -->
<g id="edge28" class="edge">
<title>25&#45;&gt;16</title>
<path fill="none" stroke="black" stroke-dasharray="1,5" d="M639.19,-503.7C631.12,-495.39 621.3,-485.28 612.42,-476.14"/>
<polygon fill="black" stroke="black" points="615.15,-473.92 605.67,-469.19 610.13,-478.8 615.15,-473.92"/>
</g>
<!-- 25&#45;&gt;18 -->
<g id="edge29" class="edge">
<title>25&#45;&gt;18</title>
<path fill="none" stroke="black" stroke-dasharray="1,5" d="M685.04,-519.98C766.75,-516.74 1005.68,-504.76 1212.43,-468.29"/>
<polygon fill="black" stroke="black" points="1212.78,-471.79 1222,-466.58 1211.54,-464.9 1212.78,-471.79"/>
</g>
<!-- 25&#45;&gt;19 -->
<g id="edge30" class="edge">
<title>25&#45;&gt;19</title>
<path fill="none" stroke="black" stroke-dasharray="1,5" d="M672.81,-503.7C680.88,-495.39 690.7,-485.28 699.58,-476.14"/>
<polygon fill="black" stroke="black" points="701.87,-478.8 706.33,-469.19 696.85,-473.92 701.87,-478.8"/>
</g>
<!-- 25&#45;&gt;20 -->
<g id="edge31" class="edge">
<title>25&#45;&gt;20</title>
<path fill="none" stroke="black" stroke-dasharray="1,5" d="M684.92,-511.27C714.92,-501.17 762.76,-485.07 801.45,-472.05"/>
<polygon fill="black" stroke="black" points="802.3,-475.46 810.67,-468.95 800.07,-468.82 802.3,-475.46"/>
</g>
<!-- 25&#45;&gt;22 -->
<g id="edge32" class="edge">
<title>25&#45;&gt;22</title>
<path fill="none" stroke="black" stroke-dasharray="1,5" d="M685.08,-516.26C734.1,-508.11 836.49,-490.36 932.26,-468.55"/>
<polygon fill="black" stroke="black" points="932.86,-472 941.82,-466.35 931.29,-465.18 932.86,-472"/>
</g>
<!-- 25&#45;&gt;23 -->
<g id="edge33" class="edge">
<title>25&#45;&gt;23</title>
<path fill="none" stroke="black" stroke-dasharray="1,5" d="M684.96,-518.03C749.74,-511.22 911.46,-493.22 1057.25,-468.22"/>
<polygon fill="black" stroke="black" points="1057.41,-471.75 1066.67,-466.59 1056.22,-464.85 1057.41,-471.75"/>
</g>
<!-- 26 -->
<g id="node27" class="node">
<title>26</title>
<polygon fill="none" stroke="black" points="486.75,-252 379.25,-252 379.25,-216 486.75,-216 486.75,-252"/>
<text text-anchor="middle" x="433" y="-228.95" font-family="Times,serif" font-size="14.00">packet_inspector</text>
</g>
<!-- 26&#45;&gt;9 -->
<g id="edge34" class="edge">
<title>26&#45;&gt;9</title>
<path fill="none" stroke="black" d="M457.98,-215.52C470.36,-206.85 485.5,-196.25 498.93,-186.85"/>
<polygon fill="black" stroke="black" points="500.92,-189.73 507.1,-181.13 496.9,-184 500.92,-189.73"/>
</g>
<!-- 27 -->
<g id="node28" class="node">
<title>27</title>
<polygon fill="none" stroke="black" points="748.75,-612 671.25,-612 671.25,-576 748.75,-576 748.75,-612"/>
<text text-anchor="middle" x="710" y="-588.95" font-family="Times,serif" font-size="14.00">playground</text>
</g>
<!-- 27&#45;&gt;25 -->
<g id="edge35" class="edge">
<title>27&#45;&gt;25</title>
<path fill="none" stroke="black" d="M696.65,-575.7C690.44,-567.64 682.92,-557.89 676.04,-548.98"/>
<polygon fill="black" stroke="black" points="679,-547.08 670.12,-541.3 673.46,-551.36 679,-547.08"/>
</g>
<!-- 28 -->
<g id="node29" class="node">
<title>28</title>
<polygon fill="none" stroke="black" points="561.25,-252 504.75,-252 504.75,-216 561.25,-216 561.25,-252"/>
<text text-anchor="middle" x="533" y="-228.95" font-family="Times,serif" font-size="14.00">stresser</text>
</g>
<!-- 28&#45;&gt;9 -->
<g id="edge36" class="edge">
<title>28&#45;&gt;9</title>
<path fill="none" stroke="black" d="M533,-215.7C533,-208.41 533,-199.73 533,-191.54"/>
<polygon fill="black" stroke="black" points="536.5,-191.62 533,-181.62 529.5,-191.62 536.5,-191.62"/>
</g>
</g>
</svg>
<?xml version="1.0" encoding="UTF-8" standalone="no"?>
<!DOCTYPE svg PUBLIC "-//W3C//DTD SVG 1.1//EN"
 "http://www.w3.org/Graphics/SVG/1.1/DTD/svg11.dtd">
<!-- Generated by graphviz version 2.43.0 (0)
 -->
<!-- Title: %3 Pages: 1 -->
<svg width="1644pt" height="620pt"
 viewBox="0.00 0.00 1643.50 620.00" xmlns="http://www.w3.org/2000/svg" xmlns:xlink="http://www.w3.org/1999/xlink">
<g id="graph0" class="graph" transform="scale(1 1) rotate(0) translate(4 616)">
<title>%3</title>
<polygon fill="white" stroke="transparent" points="-4,4 -4,-616 1639.5,-616 1639.5,4 -4,4"/>
<!-- 0 -->
<g id="node1" class="node">
<title>0</title>
<polygon fill="none" stroke="black" points="653,-612 558,-612 558,-576 653,-576 653,-612"/>
<text text-anchor="middle" x="605.5" y="-590.3" font-family="Times,serif" font-size="14.00">java_string</text>
</g>
<!-- 1 -->
<g id="node2" class="node">
<title>1</title>
<polygon fill="none" stroke="black" points="173,-468 0,-468 0,-432 173,-432 173,-468"/>
<text text-anchor="middle" x="86.5" y="-446.3" font-family="Times,serif" font-size="14.00">valence_advancement</text>
</g>
<!-- 2 -->
<g id="node3" class="node">
<title>2</title>
<polygon fill="none" stroke="black" points="862,-396 739,-396 739,-360 862,-360 862,-396"/>
<text text-anchor="middle" x="800.5" y="-374.3" font-family="Times,serif" font-size="14.00">valence_server</text>
</g>
<!-- 1&#45;&gt;2 -->
<g id="edge1" class="edge">
<title>1&#45;&gt;2</title>
<path fill="none" stroke="black" d="M173.05,-433.3C176.24,-432.84 179.4,-432.41 182.5,-432 379.42,-406.17 613.37,-390.05 728.78,-383.06"/>
<polygon fill="black" stroke="black" points="729.13,-386.54 738.9,-382.45 728.71,-379.55 729.13,-386.54"/>
</g>
<!-- 3 -->
<g id="node4" class="node">
<title>3</title>
<polygon fill="none" stroke="black" points="788,-324 669,-324 669,-288 788,-288 788,-324"/>
<text text-anchor="middle" x="728.5" y="-302.3" font-family="Times,serif" font-size="14.00">valence_entity</text>
</g>
<!-- 2&#45;&gt;3 -->
<g id="edge2" class="edge">
<title>2&#45;&gt;3</title>
<path fill="none" stroke="black" d="M782.7,-359.7C773.9,-351.14 763.12,-340.66 753.5,-331.3"/>
<polygon fill="black" stroke="black" points="755.7,-328.57 746.09,-324.1 750.82,-333.58 755.7,-328.57"/>
</g>
<!-- 12 -->
<g id="node5" class="node">
<title>12</title>
<polygon fill="none" stroke="black" points="940.5,-324 806.5,-324 806.5,-288 940.5,-288 940.5,-324"/>
<text text-anchor="middle" x="873.5" y="-302.3" font-family="Times,serif" font-size="14.00">valence_registry</text>
</g>
<!-- 2&#45;&gt;12 -->
<g id="edge3" class="edge">
<title>2&#45;&gt;12</title>
<path fill="none" stroke="black" d="M818.54,-359.7C827.56,-351.05 838.62,-340.45 848.44,-331.03"/>
<polygon fill="black" stroke="black" points="850.87,-333.55 855.66,-324.1 846.02,-328.5 850.87,-333.55"/>
</g>
<!-- 11 -->
<g id="node6" class="node">
<title>11</title>
<polygon fill="none" stroke="black" points="895.5,-252 705.5,-252 705.5,-216 895.5,-216 895.5,-252"/>
<text text-anchor="middle" x="800.5" y="-230.3" font-family="Times,serif" font-size="14.00">valence_server_common</text>
</g>
<!-- 3&#45;&gt;11 -->
<g id="edge4" class="edge">
<title>3&#45;&gt;11</title>
<path fill="none" stroke="black" d="M746.3,-287.7C755.1,-279.14 765.88,-268.66 775.5,-259.3"/>
<polygon fill="black" stroke="black" points="778.18,-261.58 782.91,-252.1 773.3,-256.57 778.18,-261.58"/>
</g>
<!-- 12&#45;&gt;11 -->
<g id="edge12" class="edge">
<title>12&#45;&gt;11</title>
<path fill="none" stroke="black" d="M855.46,-287.7C846.44,-279.05 835.38,-268.45 825.56,-259.03"/>
<polygon fill="black" stroke="black" points="827.98,-256.5 818.34,-252.1 823.13,-261.55 827.98,-256.5"/>
</g>
<!-- 9 -->
<g id="node12" class="node">
<title>9</title>
<polygon fill="none" stroke="black" points="717.5,-180 581.5,-180 581.5,-144 717.5,-144 717.5,-180"/>
<text text-anchor="middle" x="649.5" y="-158.3" font-family="Times,serif" font-size="14.00">valence_protocol</text>
</g>
<!-- 11&#45;&gt;9 -->
<g id="edge11" class="edge">
<title>11&#45;&gt;9</title>
<path fill="none" stroke="black" d="M763.56,-215.88C743.01,-206.35 717.25,-194.41 695.41,-184.28"/>
<polygon fill="black" stroke="black" points="696.86,-181.1 686.32,-180.07 693.92,-187.45 696.86,-181.1"/>
</g>
<!-- 4 -->
<g id="node7" class="node">
<title>4</title>
<polygon fill="none" stroke="black" points="651.5,-108 501.5,-108 501.5,-72 651.5,-72 651.5,-108"/>
<text text-anchor="middle" x="576.5" y="-86.3" font-family="Times,serif" font-size="14.00">valence_generated</text>
</g>
<!-- 5 -->
<g id="node8" class="node">
<title>5</title>
<polygon fill="none" stroke="black" points="709.5,-36 595.5,-36 595.5,0 709.5,0 709.5,-36"/>
<text text-anchor="middle" x="652.5" y="-14.3" font-family="Times,serif" font-size="14.00">valence_ident</text>
</g>
<!-- 4&#45;&gt;5 -->
<g id="edge5" class="edge">
<title>4&#45;&gt;5</title>
<path fill="none" stroke="black" d="M595.29,-71.7C604.67,-63.05 616.18,-52.45 626.41,-43.03"/>
<polygon fill="black" stroke="black" points="628.95,-45.45 633.93,-36.1 624.2,-40.3 628.95,-45.45"/>
</g>
<!-- 6 -->
<g id="node9" class="node">
<title>6</title>
<polygon fill="none" stroke="black" points="577.5,-36 463.5,-36 463.5,0 577.5,0 577.5,-36"/>
<text text-anchor="middle" x="520.5" y="-14.3" font-family="Times,serif" font-size="14.00">valence_math</text>
</g>
<!-- 4&#45;&gt;6 -->
<g id="edge6" class="edge">
<title>4&#45;&gt;6</title>
<path fill="none" stroke="black" d="M562.66,-71.7C556.01,-63.39 547.92,-53.28 540.61,-44.14"/>
<polygon fill="black" stroke="black" points="543.16,-41.73 534.18,-36.1 537.7,-46.1 543.16,-41.73"/>
</g>
<!-- 7 -->
<g id="node10" class="node">
<title>7</title>
<polygon fill="none" stroke="black" points="1084.5,-612 932.5,-612 932.5,-576 1084.5,-576 1084.5,-612"/>
<text text-anchor="middle" x="1008.5" y="-590.3" font-family="Times,serif" font-size="14.00">valence_build_utils</text>
</g>
<!-- 8 -->
<g id="node11" class="node">
<title>8</title>
<polygon fill="none" stroke="black" points="829,-36 728,-36 728,0 829,0 829,-36"/>
<text text-anchor="middle" x="778.5" y="-14.3" font-family="Times,serif" font-size="14.00">valence_nbt</text>
</g>
<!-- 9&#45;&gt;4 -->
<g id="edge7" class="edge">
<title>9&#45;&gt;4</title>
<path fill="none" stroke="black" d="M631.46,-143.7C622.44,-135.05 611.38,-124.45 601.56,-115.03"/>
<polygon fill="black" stroke="black" points="603.98,-112.5 594.34,-108.1 599.13,-117.55 603.98,-112.5"/>
</g>
<!-- 10 -->
<g id="node13" class="node">
<title>10</title>
<polygon fill="none" stroke="black" points="775.5,-108 669.5,-108 669.5,-72 775.5,-72 775.5,-108"/>
<text text-anchor="middle" x="722.5" y="-86.3" font-family="Times,serif" font-size="14.00">valence_text</text>
</g>
<!-- 9&#45;&gt;10 -->
<g id="edge8" class="edge">
<title>9&#45;&gt;10</title>
<path fill="none" stroke="black" d="M667.54,-143.7C676.56,-135.05 687.62,-124.45 697.44,-115.03"/>
<polygon fill="black" stroke="black" points="699.87,-117.55 704.66,-108.1 695.02,-112.5 699.87,-117.55"/>
</g>
<!-- 10&#45;&gt;5 -->
<g id="edge9" class="edge">
<title>10&#45;&gt;5</title>
<path fill="none" stroke="black" d="M705.2,-71.7C696.64,-63.14 686.16,-52.66 676.8,-43.3"/>
<polygon fill="black" stroke="black" points="679.15,-40.7 669.6,-36.1 674.2,-45.65 679.15,-40.7"/>
</g>
<!-- 10&#45;&gt;8 -->
<g id="edge10" class="edge">
<title>10&#45;&gt;8</title>
<path fill="none" stroke="black" d="M736.34,-71.7C742.99,-63.39 751.08,-53.28 758.39,-44.14"/>
<polygon fill="black" stroke="black" points="761.3,-46.1 764.82,-36.1 755.84,-41.73 761.3,-46.1"/>
</g>
<!-- 13 -->
<g id="node14" class="node">
<title>13</title>
<polygon fill="none" stroke="black" points="303.5,-468 191.5,-468 191.5,-432 303.5,-432 303.5,-468"/>
<text text-anchor="middle" x="247.5" y="-446.3" font-family="Times,serif" font-size="14.00">valence_anvil</text>
</g>
<!-- 13&#45;&gt;2 -->
<g id="edge13" class="edge">
<title>13&#45;&gt;2</title>
<path fill="none" stroke="black" stroke-dasharray="1,5" d="M303.76,-433.74C306.7,-433.11 309.63,-432.53 312.5,-432 459.07,-405.03 633.12,-390.17 728.7,-383.47"/>
<polygon fill="black" stroke="black" points="729.1,-386.95 738.83,-382.77 728.62,-379.97 729.1,-386.95"/>
</g>
<!-- 14 -->
<g id="node15" class="node">
<title>14</title>
<polygon fill="none" stroke="black" points="461.5,-468 321.5,-468 321.5,-432 461.5,-432 461.5,-468"/>
<text text-anchor="middle" x="391.5" y="-446.3" font-family="Times,serif" font-size="14.00">valence_boss_bar</text>
</g>
<!-- 14&#45;&gt;2 -->
<g id="edge14" class="edge">
<title>14&#45;&gt;2</title>
<path fill="none" stroke="black" d="M461.67,-433.7C464.65,-433.11 467.6,-432.54 470.5,-432 559.19,-415.35 661.91,-399.37 728.88,-389.39"/>
<polygon fill="black" stroke="black" points="729.53,-392.83 738.9,-387.9 728.5,-385.91 729.53,-392.83"/>
</g>
<!-- 15 -->
<g id="node16" class="node">
<title>15</title>
<polygon fill="none" stroke="black" points="625.5,-468 479.5,-468 479.5,-432 625.5,-432 625.5,-468"/>
<text text-anchor="middle" x="552.5" y="-446.3" font-family="Times,serif" font-size="14.00">valence_command</text>
</g>
<!-- 15&#45;&gt;2 -->
<g id="edge15" class="edge">
<title>15&#45;&gt;2</title>
<path fill="none" stroke="black" d="M612.85,-431.97C648.25,-421.97 693.16,-409.3 730.16,-398.85"/>
<polygon fill="black" stroke="black" points="731.21,-402.2 739.88,-396.11 729.3,-395.46 731.21,-402.2"/>
</g>
<!-- 16 -->
<g id="node17" class="node">
<title>16</title>
<polygon fill="none" stroke="black" points="789.5,-468 643.5,-468 643.5,-432 789.5,-432 789.5,-468"/>
<text text-anchor="middle" x="716.5" y="-446.3" font-family="Times,serif" font-size="14.00">valence_inventory</text>
</g>
<!-- 16&#45;&gt;2 -->
<g id="edge16" class="edge">
<title>16&#45;&gt;2</title>
<path fill="none" stroke="black" d="M737.26,-431.7C747.74,-422.97 760.61,-412.24 772,-402.75"/>
<polygon fill="black" stroke="black" points="774.53,-405.19 779.97,-396.1 770.05,-399.82 774.53,-405.19"/>
</g>
<!-- 17 -->
<g id="node18" class="node">
<title>17</title>
<polygon fill="none" stroke="black" points="1621.5,-396 1513.5,-396 1513.5,-360 1621.5,-360 1621.5,-396"/>
<text text-anchor="middle" x="1567.5" y="-374.3" font-family="Times,serif" font-size="14.00">valence_lang</text>
</g>
<!-- 18 -->
<g id="node19" class="node">
<title>18</title>
<polygon fill="none" stroke="black" points="1635.5,-468 1499.5,-468 1499.5,-432 1635.5,-432 1635.5,-468"/>
<text text-anchor="middle" x="1567.5" y="-446.3" font-family="Times,serif" font-size="14.00">valence_network</text>
</g>
<!-- 18&#45;&gt;2 -->
<g id="edge17" class="edge">
<title>18&#45;&gt;2</title>
<path fill="none" stroke="black" d="M1499.16,-433.39C1496.24,-432.89 1493.34,-432.42 1490.5,-432 1266.53,-398.84 998.39,-385.78 872.49,-381.2"/>
<polygon fill="black" stroke="black" points="872.33,-377.69 862.21,-380.83 872.08,-384.68 872.33,-377.69"/>
</g>
<!-- 18&#45;&gt;17 -->
<g id="edge18" class="edge">
<title>18&#45;&gt;17</title>
<path fill="none" stroke="black" d="M1567.5,-431.7C1567.5,-423.98 1567.5,-414.71 1567.5,-406.11"/>
<polygon fill="black" stroke="black" points="1571,-406.1 1567.5,-396.1 1564,-406.1 1571,-406.1"/>
</g>
<!-- 19 -->
<g id="node20" class="node">
<title>19</title>
<polygon fill="none" stroke="black" points="959.5,-468 807.5,-468 807.5,-432 959.5,-432 959.5,-468"/>
<text text-anchor="middle" x="883.5" y="-446.3" font-family="Times,serif" font-size="14.00">valence_player_list</text>
</g>
<!-- 19&#45;&gt;2 -->
<g id="edge19" class="edge">
<title>19&#45;&gt;2</title>
<path fill="none" stroke="black" d="M862.98,-431.7C852.63,-422.97 839.91,-412.24 828.66,-402.75"/>
<polygon fill="black" stroke="black" points="830.68,-399.88 820.78,-396.1 826.17,-405.23 830.68,-399.88"/>
</g>
<!-- 20 -->
<g id="node21" class="node">
<title>20</title>
<polygon fill="none" stroke="black" points="1135,-468 978,-468 978,-432 1135,-432 1135,-468"/>
<text text-anchor="middle" x="1056.5" y="-446.3" font-family="Times,serif" font-size="14.00">valence_scoreboard</text>
</g>
<!-- 20&#45;&gt;2 -->
<g id="edge20" class="edge">
<title>20&#45;&gt;2</title>
<path fill="none" stroke="black" d="M994.2,-431.97C957.38,-421.9 910.62,-409.11 872.26,-398.62"/>
<polygon fill="black" stroke="black" points="872.76,-395.13 862.19,-395.87 870.91,-401.88 872.76,-395.13"/>
</g>
<!-- 21 -->
<g id="node22" class="node">
<title>21</title>
<polygon fill="none" stroke="black" points="1228,-612 1103,-612 1103,-576 1228,-576 1228,-612"/>
<text text-anchor="middle" x="1165.5" y="-590.3" font-family="Times,serif" font-size="14.00">valence_spatial</text>
</g>
<!-- 22 -->
<g id="node23" class="node">
<title>22</title>
<polygon fill="none" stroke="black" points="1289.5,-468 1153.5,-468 1153.5,-432 1289.5,-432 1289.5,-468"/>
<text text-anchor="middle" x="1221.5" y="-446.3" font-family="Times,serif" font-size="14.00">valence_weather</text>
</g>
<!-- 22&#45;&gt;2 -->
<g id="edge21" class="edge">
<title>22&#45;&gt;2</title>
<path fill="none" stroke="black" d="M1153.11,-433.66C1150.21,-433.09 1147.33,-432.53 1144.5,-432 1050.81,-414.46 941.97,-398.41 872.22,-388.68"/>
<polygon fill="black" stroke="black" points="872.61,-385.2 862.22,-387.29 871.65,-392.13 872.61,-385.2"/>
</g>
<!-- 23 -->
<g id="node24" class="node">
<title>23</title>
<polygon fill="none" stroke="black" points="1481,-468 1308,-468 1308,-432 1481,-432 1481,-468"/>
<text text-anchor="middle" x="1394.5" y="-446.3" font-family="Times,serif" font-size="14.00">valence_world_border</text>
</g>
<!-- 23&#45;&gt;2 -->
<g id="edge22" class="edge">
<title>23&#45;&gt;2</title>
<path fill="none" stroke="black" d="M1307.94,-433.39C1304.75,-432.9 1301.6,-432.44 1298.5,-432 1147.18,-410.58 968.87,-393.58 871.98,-385.04"/>
<polygon fill="black" stroke="black" points="872.27,-381.55 862,-384.16 871.66,-388.53 872.27,-381.55"/>
</g>
<!-- 24 -->
<g id="node25" class="node">
<title>24</title>
<polygon fill="none" stroke="black" points="798,-612 671,-612 671,-576 798,-576 798,-612"/>
<text text-anchor="middle" x="734.5" y="-590.3" font-family="Times,serif" font-size="14.00">dump_schedule</text>
</g>
<!-- 25 -->
<g id="node26" class="node">
<title>25</title>
<polygon fill="none" stroke="black" points="835,-540 764,-540 764,-504 835,-504 835,-540"/>
<text text-anchor="middle" x="799.5" y="-518.3" font-family="Times,serif" font-size="14.00">valence</text>
</g>
<!-- 24&#45;&gt;25 -->
<g id="edge23" class="edge">
<title>24&#45;&gt;25</title>
<path fill="none" stroke="black" d="M750.57,-575.7C758.44,-567.22 768.06,-556.86 776.67,-547.58"/>
<polygon fill="black" stroke="black" points="779.38,-549.81 783.62,-540.1 774.25,-545.05 779.38,-549.81"/>
</g>
<!-- 25&#45;&gt;1 -->
<g id="edge24" class="edge">
<title>25&#45;&gt;1</title>
<path fill="none" stroke="black" stroke-dasharray="1,5" d="M763.91,-519.06C670.48,-513.74 410.4,-497.37 183.16,-468.01"/>
<polygon fill="black" stroke="black" points="183.42,-464.52 173.05,-466.69 182.52,-471.46 183.42,-464.52"/>
</g>
<!-- 25&#45;&gt;13 -->
<g id="edge25" class="edge">
<title>25&#45;&gt;13</title>
<path fill="none" stroke="black" stroke-dasharray="1,5" d="M763.8,-518.92C684.47,-513.92 487.48,-499.37 313.84,-468.1"/>
<polygon fill="black" stroke="black" points="314.22,-464.61 303.76,-466.26 312.97,-471.49 314.22,-464.61"/>
</g>
<!-- 25&#45;&gt;14 -->
<g id="edge26" class="edge">
<title>25&#45;&gt;14</title>
<path fill="none" stroke="black" stroke-dasharray="1,5" d="M763.85,-515.88C705.14,-507.31 584.18,-489.1 471.82,-468.2"/>
<polygon fill="black" stroke="black" points="472.15,-464.7 461.67,-466.3 470.86,-471.58 472.15,-464.7"/>
</g>
<!-- 25&#45;&gt;15 -->
<g id="edge27" class="edge">
<title>25&#45;&gt;15</title>
<path fill="none" stroke="black" stroke-dasharray="1,5" d="M763.85,-510.9C726.93,-500.43 668.29,-483.82 622.14,-470.74"/>
<polygon fill="black" stroke="black" points="623.07,-467.36 612.49,-468 621.16,-474.1 623.07,-467.36"/>
</g>
<!-- 25&#45;&gt;16 -->
<g id="edge28" class="edge">
<title>25&#45;&gt;16</title>
<path fill="none" stroke="black" stroke-dasharray="1,5" d="M778.98,-503.7C768.63,-494.97 755.91,-484.24 744.66,-474.75"/>
<polygon fill="black" stroke="black" points="746.68,-471.88 736.78,-468.1 742.17,-477.23 746.68,-471.88"/>
</g>
<!-- 25&#45;&gt;18 -->
<g id="edge29" class="edge">
<title>25&#45;&gt;18</title>
<path fill="none" stroke="black" stroke-dasharray="1,5" d="M835.3,-520.03C936.52,-516.91 1233.48,-505.17 1488.94,-468.11"/>
<polygon fill="black" stroke="black" points="1489.77,-471.53 1499.16,-466.61 1488.76,-464.6 1489.77,-471.53"/>
</g>
<!-- 25&#45;&gt;19 -->
<g id="edge30" class="edge">
<title>25&#45;&gt;19</title>
<path fill="none" stroke="black" stroke-dasharray="1,5" d="M820.26,-503.7C830.74,-494.97 843.61,-484.24 855,-474.75"/>
<polygon fill="black" stroke="black" points="857.53,-477.19 862.97,-468.1 853.05,-471.82 857.53,-477.19"/>
</g>
<!-- 25&#45;&gt;20 -->
<g id="edge31" class="edge">
<title>25&#45;&gt;20</title>
<path fill="none" stroke="black" stroke-dasharray="1,5" d="M835.23,-511.27C873.56,-500.83 935.45,-483.97 984.05,-470.73"/>
<polygon fill="black" stroke="black" points="985.16,-474.06 993.89,-468.05 983.32,-467.31 985.16,-474.06"/>
</g>
<!-- 25&#45;&gt;22 -->
<g id="edge32" class="edge">
<title>25&#45;&gt;22</title>
<path fill="none" stroke="black" stroke-dasharray="1,5" d="M835.39,-516.27C896.52,-508.04 1024.94,-490.02 1143.17,-468.19"/>
<polygon fill="black" stroke="black" points="1143.92,-471.61 1153.11,-466.34 1142.64,-464.73 1143.92,-471.61"/>
</g>
<!-- 25&#45;&gt;23 -->
<g id="edge33" class="edge">
<title>25&#45;&gt;23</title>
<path fill="none" stroke="black" stroke-dasharray="1,5" d="M835.3,-518.06C915.94,-511.25 1118.07,-493.14 1298.03,-468.01"/>
<polygon fill="black" stroke="black" points="1298.52,-471.47 1307.94,-466.61 1297.55,-464.54 1298.52,-471.47"/>
</g>
<!-- 26 -->
<g id="node27" class="node">
<title>26</title>
<polygon fill="none" stroke="black" points="594,-252 457,-252 457,-216 594,-216 594,-252"/>
<text text-anchor="middle" x="525.5" y="-230.3" font-family="Times,serif" font-size="14.00">packet_inspector</text>
</g>
<!-- 26&#45;&gt;9 -->
<g id="edge34" class="edge">
<title>26&#45;&gt;9</title>
<path fill="none" stroke="black" d="M555.83,-215.88C572.2,-206.64 592.58,-195.13 610.15,-185.21"/>
<polygon fill="black" stroke="black" points="612.06,-188.15 619.05,-180.19 608.62,-182.06 612.06,-188.15"/>
</g>
<!-- 27 -->
<g id="node28" class="node">
<title>27</title>
<polygon fill="none" stroke="black" points="914.5,-612 816.5,-612 816.5,-576 914.5,-576 914.5,-612"/>
<text text-anchor="middle" x="865.5" y="-590.3" font-family="Times,serif" font-size="14.00">playground</text>
</g>
<!-- 27&#45;&gt;25 -->
<g id="edge35" class="edge">
<title>27&#45;&gt;25</title>
<path fill="none" stroke="black" d="M849.19,-575.7C841.19,-567.22 831.43,-556.86 822.68,-547.58"/>
<polygon fill="black" stroke="black" points="825.03,-544.98 815.63,-540.1 819.94,-549.78 825.03,-544.98"/>
</g>
<!-- 28 -->
<g id="node29" class="node">
<title>28</title>
<polygon fill="none" stroke="black" points="687,-252 612,-252 612,-216 687,-216 687,-252"/>
<text text-anchor="middle" x="649.5" y="-230.3" font-family="Times,serif" font-size="14.00">stresser</text>
</g>
<!-- 28&#45;&gt;9 -->
<g id="edge36" class="edge">
<title>28&#45;&gt;9</title>
<path fill="none" stroke="black" d="M649.5,-215.7C649.5,-207.98 649.5,-198.71 649.5,-190.11"/>
<polygon fill="black" stroke="black" points="653,-190.1 649.5,-180.1 646,-190.1 653,-190.1"/>
</g>
</g>
</svg>
