<?xml version="1.0" encoding="UTF-8" standalone="no"?>
<!DOCTYPE svg PUBLIC "-//W3C//DTD SVG 1.1//EN"
 "http://www.w3.org/Graphics/SVG/1.1/DTD/svg11.dtd">
<!-- Generated by graphviz version 9.0.0 (0)
 -->
<!-- Pages: 1 -->
<svg width="1306pt" height="692pt"
 viewBox="0.00 0.00 1305.76 692.00" xmlns="http://www.w3.org/2000/svg" xmlns:xlink="http://www.w3.org/1999/xlink">
<g id="graph0" class="graph" transform="scale(1 1) rotate(0) translate(4 688)">
<polygon fill="white" stroke="none" points="-4,4 -4,-688 1301.76,-688 1301.76,4 -4,4"/>
<!-- 0 -->
<g id="node1" class="node">
<title>0</title>
<polygon fill="none" stroke="black" points="479,-684 384.25,-684 384.25,-648 479,-648 479,-684"/>
<text text-anchor="middle" x="431.62" y="-661.33" font-family="Times,serif" font-size="14.00">java_string</text>
</g>
<!-- 1 -->
<g id="node2" class="node">
<title>1</title>
<polygon fill="none" stroke="black" points="1294.62,-468 1122.62,-468 1122.62,-432 1294.62,-432 1294.62,-468"/>
<text text-anchor="middle" x="1208.62" y="-445.32" font-family="Times,serif" font-size="14.00">valence_advancement</text>
</g>
<!-- 2 -->
<g id="node3" class="node">
<title>2</title>
<polygon fill="none" stroke="black" points="740.88,-396 618.38,-396 618.38,-360 740.88,-360 740.88,-396"/>
<text text-anchor="middle" x="679.62" y="-373.32" font-family="Times,serif" font-size="14.00">valence_server</text>
</g>
<!-- 1&#45;&gt;2 -->
<g id="edge1" class="edge">
<title>1&#45;&gt;2</title>
<path fill="none" stroke="black" d="M1122.16,-437.56C1019.27,-423.94 849.3,-401.45 752.69,-388.67"/>
<polygon fill="black" stroke="black" points="753.16,-385.2 742.79,-387.36 752.24,-392.14 753.16,-385.2"/>
</g>
<!-- 3 -->
<g id="node4" class="node">
<title>3</title>
<polygon fill="none" stroke="black" points="667,-324 548.25,-324 548.25,-288 667,-288 667,-324"/>
<text text-anchor="middle" x="607.62" y="-301.32" font-family="Times,serif" font-size="14.00">valence_entity</text>
</g>
<!-- 2&#45;&gt;3 -->
<g id="edge2" class="edge">
<title>2&#45;&gt;3</title>
<path fill="none" stroke="black" d="M661.83,-359.7C653.35,-351.45 643.04,-341.43 633.69,-332.35"/>
<polygon fill="black" stroke="black" points="636.16,-329.86 626.55,-325.4 631.28,-334.88 636.16,-329.86"/>
</g>
<!-- 12 -->
<g id="node5" class="node">
<title>12</title>
<polygon fill="none" stroke="black" points="818.5,-324 684.75,-324 684.75,-288 818.5,-288 818.5,-324"/>
<text text-anchor="middle" x="751.62" y="-301.32" font-family="Times,serif" font-size="14.00">valence_registry</text>
</g>
<!-- 2&#45;&gt;12 -->
<g id="edge3" class="edge">
<title>2&#45;&gt;12</title>
<path fill="none" stroke="black" d="M697.42,-359.7C705.9,-351.45 716.21,-341.43 725.56,-332.35"/>
<polygon fill="black" stroke="black" points="727.97,-334.88 732.7,-325.4 723.09,-329.86 727.97,-334.88"/>
</g>
<!-- 11 -->
<g id="node6" class="node">
<title>11</title>
<polygon fill="none" stroke="black" points="774.25,-252 585,-252 585,-216 774.25,-216 774.25,-252"/>
<text text-anchor="middle" x="679.62" y="-229.32" font-family="Times,serif" font-size="14.00">valence_server_common</text>
</g>
<!-- 3&#45;&gt;11 -->
<g id="edge4" class="edge">
<title>3&#45;&gt;11</title>
<path fill="none" stroke="black" d="M625.42,-287.7C633.9,-279.45 644.21,-269.43 653.56,-260.35"/>
<polygon fill="black" stroke="black" points="655.97,-262.88 660.7,-253.4 651.09,-257.86 655.97,-262.88"/>
</g>
<!-- 12&#45;&gt;11 -->
<g id="edge12" class="edge">
<title>12&#45;&gt;11</title>
<path fill="none" stroke="black" d="M733.83,-287.7C725.35,-279.45 715.04,-269.43 705.69,-260.35"/>
<polygon fill="black" stroke="black" points="708.16,-257.86 698.55,-253.4 703.28,-262.88 708.16,-257.86"/>
</g>
<!-- 7 -->
<g id="node10" class="node">
<title>7</title>
<polygon fill="none" stroke="black" points="597.25,-180 462,-180 462,-144 597.25,-144 597.25,-180"/>
<text text-anchor="middle" x="529.62" y="-157.32" font-family="Times,serif" font-size="14.00">valence_protocol</text>
</g>
<!-- 11&#45;&gt;7 -->
<g id="edge11" class="edge">
<title>11&#45;&gt;7</title>
<path fill="none" stroke="black" d="M642.16,-215.52C622.49,-206.34 598.17,-194.99 577.19,-185.2"/>
<polygon fill="black" stroke="black" points="578.79,-182.08 568.24,-181.02 575.82,-188.42 578.79,-182.08"/>
</g>
<!-- 4 -->
<g id="node7" class="node">
<title>4</title>
<polygon fill="none" stroke="black" points="458.38,-36 344.88,-36 344.88,0 458.38,0 458.38,-36"/>
<text text-anchor="middle" x="401.62" y="-13.32" font-family="Times,serif" font-size="14.00">valence_math</text>
</g>
<!-- 5 -->
<g id="node8" class="node">
<title>5</title>
<polygon fill="none" stroke="black" points="709,-36 608.25,-36 608.25,0 709,0 709,-36"/>
<text text-anchor="middle" x="658.62" y="-13.32" font-family="Times,serif" font-size="14.00">valence_nbt</text>
</g>
<!-- 6 -->
<g id="node9" class="node">
<title>6</title>
<polygon fill="none" stroke="black" points="590.38,-36 476.88,-36 476.88,0 590.38,0 590.38,-36"/>
<text text-anchor="middle" x="533.62" y="-13.32" font-family="Times,serif" font-size="14.00">valence_ident</text>
</g>
<!-- 8 -->
<g id="node11" class="node">
<title>8</title>
<polygon fill="none" stroke="black" points="532.38,-108 382.88,-108 382.88,-72 532.38,-72 532.38,-108"/>
<text text-anchor="middle" x="457.62" y="-85.33" font-family="Times,serif" font-size="14.00">valence_generated</text>
</g>
<!-- 7&#45;&gt;8 -->
<g id="edge5" class="edge">
<title>7&#45;&gt;8</title>
<path fill="none" stroke="black" d="M511.83,-143.7C503.35,-135.45 493.04,-125.43 483.69,-116.35"/>
<polygon fill="black" stroke="black" points="486.16,-113.86 476.55,-109.4 481.28,-118.88 486.16,-113.86"/>
</g>
<!-- 10 -->
<g id="node12" class="node">
<title>10</title>
<polygon fill="none" stroke="black" points="655.25,-108 550,-108 550,-72 655.25,-72 655.25,-108"/>
<text text-anchor="middle" x="602.62" y="-85.33" font-family="Times,serif" font-size="14.00">valence_text</text>
</g>
<!-- 7&#45;&gt;10 -->
<g id="edge6" class="edge">
<title>7&#45;&gt;10</title>
<path fill="none" stroke="black" d="M547.67,-143.7C556.36,-135.37 566.94,-125.22 576.48,-116.07"/>
<polygon fill="black" stroke="black" points="578.65,-118.84 583.44,-109.39 573.8,-113.79 578.65,-118.84"/>
</g>
<!-- 8&#45;&gt;4 -->
<g id="edge7" class="edge">
<title>8&#45;&gt;4</title>
<path fill="none" stroke="black" d="M443.78,-71.7C437.34,-63.64 429.54,-53.89 422.41,-44.98"/>
<polygon fill="black" stroke="black" points="425.23,-42.91 416.25,-37.29 419.77,-47.28 425.23,-42.91"/>
</g>
<!-- 8&#45;&gt;6 -->
<g id="edge8" class="edge">
<title>8&#45;&gt;6</title>
<path fill="none" stroke="black" d="M476.41,-71.7C485.45,-63.37 496.47,-53.22 506.41,-44.07"/>
<polygon fill="black" stroke="black" points="508.69,-46.72 513.68,-37.37 503.95,-41.57 508.69,-46.72"/>
</g>
<!-- 10&#45;&gt;5 -->
<g id="edge9" class="edge">
<title>10&#45;&gt;5</title>
<path fill="none" stroke="black" d="M616.47,-71.7C622.91,-63.64 630.71,-53.89 637.84,-44.98"/>
<polygon fill="black" stroke="black" points="640.48,-47.28 644,-37.29 635.02,-42.91 640.48,-47.28"/>
</g>
<!-- 10&#45;&gt;6 -->
<g id="edge10" class="edge">
<title>10&#45;&gt;6</title>
<path fill="none" stroke="black" d="M585.57,-71.7C577.38,-63.39 567.41,-53.28 558.41,-44.14"/>
<polygon fill="black" stroke="black" points="561.06,-41.85 551.55,-37.18 556.07,-46.76 561.06,-41.85"/>
</g>
<!-- 9 -->
<g id="node13" class="node">
<title>9</title>
<polygon fill="none" stroke="black" points="908.12,-684 757.12,-684 757.12,-648 908.12,-648 908.12,-684"/>
<text text-anchor="middle" x="832.62" y="-661.33" font-family="Times,serif" font-size="14.00">valence_build_utils</text>
</g>
<!-- 13 -->
<g id="node14" class="node">
<title>13</title>
<polygon fill="none" stroke="black" points="111.25,-468 0,-468 0,-432 111.25,-432 111.25,-468"/>
<text text-anchor="middle" x="55.62" y="-445.32" font-family="Times,serif" font-size="14.00">valence_anvil</text>
</g>
<!-- 13&#45;&gt;2 -->
<g id="edge13" class="edge">
<title>13&#45;&gt;2</title>
<path fill="none" stroke="black" stroke-dasharray="1,5" d="M111.52,-433.77C114.59,-433.13 117.64,-432.53 120.62,-432 293.36,-401.43 499.45,-387.65 606.66,-382.16"/>
<polygon fill="black" stroke="black" points="606.65,-385.66 616.47,-381.67 606.3,-378.67 606.65,-385.66"/>
</g>
<!-- 14 -->
<g id="node15" class="node">
<title>14</title>
<polygon fill="none" stroke="black" points="269.5,-468 129.75,-468 129.75,-432 269.5,-432 269.5,-468"/>
<text text-anchor="middle" x="199.62" y="-445.32" font-family="Times,serif" font-size="14.00">valence_boss_bar</text>
</g>
<!-- 14&#45;&gt;2 -->
<g id="edge14" class="edge">
<title>14&#45;&gt;2</title>
<path fill="none" stroke="black" d="M269.78,-433.6C272.76,-433.04 275.72,-432.5 278.62,-432 392.78,-412.21 526.36,-395.91 606.9,-386.83"/>
<polygon fill="black" stroke="black" points="606.86,-390.35 616.4,-385.76 606.08,-383.4 606.86,-390.35"/>
</g>
<!-- 15 -->
<g id="node16" class="node">
<title>15</title>
<polygon fill="none" stroke="black" points="610.38,-540 502.88,-540 502.88,-504 610.38,-504 610.38,-540"/>
<text text-anchor="middle" x="556.62" y="-517.33" font-family="Times,serif" font-size="14.00">valence_chat</text>
</g>
<!-- 16 -->
<g id="node17" class="node">
<title>16</title>
<polygon fill="none" stroke="black" points="766.38,-468 658.88,-468 658.88,-432 766.38,-432 766.38,-468"/>
<text text-anchor="middle" x="712.62" y="-445.32" font-family="Times,serif" font-size="14.00">valence_lang</text>
</g>
<!-- 15&#45;&gt;16 -->
<g id="edge15" class="edge">
<title>15&#45;&gt;16</title>
<path fill="none" stroke="black" d="M595.59,-503.52C616.14,-494.29 641.56,-482.89 663.46,-473.06"/>
<polygon fill="black" stroke="black" points="664.82,-476.29 672.51,-469 661.95,-469.9 664.82,-476.29"/>
</g>
<!-- 17 -->
<g id="node18" class="node">
<title>17</title>
<polygon fill="none" stroke="black" points="641.12,-468 490.12,-468 490.12,-432 641.12,-432 641.12,-468"/>
<text text-anchor="middle" x="565.62" y="-445.32" font-family="Times,serif" font-size="14.00">valence_player_list</text>
</g>
<!-- 15&#45;&gt;17 -->
<g id="edge16" class="edge">
<title>15&#45;&gt;17</title>
<path fill="none" stroke="black" d="M558.85,-503.7C559.8,-496.32 560.93,-487.52 561.99,-479.25"/>
<polygon fill="black" stroke="black" points="565.43,-479.97 563.23,-469.61 558.49,-479.08 565.43,-479.97"/>
</g>
<!-- 17&#45;&gt;2 -->
<g id="edge17" class="edge">
<title>17&#45;&gt;2</title>
<path fill="none" stroke="black" d="M594.1,-431.52C608.63,-422.6 626.48,-411.63 642.12,-402.03"/>
<polygon fill="black" stroke="black" points="643.53,-405.27 650.23,-397.05 639.87,-399.3 643.53,-405.27"/>
</g>
<!-- 18 -->
<g id="node19" class="node">
<title>18</title>
<polygon fill="none" stroke="black" points="433.5,-468 287.75,-468 287.75,-432 433.5,-432 433.5,-468"/>
<text text-anchor="middle" x="360.62" y="-445.32" font-family="Times,serif" font-size="14.00">valence_command</text>
</g>
<!-- 18&#45;&gt;2 -->
<g id="edge18" class="edge">
<title>18&#45;&gt;2</title>
<path fill="none" stroke="black" d="M433.81,-432.94C485.74,-421.55 555.13,-406.32 606.94,-394.95"/>
<polygon fill="black" stroke="black" points="607.55,-398.4 616.57,-392.84 606.05,-391.56 607.55,-398.4"/>
</g>
<!-- 19 -->
<g id="node20" class="node">
<title>19</title>
<polygon fill="none" stroke="black" points="485.12,-540 340.12,-540 340.12,-504 485.12,-504 485.12,-540"/>
<text text-anchor="middle" x="412.62" y="-517.33" font-family="Times,serif" font-size="14.00">valence_inventory</text>
</g>
<!-- 19&#45;&gt;2 -->
<g id="edge19" class="edge">
<title>19&#45;&gt;2</title>
<path fill="none" stroke="black" d="M421.19,-503.84C432.17,-483.59 453.14,-450.37 480.62,-432 518.04,-406.99 566.77,-393.76 606.64,-386.77"/>
<polygon fill="black" stroke="black" points="607.11,-390.24 616.41,-385.17 605.98,-383.34 607.11,-390.24"/>
</g>
<!-- 20 -->
<g id="node21" class="node">
<title>20</title>
<polygon fill="none" stroke="black" points="763.25,-540 628,-540 628,-504 763.25,-504 763.25,-540"/>
<text text-anchor="middle" x="695.62" y="-517.33" font-family="Times,serif" font-size="14.00">valence_network</text>
</g>
<!-- 20&#45;&gt;2 -->
<g id="edge20" class="edge">
<title>20&#45;&gt;2</title>
<path fill="none" stroke="black" d="M737.65,-503.52C752.4,-495.1 767.35,-483.41 775.62,-468 783.2,-453.9 783.76,-445.78 775.62,-432 768.11,-419.26 756.31,-409.37 743.52,-401.78"/>
<polygon fill="black" stroke="black" points="745.4,-398.81 734.94,-397.13 742.06,-404.97 745.4,-398.81"/>
</g>
<!-- 20&#45;&gt;16 -->
<g id="edge21" class="edge">
<title>20&#45;&gt;16</title>
<path fill="none" stroke="black" d="M699.83,-503.7C701.62,-496.32 703.75,-487.52 705.76,-479.25"/>
<polygon fill="black" stroke="black" points="709.15,-480.12 708.11,-469.58 702.35,-478.47 709.15,-480.12"/>
</g>
<!-- 21 -->
<g id="node22" class="node">
<title>21</title>
<polygon fill="none" stroke="black" points="937.75,-540 781.5,-540 781.5,-504 937.75,-504 937.75,-540"/>
<text text-anchor="middle" x="859.62" y="-517.33" font-family="Times,serif" font-size="14.00">valence_scoreboard</text>
</g>
<!-- 21&#45;&gt;2 -->
<g id="edge22" class="edge">
<title>21&#45;&gt;2</title>
<path fill="none" stroke="black" d="M850.05,-503.59C838.57,-484.03 817.7,-452.36 792.62,-432 777.16,-419.44 758.22,-409.06 740.31,-400.93"/>
<polygon fill="black" stroke="black" points="741.86,-397.79 731.3,-397 739.06,-404.2 741.86,-397.79"/>
</g>
<!-- 22 -->
<g id="node23" class="node">
<title>22</title>
<polygon fill="none" stroke="black" points="1051,-684 926.25,-684 926.25,-648 1051,-648 1051,-684"/>
<text text-anchor="middle" x="988.62" y="-661.33" font-family="Times,serif" font-size="14.00">valence_spatial</text>
</g>
<!-- 23 -->
<g id="node24" class="node">
<title>23</title>
<polygon fill="none" stroke="black" points="1091.25,-540 956,-540 956,-504 1091.25,-504 1091.25,-540"/>
<text text-anchor="middle" x="1023.62" y="-517.33" font-family="Times,serif" font-size="14.00">valence_weather</text>
</g>
<!-- 23&#45;&gt;2 -->
<g id="edge23" class="edge">
<title>23&#45;&gt;2</title>
<path fill="none" stroke="black" d="M986.34,-503.52C946.41,-485.01 881.02,-455.3 823.62,-432 796.52,-421 766.17,-409.68 740.35,-400.34"/>
<polygon fill="black" stroke="black" points="741.6,-397.08 731.01,-396.98 739.23,-403.66 741.6,-397.08"/>
</g>
<!-- 24 -->
<g id="node25" class="node">
<title>24</title>
<polygon fill="none" stroke="black" points="1281.62,-540 1109.62,-540 1109.62,-504 1281.62,-504 1281.62,-540"/>
<text text-anchor="middle" x="1195.62" y="-517.33" font-family="Times,serif" font-size="14.00">valence_world_border</text>
</g>
<!-- 24&#45;&gt;2 -->
<g id="edge24" class="edge">
<title>24&#45;&gt;2</title>
<path fill="none" stroke="black" d="M1134.83,-503.58C1071.26,-485.43 968.55,-456.3 879.62,-432 837.37,-420.45 789.98,-407.88 751.94,-397.88"/>
<polygon fill="black" stroke="black" points="752.99,-394.53 742.43,-395.38 751.21,-401.3 752.99,-394.53"/>
</g>
<!-- 25 -->
<g id="node26" class="node">
<title>25</title>
<polygon fill="none" stroke="black" points="623.75,-684 497.5,-684 497.5,-648 623.75,-648 623.75,-684"/>
<text text-anchor="middle" x="560.62" y="-661.33" font-family="Times,serif" font-size="14.00">dump_schedule</text>
</g>
<!-- 26 -->
<g id="node27" class="node">
<title>26</title>
<polygon fill="none" stroke="black" points="660.62,-612 590.62,-612 590.62,-576 660.62,-576 660.62,-612"/>
<text text-anchor="middle" x="625.62" y="-589.33" font-family="Times,serif" font-size="14.00">valence</text>
</g>
<!-- 25&#45;&gt;26 -->
<g id="edge25" class="edge">
<title>25&#45;&gt;26</title>
<path fill="none" stroke="black" d="M576.69,-647.7C584.33,-639.47 593.6,-629.48 602.02,-620.42"/>
<polygon fill="black" stroke="black" points="604.47,-622.92 608.71,-613.21 599.34,-618.16 604.47,-622.92"/>
</g>
<!-- 26&#45;&gt;1 -->
<g id="edge26" class="edge">
<title>26&#45;&gt;1</title>
<path fill="none" stroke="black" stroke-dasharray="1,5" d="M661.04,-592.92C792.57,-592.24 1247.65,-586.53 1290.62,-540 1301.48,-528.25 1298.27,-518.05 1290.62,-504 1284.04,-491.9 1273.38,-482.15 1261.88,-474.46"/>
<polygon fill="black" stroke="black" points="1263.76,-471.51 1253.4,-469.28 1260.11,-477.48 1263.76,-471.51"/>
</g>
<!-- 26&#45;&gt;13 -->
<g id="edge27" class="edge">
<title>26&#45;&gt;13</title>
<path fill="none" stroke="black" stroke-dasharray="1,5" d="M590.36,-591.15C523.9,-586.97 376.06,-574.31 256.62,-540 199.55,-523.6 137.6,-494.26 97.79,-473.77"/>
<polygon fill="black" stroke="black" points="99.5,-470.71 89.01,-469.2 96.27,-476.92 99.5,-470.71"/>
</g>
<!-- 26&#45;&gt;14 -->
<g id="edge28" class="edge">
<title>26&#45;&gt;14</title>
<path fill="none" stroke="black" stroke-dasharray="1,5" d="M590.18,-592.14C531.57,-589.58 411.8,-579.5 319.62,-540 283.63,-524.58 248.36,-496.4 225.48,-475.87"/>
<polygon fill="black" stroke="black" points="227.9,-473.34 218.16,-469.16 223.17,-478.5 227.9,-473.34"/>
</g>
<!-- 26&#45;&gt;15 -->
<g id="edge29" class="edge">
<title>26&#45;&gt;15</title>
<path fill="none" stroke="black" stroke-dasharray="1,5" d="M608.57,-575.7C600.38,-567.39 590.41,-557.28 581.41,-548.14"/>
<polygon fill="black" stroke="black" points="584.06,-545.85 574.55,-541.18 579.07,-550.76 584.06,-545.85"/>
</g>
<!-- 26&#45;&gt;18 -->
<g id="edge30" class="edge">
<title>26&#45;&gt;18</title>
<path fill="none" stroke="black" stroke-dasharray="1,5" d="M590.27,-592.09C519.28,-589.43 363.38,-579.17 330.62,-540 315.75,-522.21 326.66,-496.72 339.3,-477.58"/>
<polygon fill="black" stroke="black" points="342.13,-479.63 345.06,-469.45 336.42,-475.58 342.13,-479.63"/>
</g>
<!-- 26&#45;&gt;19 -->
<g id="edge31" class="edge">
<title>26&#45;&gt;19</title>
<path fill="none" stroke="black" stroke-dasharray="1,5" d="M590.45,-581.44C559.59,-571.3 513.93,-556.29 476.61,-544.03"/>
<polygon fill="black" stroke="black" points="477.85,-540.75 467.26,-540.95 475.67,-547.4 477.85,-540.75"/>
</g>
<!-- 26&#45;&gt;20 -->
<g id="edge32" class="edge">
<title>26&#45;&gt;20</title>
<path fill="none" stroke="black" stroke-dasharray="1,5" d="M642.93,-575.7C651.24,-567.39 661.35,-557.28 670.48,-548.14"/>
<polygon fill="black" stroke="black" points="672.85,-550.72 677.45,-541.17 667.9,-545.77 672.85,-550.72"/>
</g>
<!-- 26&#45;&gt;21 -->
<g id="edge33" class="edge">
<title>26&#45;&gt;21</title>
<path fill="none" stroke="black" stroke-dasharray="1,5" d="M660.91,-582.44C695.09,-572.22 747.85,-556.44 790.42,-543.7"/>
<polygon fill="black" stroke="black" points="791.26,-547.11 799.83,-540.89 789.25,-540.4 791.26,-547.11"/>
</g>
<!-- 26&#45;&gt;23 -->
<g id="edge34" class="edge">
<title>26&#45;&gt;23</title>
<path fill="none" stroke="black" stroke-dasharray="1,5" d="M660.88,-587.81C718.13,-579.25 835.08,-561.19 944.41,-540.37"/>
<polygon fill="black" stroke="black" points="945,-543.82 954.16,-538.5 943.68,-536.95 945,-543.82"/>
</g>
<!-- 26&#45;&gt;24 -->
<g id="edge35" class="edge">
<title>26&#45;&gt;24</title>
<path fill="none" stroke="black" stroke-dasharray="1,5" d="M660.88,-589.87C738.15,-582.83 928.39,-564.58 1098.05,-540.32"/>
<polygon fill="black" stroke="black" points="1098.3,-543.82 1107.7,-538.93 1097.3,-536.89 1098.3,-543.82"/>
</g>
<!-- 27 -->
<g id="node28" class="node">
<title>27</title>
<polygon fill="none" stroke="black" points="474,-252 337.25,-252 337.25,-216 474,-216 474,-252"/>
<text text-anchor="middle" x="405.62" y="-229.32" font-family="Times,serif" font-size="14.00">packet_inspector</text>
</g>
<!-- 27&#45;&gt;7 -->
<g id="edge36" class="edge">
<title>27&#45;&gt;7</title>
<path fill="none" stroke="black" d="M436.6,-215.52C452.55,-206.51 472.19,-195.42 489.31,-185.76"/>
<polygon fill="black" stroke="black" points="490.74,-188.97 497.73,-181 487.3,-182.87 490.74,-188.97"/>
</g>
<!-- 28 -->
<g id="node29" class="node">
<title>28</title>
<polygon fill="none" stroke="black" points="739.12,-684 642.12,-684 642.12,-648 739.12,-648 739.12,-684"/>
<text text-anchor="middle" x="690.62" y="-661.33" font-family="Times,serif" font-size="14.00">playground</text>
</g>
<!-- 28&#45;&gt;26 -->
<g id="edge37" class="edge">
<title>28&#45;&gt;26</title>
<path fill="none" stroke="black" d="M674.56,-647.7C666.92,-639.47 657.65,-629.48 649.23,-620.42"/>
<polygon fill="black" stroke="black" points="651.91,-618.16 642.54,-613.21 646.78,-622.92 651.91,-618.16"/>
</g>
<!-- 29 -->
<g id="node30" class="node">
<title>29</title>
<polygon fill="none" stroke="black" points="566.88,-252 492.38,-252 492.38,-216 566.88,-216 566.88,-252"/>
<text text-anchor="middle" x="529.62" y="-229.32" font-family="Times,serif" font-size="14.00">stresser</text>
</g>
<!-- 29&#45;&gt;7 -->
<g id="edge38" class="edge">
<title>29&#45;&gt;7</title>
<path fill="none" stroke="black" d="M529.62,-215.7C529.62,-208.41 529.62,-199.73 529.62,-191.54"/>
<polygon fill="black" stroke="black" points="533.13,-191.62 529.63,-181.62 526.13,-191.62 533.13,-191.62"/>
</g>
</g>
</svg>
