<?xml version="1.0" encoding="UTF-8" standalone="no"?>
<!DOCTYPE svg PUBLIC "-//W3C//DTD SVG 1.1//EN"
 "http://www.w3.org/Graphics/SVG/1.1/DTD/svg11.dtd">
<!-- Generated by graphviz version 8.1.0 (20230707.0739)
 -->
<!-- Pages: 1 -->
<svg width="1224pt" height="620pt"
 viewBox="0.00 0.00 1223.62 620.00" xmlns="http://www.w3.org/2000/svg" xmlns:xlink="http://www.w3.org/1999/xlink">
<g id="graph0" class="graph" transform="scale(1 1) rotate(0) translate(4 616)">
<polygon fill="white" stroke="none" points="-4,4 -4,-616 1219.62,-616 1219.62,4 -4,4"/>
<!-- 0 -->
<g id="node1" class="node">
<title>0</title>
<polygon fill="none" stroke="black" points="137.5,-468 0,-468 0,-432 137.5,-432 137.5,-468"/>
<text text-anchor="middle" x="68.75" y="-444.57" font-family="Times New Roman,serif" font-size="14.00">valence_advancement</text>
</g>
<!-- 1 -->
<g id="node2" class="node">
<title>1</title>
<polygon fill="none" stroke="black" points="644,-396 545.5,-396 545.5,-360 644,-360 644,-396"/>
<text text-anchor="middle" x="594.75" y="-372.57" font-family="Times New Roman,serif" font-size="14.00">valence_server</text>
</g>
<!-- 0&#45;&gt;1 -->
<g id="edge1" class="edge">
<title>0&#45;&gt;1</title>
<path fill="none" stroke="black" d="M137.58,-433.62C140.68,-433.05 143.74,-432.5 146.75,-432 284.57,-408.88 447.91,-392.24 534.24,-384.28"/>
<polygon fill="black" stroke="black" points="534.5,-387.68 544.14,-383.29 533.86,-380.71 534.5,-387.68"/>
</g>
<!-- 2 -->
<g id="node3" class="node">
<title>2</title>
<polygon fill="none" stroke="black" points="583.12,-324 488.38,-324 488.38,-288 583.12,-288 583.12,-324"/>
<text text-anchor="middle" x="535.75" y="-300.57" font-family="Times New Roman,serif" font-size="14.00">valence_entity</text>
</g>
<!-- 1&#45;&gt;2 -->
<g id="edge2" class="edge">
<title>1&#45;&gt;2</title>
<path fill="none" stroke="black" d="M580.17,-359.7C573.24,-351.47 564.81,-341.48 557.18,-332.42"/>
<polygon fill="black" stroke="black" points="559.29,-330.49 550.17,-325.1 553.94,-335.01 559.29,-330.49"/>
</g>
<!-- 11 -->
<g id="node4" class="node">
<title>11</title>
<polygon fill="none" stroke="black" points="706.75,-324 600.75,-324 600.75,-288 706.75,-288 706.75,-324"/>
<text text-anchor="middle" x="653.75" y="-300.57" font-family="Times New Roman,serif" font-size="14.00">valence_registry</text>
</g>
<!-- 1&#45;&gt;11 -->
<g id="edge3" class="edge">
<title>1&#45;&gt;11</title>
<path fill="none" stroke="black" d="M609.33,-359.7C616.26,-351.47 624.69,-341.48 632.32,-332.42"/>
<polygon fill="black" stroke="black" points="635.56,-335.01 639.33,-325.1 630.21,-330.49 635.56,-335.01"/>
</g>
<!-- 10 -->
<g id="node5" class="node">
<title>10</title>
<polygon fill="none" stroke="black" points="672.5,-252 517,-252 517,-216 672.5,-216 672.5,-252"/>
<text text-anchor="middle" x="594.75" y="-228.57" font-family="Times New Roman,serif" font-size="14.00">valence_server_common</text>
</g>
<!-- 2&#45;&gt;10 -->
<g id="edge4" class="edge">
<title>2&#45;&gt;10</title>
<path fill="none" stroke="black" d="M550.33,-287.7C557.26,-279.47 565.69,-269.48 573.32,-260.42"/>
<polygon fill="black" stroke="black" points="576.56,-263.01 580.33,-253.1 571.21,-258.49 576.56,-263.01"/>
</g>
<!-- 11&#45;&gt;10 -->
<g id="edge12" class="edge">
<title>11&#45;&gt;10</title>
<path fill="none" stroke="black" d="M639.17,-287.7C632.24,-279.47 623.81,-269.48 616.18,-260.42"/>
<polygon fill="black" stroke="black" points="618.29,-258.49 609.17,-253.1 612.94,-263.01 618.29,-258.49"/>
</g>
<!-- 6 -->
<g id="node9" class="node">
<title>6</title>
<polygon fill="none" stroke="black" points="526.12,-180 413.38,-180 413.38,-144 526.12,-144 526.12,-180"/>
<text text-anchor="middle" x="469.75" y="-156.57" font-family="Times New Roman,serif" font-size="14.00">valence_protocol</text>
</g>
<!-- 10&#45;&gt;6 -->
<g id="edge11" class="edge">
<title>10&#45;&gt;6</title>
<path fill="none" stroke="black" d="M563.53,-215.52C547.3,-206.43 527.28,-195.22 509.91,-185.49"/>
<polygon fill="black" stroke="black" points="512.01,-182.09 501.57,-180.26 508.59,-188.2 512.01,-182.09"/>
</g>
<!-- 3 -->
<g id="node6" class="node">
<title>3</title>
<polygon fill="none" stroke="black" points="408.62,-36 316.88,-36 316.88,0 408.62,0 408.62,-36"/>
<text text-anchor="middle" x="362.75" y="-12.57" font-family="Times New Roman,serif" font-size="14.00">valence_math</text>
</g>
<!-- 4 -->
<g id="node7" class="node">
<title>4</title>
<polygon fill="none" stroke="black" points="619.12,-36 536.38,-36 536.38,0 619.12,0 619.12,-36"/>
<text text-anchor="middle" x="577.75" y="-12.57" font-family="Times New Roman,serif" font-size="14.00">valence_nbt</text>
</g>
<!-- 5 -->
<g id="node8" class="node">
<title>5</title>
<polygon fill="none" stroke="black" points="518.62,-36 426.88,-36 426.88,0 518.62,0 518.62,-36"/>
<text text-anchor="middle" x="472.75" y="-12.57" font-family="Times New Roman,serif" font-size="14.00">valence_ident</text>
</g>
<!-- 7 -->
<g id="node10" class="node">
<title>7</title>
<polygon fill="none" stroke="black" points="468.75,-108 350.75,-108 350.75,-72 468.75,-72 468.75,-108"/>
<text text-anchor="middle" x="409.75" y="-84.58" font-family="Times New Roman,serif" font-size="14.00">valence_generated</text>
</g>
<!-- 6&#45;&gt;7 -->
<g id="edge5" class="edge">
<title>6&#45;&gt;7</title>
<path fill="none" stroke="black" d="M454.92,-143.7C447.87,-135.47 439.31,-125.48 431.54,-116.42"/>
<polygon fill="black" stroke="black" points="433.58,-114.42 424.41,-109.1 428.26,-118.97 433.58,-114.42"/>
</g>
<!-- 9 -->
<g id="node11" class="node">
<title>9</title>
<polygon fill="none" stroke="black" points="572.25,-108 487.25,-108 487.25,-72 572.25,-72 572.25,-108"/>
<text text-anchor="middle" x="529.75" y="-84.58" font-family="Times New Roman,serif" font-size="14.00">valence_text</text>
</g>
<!-- 6&#45;&gt;9 -->
<g id="edge6" class="edge">
<title>6&#45;&gt;9</title>
<path fill="none" stroke="black" d="M484.58,-143.7C491.63,-135.47 500.19,-125.48 507.96,-116.42"/>
<polygon fill="black" stroke="black" points="511.24,-118.97 515.09,-109.1 505.92,-114.42 511.24,-118.97"/>
</g>
<!-- 7&#45;&gt;3 -->
<g id="edge7" class="edge">
<title>7&#45;&gt;3</title>
<path fill="none" stroke="black" d="M398.13,-71.7C392.73,-63.64 386.18,-53.89 380.2,-44.98"/>
<polygon fill="black" stroke="black" points="382.71,-43.46 374.23,-37.1 376.9,-47.36 382.71,-43.46"/>
</g>
<!-- 7&#45;&gt;5 -->
<g id="edge8" class="edge">
<title>7&#45;&gt;5</title>
<path fill="none" stroke="black" d="M425.32,-71.7C432.8,-63.39 441.9,-53.28 450.12,-44.14"/>
<polygon fill="black" stroke="black" points="452.27,-46.88 456.36,-37.1 447.06,-42.2 452.27,-46.88"/>
</g>
<!-- 9&#45;&gt;4 -->
<g id="edge9" class="edge">
<title>9&#45;&gt;4</title>
<path fill="none" stroke="black" d="M541.62,-71.7C547.14,-63.64 553.82,-53.89 559.93,-44.98"/>
<polygon fill="black" stroke="black" points="563.25,-47.33 566.02,-37.1 557.48,-43.37 563.25,-47.33"/>
</g>
<!-- 9&#45;&gt;5 -->
<g id="edge10" class="edge">
<title>9&#45;&gt;5</title>
<path fill="none" stroke="black" d="M515.66,-71.7C508.96,-63.47 500.83,-53.48 493.45,-44.42"/>
<polygon fill="black" stroke="black" points="495.71,-42.65 486.68,-37.1 490.28,-47.07 495.71,-42.65"/>
</g>
<!-- 8 -->
<g id="node12" class="node">
<title>8</title>
<polygon fill="none" stroke="black" points="830,-612 707.5,-612 707.5,-576 830,-576 830,-612"/>
<text text-anchor="middle" x="768.75" y="-588.58" font-family="Times New Roman,serif" font-size="14.00">valence_build_utils</text>
</g>
<!-- 12 -->
<g id="node13" class="node">
<title>12</title>
<polygon fill="none" stroke="black" points="245.88,-468 155.62,-468 155.62,-432 245.88,-432 245.88,-468"/>
<text text-anchor="middle" x="200.75" y="-444.57" font-family="Times New Roman,serif" font-size="14.00">valence_anvil</text>
</g>
<!-- 12&#45;&gt;1 -->
<g id="edge13" class="edge">
<title>12&#45;&gt;1</title>
<path fill="none" stroke="black" d="M246.28,-434.14C249.14,-433.37 251.97,-432.65 254.75,-432 351.52,-409.36 466.09,-393.77 534.47,-385.62"/>
<polygon fill="black" stroke="black" points="534.51,-389.02 544.03,-384.37 533.69,-382.07 534.51,-389.02"/>
</g>
<!-- 13 -->
<g id="node14" class="node">
<title>13</title>
<polygon fill="none" stroke="black" points="381.38,-468 264.12,-468 264.12,-432 381.38,-432 381.38,-468"/>
<text text-anchor="middle" x="322.75" y="-444.57" font-family="Times New Roman,serif" font-size="14.00">valence_boss_bar</text>
</g>
<!-- 13&#45;&gt;1 -->
<g id="edge14" class="edge">
<title>13&#45;&gt;1</title>
<path fill="none" stroke="black" d="M381.77,-433.81C427.04,-422.16 489.29,-406.14 534.8,-394.43"/>
<polygon fill="black" stroke="black" points="535.59,-397.58 544.4,-391.7 533.84,-390.8 535.59,-397.58"/>
</g>
<!-- 14 -->
<g id="node15" class="node">
<title>14</title>
<polygon fill="none" stroke="black" points="516,-468 399.5,-468 399.5,-432 516,-432 516,-468"/>
<text text-anchor="middle" x="457.75" y="-444.57" font-family="Times New Roman,serif" font-size="14.00">valence_inventory</text>
</g>
<!-- 14&#45;&gt;1 -->
<g id="edge15" class="edge">
<title>14&#45;&gt;1</title>
<path fill="none" stroke="black" d="M491.97,-431.52C509.92,-422.34 532.11,-411.01 551.26,-401.22"/>
<polygon fill="black" stroke="black" points="552.66,-403.93 559.97,-396.26 549.47,-397.69 552.66,-403.93"/>
</g>
<!-- 15 -->
<g id="node16" class="node">
<title>15</title>
<polygon fill="none" stroke="black" points="1204.38,-396 1117.12,-396 1117.12,-360 1204.38,-360 1204.38,-396"/>
<text text-anchor="middle" x="1160.75" y="-372.57" font-family="Times New Roman,serif" font-size="14.00">valence_lang</text>
</g>
<!-- 16 -->
<g id="node17" class="node">
<title>16</title>
<polygon fill="none" stroke="black" points="1215.62,-468 1105.88,-468 1105.88,-432 1215.62,-432 1215.62,-468"/>
<text text-anchor="middle" x="1160.75" y="-444.57" font-family="Times New Roman,serif" font-size="14.00">valence_network</text>
</g>
<!-- 16&#45;&gt;1 -->
<g id="edge16" class="edge">
<title>16&#45;&gt;1</title>
<path fill="none" stroke="black" d="M1105.71,-433.8C1102.69,-433.15 1099.69,-432.54 1096.75,-432 938.82,-402.87 749.78,-388.29 655.08,-382.35"/>
<polygon fill="black" stroke="black" points="655.47,-378.81 645.28,-381.69 655.04,-385.79 655.47,-378.81"/>
</g>
<!-- 16&#45;&gt;15 -->
<g id="edge17" class="edge">
<title>16&#45;&gt;15</title>
<path fill="none" stroke="black" d="M1160.75,-431.7C1160.75,-424.24 1160.75,-415.32 1160.75,-406.97"/>
<polygon fill="black" stroke="black" points="1164.25,-407.1 1160.75,-397.1 1157.25,-407.1 1164.25,-407.1"/>
</g>
<!-- 17 -->
<g id="node18" class="node">
<title>17</title>
<polygon fill="none" stroke="black" points="655.62,-468 533.88,-468 533.88,-432 655.62,-432 655.62,-468"/>
<text text-anchor="middle" x="594.75" y="-444.57" font-family="Times New Roman,serif" font-size="14.00">valence_player_list</text>
</g>
<!-- 17&#45;&gt;1 -->
<g id="edge18" class="edge">
<title>17&#45;&gt;1</title>
<path fill="none" stroke="black" d="M594.75,-431.7C594.75,-424.24 594.75,-415.32 594.75,-406.97"/>
<polygon fill="black" stroke="black" points="598.25,-407.1 594.75,-397.1 591.25,-407.1 598.25,-407.1"/>
</g>
<!-- 18 -->
<g id="node19" class="node">
<title>18</title>
<polygon fill="none" stroke="black" points="802,-468 673.5,-468 673.5,-432 802,-432 802,-468"/>
<text text-anchor="middle" x="737.75" y="-444.57" font-family="Times New Roman,serif" font-size="14.00">valence_scoreboard</text>
</g>
<!-- 18&#45;&gt;1 -->
<g id="edge19" class="edge">
<title>18&#45;&gt;1</title>
<path fill="none" stroke="black" d="M702.03,-431.52C683.21,-422.3 659.93,-410.9 639.87,-401.08"/>
<polygon fill="black" stroke="black" points="641.53,-397.51 631.01,-396.26 638.45,-403.8 641.53,-397.51"/>
</g>
<!-- 19 -->
<g id="node20" class="node">
<title>19</title>
<polygon fill="none" stroke="black" points="947.75,-612 847.75,-612 847.75,-576 947.75,-576 947.75,-612"/>
<text text-anchor="middle" x="897.75" y="-588.58" font-family="Times New Roman,serif" font-size="14.00">valence_spatial</text>
</g>
<!-- 20 -->
<g id="node21" class="node">
<title>20</title>
<polygon fill="none" stroke="black" points="927.5,-468 820,-468 820,-432 927.5,-432 927.5,-468"/>
<text text-anchor="middle" x="873.75" y="-444.57" font-family="Times New Roman,serif" font-size="14.00">valence_weather</text>
</g>
<!-- 20&#45;&gt;1 -->
<g id="edge20" class="edge">
<title>20&#45;&gt;1</title>
<path fill="none" stroke="black" d="M819.82,-434.36C816.75,-433.55 813.71,-432.76 810.75,-432 758.18,-418.46 698.21,-403.81 654.82,-393.35"/>
<polygon fill="black" stroke="black" points="655.7,-389.72 645.16,-390.78 654.06,-396.53 655.7,-389.72"/>
</g>
<!-- 21 -->
<g id="node22" class="node">
<title>21</title>
<polygon fill="none" stroke="black" points="1087.75,-468 945.75,-468 945.75,-432 1087.75,-432 1087.75,-468"/>
<text text-anchor="middle" x="1016.75" y="-444.57" font-family="Times New Roman,serif" font-size="14.00">valence_world_border</text>
</g>
<!-- 21&#45;&gt;1 -->
<g id="edge21" class="edge">
<title>21&#45;&gt;1</title>
<path fill="none" stroke="black" d="M945.26,-433.6C942.39,-433.05 939.54,-432.51 936.75,-432 838.44,-413.95 723.49,-396.98 655.03,-387.31"/>
<polygon fill="black" stroke="black" points="655.84,-383.75 645.45,-385.82 654.87,-390.68 655.84,-383.75"/>
</g>
<!-- 22 -->
<g id="node23" class="node">
<title>22</title>
<polygon fill="none" stroke="black" points="592,-612 487.5,-612 487.5,-576 592,-576 592,-612"/>
<text text-anchor="middle" x="539.75" y="-588.58" font-family="Times New Roman,serif" font-size="14.00">dump_schedule</text>
</g>
<!-- 23 -->
<g id="node24" class="node">
<title>23</title>
<polygon fill="none" stroke="black" points="623.38,-540 566.12,-540 566.12,-504 623.38,-504 623.38,-540"/>
<text text-anchor="middle" x="594.75" y="-516.58" font-family="Times New Roman,serif" font-size="14.00">valence</text>
</g>
<!-- 22&#45;&gt;23 -->
<g id="edge22" class="edge">
<title>22&#45;&gt;23</title>
<path fill="none" stroke="black" d="M553.35,-575.7C559.74,-567.56 567.49,-557.69 574.56,-548.7"/>
<polygon fill="black" stroke="black" points="577.88,-551.13 581.31,-541.1 572.38,-546.81 577.88,-551.13"/>
</g>
<!-- 23&#45;&gt;0 -->
<g id="edge23" class="edge">
<title>23&#45;&gt;0</title>
<path fill="none" stroke="black" stroke-dasharray="1,5" d="M565.79,-518.55C495.85,-512.44 312.06,-495.13 148.34,-468.17"/>
<polygon fill="black" stroke="black" points="149.02,-464.57 138.58,-466.38 147.87,-471.47 149.02,-464.57"/>
</g>
<!-- 23&#45;&gt;12 -->
<g id="edge24" class="edge">
<title>23&#45;&gt;12</title>
<path fill="none" stroke="black" stroke-dasharray="1,5" d="M565.81,-517.98C508.46,-511.67 376.24,-495.55 256.7,-468.28"/>
<polygon fill="black" stroke="black" points="257.81,-464.71 247.28,-465.86 256.23,-471.53 257.81,-464.71"/>
</g>
<!-- 23&#45;&gt;13 -->
<g id="edge25" class="edge">
<title>23&#45;&gt;13</title>
<path fill="none" stroke="black" stroke-dasharray="1,5" d="M565.64,-513.51C524.57,-502.94 448.36,-483.33 392.22,-468.88"/>
<polygon fill="black" stroke="black" points="393.19,-465.26 382.63,-466.15 391.45,-472.04 393.19,-465.26"/>
</g>
<!-- 23&#45;&gt;14 -->
<g id="edge26" class="edge">
<title>23&#45;&gt;14</title>
<path fill="none" stroke="black" stroke-dasharray="1,5" d="M565.7,-506.15C546.98,-496.59 522.31,-483.99 501.27,-473.24"/>
<polygon fill="black" stroke="black" points="503.09,-469.73 492.59,-468.29 499.91,-475.96 503.09,-469.73"/>
</g>
<!-- 23&#45;&gt;16 -->
<g id="edge27" class="edge">
<title>23&#45;&gt;16</title>
<path fill="none" stroke="black" stroke-dasharray="1,5" d="M623.84,-519.5C699.82,-515.26 910.55,-501.37 1095,-468.15"/>
<polygon fill="black" stroke="black" points="1095.51,-471.44 1104.71,-466.2 1094.25,-464.55 1095.51,-471.44"/>
</g>
<!-- 23&#45;&gt;17 -->
<g id="edge28" class="edge">
<title>23&#45;&gt;17</title>
<path fill="none" stroke="black" stroke-dasharray="1,5" d="M594.75,-503.7C594.75,-496.24 594.75,-487.32 594.75,-478.97"/>
<polygon fill="black" stroke="black" points="598.25,-479.1 594.75,-469.1 591.25,-479.1 598.25,-479.1"/>
</g>
<!-- 23&#45;&gt;18 -->
<g id="edge29" class="edge">
<title>23&#45;&gt;18</title>
<path fill="none" stroke="black" stroke-dasharray="1,5" d="M623.69,-506.83C643.38,-497.19 669.84,-484.24 692.32,-473.24"/>
<polygon fill="black" stroke="black" points="693.57,-476.04 701.01,-468.5 690.49,-469.75 693.57,-476.04"/>
</g>
<!-- 23&#45;&gt;20 -->
<g id="edge30" class="edge">
<title>23&#45;&gt;20</title>
<path fill="none" stroke="black" stroke-dasharray="1,5" d="M623.8,-514.1C663.46,-504.62 737.01,-486.88 809.58,-468.27"/>
<polygon fill="black" stroke="black" points="810,-471.52 818.82,-465.64 808.26,-464.74 810,-471.52"/>
</g>
<!-- 23&#45;&gt;21 -->
<g id="edge31" class="edge">
<title>23&#45;&gt;21</title>
<path fill="none" stroke="black" stroke-dasharray="1,5" d="M623.67,-517.07C681.02,-509.17 813.43,-490.32 934.69,-468.33"/>
<polygon fill="black" stroke="black" points="935.05,-471.64 944.26,-466.4 933.79,-464.75 935.05,-471.64"/>
</g>
<!-- 24 -->
<g id="node25" class="node">
<title>24</title>
<polygon fill="none" stroke="black" points="422.75,-252 310.75,-252 310.75,-216 422.75,-216 422.75,-252"/>
<text text-anchor="middle" x="366.75" y="-228.57" font-family="Times New Roman,serif" font-size="14.00">packet_inspector</text>
</g>
<!-- 24&#45;&gt;6 -->
<g id="edge32" class="edge">
<title>24&#45;&gt;6</title>
<path fill="none" stroke="black" d="M392.48,-215.52C405.48,-206.68 421.43,-195.84 435.46,-186.3"/>
<polygon fill="black" stroke="black" points="437.05,-188.78 443.35,-180.26 433.11,-182.99 437.05,-188.78"/>
</g>
<!-- 25 -->
<g id="node26" class="node">
<title>25</title>
<polygon fill="none" stroke="black" points="689.25,-612 610.25,-612 610.25,-576 689.25,-576 689.25,-612"/>
<text text-anchor="middle" x="649.75" y="-588.58" font-family="Times New Roman,serif" font-size="14.00">playground</text>
</g>
<!-- 25&#45;&gt;23 -->
<g id="edge33" class="edge">
<title>25&#45;&gt;23</title>
<path fill="none" stroke="black" d="M636.15,-575.7C629.76,-567.56 622.01,-557.69 614.94,-548.7"/>
<polygon fill="black" stroke="black" points="617.12,-546.81 608.19,-541.1 611.62,-551.13 617.12,-546.81"/>
</g>
<!-- 26 -->
<g id="node27" class="node">
<title>26</title>
<polygon fill="none" stroke="black" points="499.12,-252 440.38,-252 440.38,-216 499.12,-216 499.12,-252"/>
<text text-anchor="middle" x="469.75" y="-228.57" font-family="Times New Roman,serif" font-size="14.00">stresser</text>
</g>
<!-- 26&#45;&gt;6 -->
<g id="edge34" class="edge">
<title>26&#45;&gt;6</title>
<path fill="none" stroke="black" d="M469.75,-215.7C469.75,-208.24 469.75,-199.32 469.75,-190.97"/>
<polygon fill="black" stroke="black" points="473.25,-191.1 469.75,-181.1 466.25,-191.1 473.25,-191.1"/>
</g>
</g>
</svg>
