<?xml version="1.0" encoding="UTF-8" standalone="no"?>
<!DOCTYPE svg PUBLIC "-//W3C//DTD SVG 1.1//EN"
 "http://www.w3.org/Graphics/SVG/1.1/DTD/svg11.dtd">
<!-- Generated by graphviz version 2.43.0 (0)
 -->
<!-- Title: %3 Pages: 1 -->
<svg width="1262pt" height="692pt"
 viewBox="0.00 0.00 1261.50 692.00" xmlns="http://www.w3.org/2000/svg" xmlns:xlink="http://www.w3.org/1999/xlink">
<g id="graph0" class="graph" transform="scale(1 1) rotate(0) translate(4 688)">
<title>%3</title>
<polygon fill="white" stroke="transparent" points="-4,4 -4,-688 1257.5,-688 1257.5,4 -4,4"/>
<!-- 0 -->
<g id="node1" class="node">
<title>0</title>
<polygon fill="none" stroke="black" points="1253.5,-468 1080.5,-468 1080.5,-432 1253.5,-432 1253.5,-468"/>
<text text-anchor="middle" x="1167" y="-446.3" font-family="Times,serif" font-size="14.00">valence_advancement</text>
</g>
<!-- 1 -->
<g id="node2" class="node">
<title>1</title>
<polygon fill="none" stroke="black" points="819.5,-396 696.5,-396 696.5,-360 819.5,-360 819.5,-396"/>
<text text-anchor="middle" x="758" y="-374.3" font-family="Times,serif" font-size="14.00">valence_server</text>
</g>
<!-- 0&#45;&gt;1 -->
<g id="edge1" class="edge">
<title>0&#45;&gt;1</title>
<path fill="none" stroke="black" d="M1080.26,-434.15C1005.73,-421.4 899.53,-403.22 829.71,-391.27"/>
<polygon fill="black" stroke="black" points="830.13,-387.79 819.68,-389.56 828.95,-394.69 830.13,-387.79"/>
</g>
<!-- 2 -->
<g id="node3" class="node">
<title>2</title>
<polygon fill="none" stroke="black" points="745.5,-324 626.5,-324 626.5,-288 745.5,-288 745.5,-324"/>
<text text-anchor="middle" x="686" y="-302.3" font-family="Times,serif" font-size="14.00">valence_entity</text>
</g>
<!-- 1&#45;&gt;2 -->
<g id="edge2" class="edge">
<title>1&#45;&gt;2</title>
<path fill="none" stroke="black" d="M740.2,-359.7C731.4,-351.14 720.62,-340.66 711,-331.3"/>
<polygon fill="black" stroke="black" points="713.2,-328.57 703.59,-324.1 708.32,-333.58 713.2,-328.57"/>
</g>
<!-- 11 -->
<g id="node4" class="node">
<title>11</title>
<polygon fill="none" stroke="black" points="898,-324 764,-324 764,-288 898,-288 898,-324"/>
<text text-anchor="middle" x="831" y="-302.3" font-family="Times,serif" font-size="14.00">valence_registry</text>
</g>
<!-- 1&#45;&gt;11 -->
<g id="edge3" class="edge">
<title>1&#45;&gt;11</title>
<path fill="none" stroke="black" d="M776.04,-359.7C785.06,-351.05 796.12,-340.45 805.94,-331.03"/>
<polygon fill="black" stroke="black" points="808.37,-333.55 813.16,-324.1 803.52,-328.5 808.37,-333.55"/>
</g>
<!-- 10 -->
<g id="node5" class="node">
<title>10</title>
<polygon fill="none" stroke="black" points="853,-252 663,-252 663,-216 853,-216 853,-252"/>
<text text-anchor="middle" x="758" y="-230.3" font-family="Times,serif" font-size="14.00">valence_server_common</text>
</g>
<!-- 2&#45;&gt;10 -->
<g id="edge4" class="edge">
<title>2&#45;&gt;10</title>
<path fill="none" stroke="black" d="M703.8,-287.7C712.6,-279.14 723.38,-268.66 733,-259.3"/>
<polygon fill="black" stroke="black" points="735.68,-261.58 740.41,-252.1 730.8,-256.57 735.68,-261.58"/>
</g>
<!-- 11&#45;&gt;10 -->
<g id="edge12" class="edge">
<title>11&#45;&gt;10</title>
<path fill="none" stroke="black" d="M812.96,-287.7C803.94,-279.05 792.88,-268.45 783.06,-259.03"/>
<polygon fill="black" stroke="black" points="785.48,-256.5 775.84,-252.1 780.63,-261.55 785.48,-256.5"/>
</g>
<!-- 6 -->
<g id="node9" class="node">
<title>6</title>
<polygon fill="none" stroke="black" points="675,-180 539,-180 539,-144 675,-144 675,-180"/>
<text text-anchor="middle" x="607" y="-158.3" font-family="Times,serif" font-size="14.00">valence_protocol</text>
</g>
<!-- 10&#45;&gt;6 -->
<g id="edge11" class="edge">
<title>10&#45;&gt;6</title>
<path fill="none" stroke="black" d="M721.06,-215.88C700.51,-206.35 674.75,-194.41 652.91,-184.28"/>
<polygon fill="black" stroke="black" points="654.36,-181.1 643.82,-180.07 651.42,-187.45 654.36,-181.1"/>
</g>
<!-- 3 -->
<g id="node6" class="node">
<title>3</title>
<polygon fill="none" stroke="black" points="535,-36 421,-36 421,0 535,0 535,-36"/>
<text text-anchor="middle" x="478" y="-14.3" font-family="Times,serif" font-size="14.00">valence_math</text>
</g>
<!-- 4 -->
<g id="node7" class="node">
<title>4</title>
<polygon fill="none" stroke="black" points="786.5,-36 685.5,-36 685.5,0 786.5,0 786.5,-36"/>
<text text-anchor="middle" x="736" y="-14.3" font-family="Times,serif" font-size="14.00">valence_nbt</text>
</g>
<!-- 5 -->
<g id="node8" class="node">
<title>5</title>
<polygon fill="none" stroke="black" points="667,-36 553,-36 553,0 667,0 667,-36"/>
<text text-anchor="middle" x="610" y="-14.3" font-family="Times,serif" font-size="14.00">valence_ident</text>
</g>
<!-- 7 -->
<g id="node10" class="node">
<title>7</title>
<polygon fill="none" stroke="black" points="609,-108 459,-108 459,-72 609,-72 609,-108"/>
<text text-anchor="middle" x="534" y="-86.3" font-family="Times,serif" font-size="14.00">valence_generated</text>
</g>
<!-- 6&#45;&gt;7 -->
<g id="edge5" class="edge">
<title>6&#45;&gt;7</title>
<path fill="none" stroke="black" d="M588.96,-143.7C579.94,-135.05 568.88,-124.45 559.06,-115.03"/>
<polygon fill="black" stroke="black" points="561.48,-112.5 551.84,-108.1 556.63,-117.55 561.48,-112.5"/>
</g>
<!-- 9 -->
<g id="node11" class="node">
<title>9</title>
<polygon fill="none" stroke="black" points="733,-108 627,-108 627,-72 733,-72 733,-108"/>
<text text-anchor="middle" x="680" y="-86.3" font-family="Times,serif" font-size="14.00">valence_text</text>
</g>
<!-- 6&#45;&gt;9 -->
<g id="edge6" class="edge">
<title>6&#45;&gt;9</title>
<path fill="none" stroke="black" d="M625.04,-143.7C634.06,-135.05 645.12,-124.45 654.94,-115.03"/>
<polygon fill="black" stroke="black" points="657.37,-117.55 662.16,-108.1 652.52,-112.5 657.37,-117.55"/>
</g>
<!-- 7&#45;&gt;3 -->
<g id="edge7" class="edge">
<title>7&#45;&gt;3</title>
<path fill="none" stroke="black" d="M520.16,-71.7C513.51,-63.39 505.42,-53.28 498.11,-44.14"/>
<polygon fill="black" stroke="black" points="500.66,-41.73 491.68,-36.1 495.2,-46.1 500.66,-41.73"/>
</g>
<!-- 7&#45;&gt;5 -->
<g id="edge8" class="edge">
<title>7&#45;&gt;5</title>
<path fill="none" stroke="black" d="M552.79,-71.7C562.17,-63.05 573.68,-52.45 583.91,-43.03"/>
<polygon fill="black" stroke="black" points="586.45,-45.45 591.43,-36.1 581.7,-40.3 586.45,-45.45"/>
</g>
<!-- 9&#45;&gt;4 -->
<g id="edge9" class="edge">
<title>9&#45;&gt;4</title>
<path fill="none" stroke="black" d="M693.84,-71.7C700.49,-63.39 708.58,-53.28 715.89,-44.14"/>
<polygon fill="black" stroke="black" points="718.8,-46.1 722.32,-36.1 713.34,-41.73 718.8,-46.1"/>
</g>
<!-- 9&#45;&gt;5 -->
<g id="edge10" class="edge">
<title>9&#45;&gt;5</title>
<path fill="none" stroke="black" d="M662.7,-71.7C654.14,-63.14 643.66,-52.66 634.3,-43.3"/>
<polygon fill="black" stroke="black" points="636.65,-40.7 627.1,-36.1 631.7,-45.65 636.65,-40.7"/>
</g>
<!-- 8 -->
<g id="node12" class="node">
<title>8</title>
<polygon fill="none" stroke="black" points="868,-684 716,-684 716,-648 868,-648 868,-684"/>
<text text-anchor="middle" x="792" y="-662.3" font-family="Times,serif" font-size="14.00">valence_build_utils</text>
</g>
<!-- 12 -->
<g id="node13" class="node">
<title>12</title>
<polygon fill="none" stroke="black" points="112,-468 0,-468 0,-432 112,-432 112,-468"/>
<text text-anchor="middle" x="56" y="-446.3" font-family="Times,serif" font-size="14.00">valence_anvil</text>
</g>
<!-- 12&#45;&gt;1 -->
<g id="edge13" class="edge">
<title>12&#45;&gt;1</title>
<path fill="none" stroke="black" stroke-dasharray="1,5" d="M112.24,-433.66C115.19,-433.05 118.13,-432.49 121,-432 324.01,-397.28 567.46,-385.04 686.02,-380.94"/>
<polygon fill="black" stroke="black" points="686.19,-384.44 696.06,-380.6 685.95,-377.44 686.19,-384.44"/>
</g>
<!-- 13 -->
<g id="node14" class="node">
<title>13</title>
<polygon fill="none" stroke="black" points="270,-468 130,-468 130,-432 270,-432 270,-468"/>
<text text-anchor="middle" x="200" y="-446.3" font-family="Times,serif" font-size="14.00">valence_boss_bar</text>
</g>
<!-- 13&#45;&gt;1 -->
<g id="edge14" class="edge">
<title>13&#45;&gt;1</title>
<path fill="none" stroke="black" d="M270.14,-433.52C273.13,-432.98 276.09,-432.47 279,-432 422.68,-408.65 592.3,-392.56 686.24,-384.65"/>
<polygon fill="black" stroke="black" points="686.81,-388.11 696.48,-383.79 686.23,-381.14 686.81,-388.11"/>
</g>
<!-- 14 -->
<g id="node15" class="node">
<title>14</title>
<polygon fill="none" stroke="black" points="497,-540 389,-540 389,-504 497,-504 497,-540"/>
<text text-anchor="middle" x="443" y="-518.3" font-family="Times,serif" font-size="14.00">valence_chat</text>
</g>
<!-- 15 -->
<g id="node16" class="node">
<title>15</title>
<polygon fill="none" stroke="black" points="730,-468 622,-468 622,-432 730,-432 730,-468"/>
<text text-anchor="middle" x="676" y="-446.3" font-family="Times,serif" font-size="14.00">valence_lang</text>
</g>
<!-- 14&#45;&gt;15 -->
<g id="edge15" class="edge">
<title>14&#45;&gt;15</title>
<path fill="none" stroke="black" d="M497.04,-504.76C531.32,-494.46 575.85,-481.09 611.92,-470.25"/>
<polygon fill="black" stroke="black" points="613.28,-473.5 621.85,-467.27 611.27,-466.79 613.28,-473.5"/>
</g>
<!-- 16 -->
<g id="node17" class="node">
<title>16</title>
<polygon fill="none" stroke="black" points="604,-468 452,-468 452,-432 604,-432 604,-468"/>
<text text-anchor="middle" x="528" y="-446.3" font-family="Times,serif" font-size="14.00">valence_player_list</text>
</g>
<!-- 14&#45;&gt;16 -->
<g id="edge16" class="edge">
<title>14&#45;&gt;16</title>
<path fill="none" stroke="black" d="M464.01,-503.7C474.72,-494.88 487.89,-484.03 499.5,-474.47"/>
<polygon fill="black" stroke="black" points="501.74,-477.16 507.23,-468.1 497.29,-471.76 501.74,-477.16"/>
</g>
<!-- 16&#45;&gt;1 -->
<g id="edge17" class="edge">
<title>16&#45;&gt;1</title>
<path fill="none" stroke="black" d="M583.97,-431.97C616.53,-422.06 657.74,-409.51 691.89,-399.12"/>
<polygon fill="black" stroke="black" points="693.23,-402.37 701.78,-396.11 691.19,-395.67 693.23,-402.37"/>
</g>
<!-- 17 -->
<g id="node18" class="node">
<title>17</title>
<polygon fill="none" stroke="black" points="434,-468 288,-468 288,-432 434,-432 434,-468"/>
<text text-anchor="middle" x="361" y="-446.3" font-family="Times,serif" font-size="14.00">valence_inventory</text>
</g>
<!-- 17&#45;&gt;1 -->
<g id="edge18" class="edge">
<title>17&#45;&gt;1</title>
<path fill="none" stroke="black" d="M434.29,-433.66C437.23,-433.09 440.14,-432.54 443,-432 526.3,-416.36 622.4,-400.51 686.33,-390.27"/>
<polygon fill="black" stroke="black" points="686.99,-393.71 696.31,-388.67 685.88,-386.8 686.99,-393.71"/>
</g>
<!-- 18 -->
<g id="node19" class="node">
<title>18</title>
<polygon fill="none" stroke="black" points="651,-540 515,-540 515,-504 651,-504 651,-540"/>
<text text-anchor="middle" x="583" y="-518.3" font-family="Times,serif" font-size="14.00">valence_network</text>
</g>
<!-- 18&#45;&gt;1 -->
<g id="edge19" class="edge">
<title>18&#45;&gt;1</title>
<path fill="none" stroke="black" d="M651.03,-504.99C687.22,-495.14 726.74,-481.79 739,-468 753.88,-451.26 758.11,-425.77 758.92,-406.36"/>
<polygon fill="black" stroke="black" points="762.42,-406.34 759.06,-396.29 755.42,-406.24 762.42,-406.34"/>
</g>
<!-- 18&#45;&gt;15 -->
<g id="edge20" class="edge">
<title>18&#45;&gt;15</title>
<path fill="none" stroke="black" d="M605.99,-503.7C617.81,-494.8 632.39,-483.82 645.18,-474.2"/>
<polygon fill="black" stroke="black" points="647.39,-476.91 653.28,-468.1 643.18,-471.32 647.39,-476.91"/>
</g>
<!-- 19 -->
<g id="node20" class="node">
<title>19</title>
<polygon fill="none" stroke="black" points="826.5,-540 669.5,-540 669.5,-504 826.5,-504 826.5,-540"/>
<text text-anchor="middle" x="748" y="-518.3" font-family="Times,serif" font-size="14.00">valence_scoreboard</text>
</g>
<!-- 19&#45;&gt;1 -->
<g id="edge21" class="edge">
<title>19&#45;&gt;1</title>
<path fill="none" stroke="black" d="M757.95,-503.98C763.27,-493.89 769.27,-480.64 772,-468 776.47,-447.3 772.29,-423.59 767.37,-405.85"/>
<polygon fill="black" stroke="black" points="770.68,-404.73 764.44,-396.17 763.98,-406.75 770.68,-404.73"/>
</g>
<!-- 20 -->
<g id="node21" class="node">
<title>20</title>
<polygon fill="none" stroke="black" points="1011.5,-684 886.5,-684 886.5,-648 1011.5,-648 1011.5,-684"/>
<text text-anchor="middle" x="949" y="-662.3" font-family="Times,serif" font-size="14.00">valence_spatial</text>
</g>
<!-- 21 -->
<g id="node22" class="node">
<title>21</title>
<polygon fill="none" stroke="black" points="981,-540 845,-540 845,-504 981,-504 981,-540"/>
<text text-anchor="middle" x="913" y="-518.3" font-family="Times,serif" font-size="14.00">valence_weather</text>
</g>
<!-- 21&#45;&gt;1 -->
<g id="edge22" class="edge">
<title>21&#45;&gt;1</title>
<path fill="none" stroke="black" d="M894.3,-503.87C866.84,-478.71 815.47,-431.65 784.24,-403.04"/>
<polygon fill="black" stroke="black" points="786.5,-400.36 776.76,-396.19 781.77,-405.53 786.5,-400.36"/>
</g>
<!-- 22 -->
<g id="node23" class="node">
<title>22</title>
<polygon fill="none" stroke="black" points="1172.5,-540 999.5,-540 999.5,-504 1172.5,-504 1172.5,-540"/>
<text text-anchor="middle" x="1086" y="-518.3" font-family="Times,serif" font-size="14.00">valence_world_border</text>
</g>
<!-- 22&#45;&gt;1 -->
<g id="edge23" class="edge">
<title>22&#45;&gt;1</title>
<path fill="none" stroke="black" d="M1046.44,-503.87C986.27,-477.82 871.89,-428.3 806.7,-400.08"/>
<polygon fill="black" stroke="black" points="808.02,-396.84 797.45,-396.08 805.24,-403.26 808.02,-396.84"/>
</g>
<!-- 23 -->
<g id="node24" class="node">
<title>23</title>
<polygon fill="none" stroke="black" points="581.5,-684 454.5,-684 454.5,-648 581.5,-648 581.5,-684"/>
<text text-anchor="middle" x="518" y="-662.3" font-family="Times,serif" font-size="14.00">dump_schedule</text>
</g>
<!-- 24 -->
<g id="node25" class="node">
<title>24</title>
<polygon fill="none" stroke="black" points="618.5,-612 547.5,-612 547.5,-576 618.5,-576 618.5,-612"/>
<text text-anchor="middle" x="583" y="-590.3" font-family="Times,serif" font-size="14.00">valence</text>
</g>
<!-- 23&#45;&gt;24 -->
<g id="edge24" class="edge">
<title>23&#45;&gt;24</title>
<path fill="none" stroke="black" d="M534.07,-647.7C541.94,-639.22 551.56,-628.86 560.17,-619.58"/>
<polygon fill="black" stroke="black" points="562.88,-621.81 567.12,-612.1 557.75,-617.05 562.88,-621.81"/>
</g>
<!-- 24&#45;&gt;0 -->
<g id="edge25" class="edge">
<title>24&#45;&gt;0</title>
<path fill="none" stroke="black" stroke-dasharray="1,5" d="M618.6,-592.58C741.55,-590.75 1142.91,-581.61 1181,-540 1196.34,-523.24 1189.77,-496.85 1181.21,-477.16"/>
<polygon fill="black" stroke="black" points="1184.37,-475.65 1176.94,-468.09 1178.04,-478.63 1184.37,-475.65"/>
</g>
<!-- 24&#45;&gt;12 -->
<g id="edge26" class="edge">
<title>24&#45;&gt;12</title>
<path fill="none" stroke="black" stroke-dasharray="1,5" d="M547.05,-588.95C490.38,-582.05 377.14,-566.16 284,-540 219.45,-521.87 147.86,-492.28 102.43,-472.25"/>
<polygon fill="black" stroke="black" points="103.71,-468.98 93.15,-468.12 100.86,-475.38 103.71,-468.98"/>
</g>
<!-- 24&#45;&gt;13 -->
<g id="edge27" class="edge">
<title>24&#45;&gt;13</title>
<path fill="none" stroke="black" stroke-dasharray="1,5" d="M547.34,-587.63C502.54,-580.19 423.8,-564.78 360,-540 314.43,-522.3 265.85,-493.74 234.34,-473.76"/>
<polygon fill="black" stroke="black" points="235.84,-470.56 225.53,-468.11 232.06,-476.45 235.84,-470.56"/>
</g>
<!-- 24&#45;&gt;14 -->
<g id="edge28" class="edge">
<title>24&#45;&gt;14</title>
<path fill="none" stroke="black" stroke-dasharray="1,5" d="M548.75,-575.88C529.94,-566.47 506.42,-554.71 486.33,-544.67"/>
<polygon fill="black" stroke="black" points="487.89,-541.53 477.38,-540.19 484.76,-547.79 487.89,-541.53"/>
</g>
<!-- 24&#45;&gt;17 -->
<g id="edge29" class="edge">
<title>24&#45;&gt;17</title>
<path fill="none" stroke="black" stroke-dasharray="1,5" d="M547.23,-588.22C495.33,-580.55 402.84,-563.89 380,-540 364.43,-523.71 360.31,-497.96 359.72,-478.33"/>
<polygon fill="black" stroke="black" points="363.22,-478.16 359.7,-468.16 356.22,-478.17 363.22,-478.16"/>
</g>
<!-- 24&#45;&gt;18 -->
<g id="edge30" class="edge">
<title>24&#45;&gt;18</title>
<path fill="none" stroke="black" stroke-dasharray="1,5" d="M583,-575.7C583,-567.98 583,-558.71 583,-550.11"/>
<polygon fill="black" stroke="black" points="586.5,-550.1 583,-540.1 579.5,-550.1 586.5,-550.1"/>
</g>
<!-- 24&#45;&gt;19 -->
<g id="edge31" class="edge">
<title>24&#45;&gt;19</title>
<path fill="none" stroke="black" stroke-dasharray="1,5" d="M618.8,-577.81C642.19,-567.89 673.03,-554.81 698.72,-543.91"/>
<polygon fill="black" stroke="black" points="700.09,-547.13 707.92,-540 697.35,-540.69 700.09,-547.13"/>
</g>
<!-- 24&#45;&gt;21 -->
<g id="edge32" class="edge">
<title>24&#45;&gt;21</title>
<path fill="none" stroke="black" stroke-dasharray="1,5" d="M618.91,-585.53C667.8,-575.35 758.06,-556.48 835,-540 835.1,-539.98 835.2,-539.96 835.31,-539.93"/>
<polygon fill="black" stroke="black" points="835.9,-543.39 844.94,-537.86 834.43,-536.54 835.9,-543.39"/>
</g>
<!-- 24&#45;&gt;22 -->
<g id="edge33" class="edge">
<title>24&#45;&gt;22</title>
<path fill="none" stroke="black" stroke-dasharray="1,5" d="M618.74,-588.9C688,-580.84 845.57,-561.92 989.11,-540.1"/>
<polygon fill="black" stroke="black" points="990.07,-543.49 999.42,-538.52 989.01,-536.57 990.07,-543.49"/>
</g>
<!-- 25 -->
<g id="node26" class="node">
<title>25</title>
<polygon fill="none" stroke="black" points="551.5,-252 414.5,-252 414.5,-216 551.5,-216 551.5,-252"/>
<text text-anchor="middle" x="483" y="-230.3" font-family="Times,serif" font-size="14.00">packet_inspector</text>
</g>
<!-- 25&#45;&gt;6 -->
<g id="edge34" class="edge">
<title>25&#45;&gt;6</title>
<path fill="none" stroke="black" d="M513.33,-215.88C529.7,-206.64 550.08,-195.13 567.65,-185.21"/>
<polygon fill="black" stroke="black" points="569.56,-188.15 576.55,-180.19 566.12,-182.06 569.56,-188.15"/>
</g>
<!-- 26 -->
<g id="node27" class="node">
<title>26</title>
<polygon fill="none" stroke="black" points="698,-684 600,-684 600,-648 698,-648 698,-684"/>
<text text-anchor="middle" x="649" y="-662.3" font-family="Times,serif" font-size="14.00">playground</text>
</g>
<!-- 26&#45;&gt;24 -->
<g id="edge35" class="edge">
<title>26&#45;&gt;24</title>
<path fill="none" stroke="black" d="M632.69,-647.7C624.69,-639.22 614.93,-628.86 606.18,-619.58"/>
<polygon fill="black" stroke="black" points="608.53,-616.98 599.13,-612.1 603.44,-621.78 608.53,-616.98"/>
</g>
<!-- 27 -->
<g id="node28" class="node">
<title>27</title>
<polygon fill="none" stroke="black" points="644.5,-252 569.5,-252 569.5,-216 644.5,-216 644.5,-252"/>
<text text-anchor="middle" x="607" y="-230.3" font-family="Times,serif" font-size="14.00">stresser</text>
</g>
<!-- 27&#45;&gt;6 -->
<g id="edge36" class="edge">
<title>27&#45;&gt;6</title>
<path fill="none" stroke="black" d="M607,-215.7C607,-207.98 607,-198.71 607,-190.11"/>
<polygon fill="black" stroke="black" points="610.5,-190.1 607,-180.1 603.5,-190.1 610.5,-190.1"/>
</g>
</g>
</svg>
